<svg xmlns="http://www.w3.org/2000/svg" xmlns:xlink="http://www.w3.org/1999/xlink" fill="none" version="1.1" width="58" height="58" viewBox="0 0 58 58"><g style="mix-blend-mode:passthrough"><g style="mix-blend-mode:passthrough"><g style="mix-blend-mode:passthrough"><g style="mix-blend-mode:passthrough"><path d="M46.285195867919924,33.36293472061158Q46.299095867919924,25.782334720611573,39.614395867919924,17.37043472061157Q35.40959586791992,12.079164720611573,29.629995867919924,7.614504720611572Q29.348195867919923,7.395334720611572,29.00009586791992,7.395334720611572Q28.651895867919922,7.395334720611572,28.37339586791992,7.611974720611572Q22.546795867919922,12.058684720611573,18.38157586791992,17.283434720611574Q11.718655867919923,25.64123472061157,11.760545867919921,33.33563472061157Q11.760565867919922,36.84373472061157,13.117515867919922,40.04773472061157Q14.429135867919921,43.144534720611574,16.81999586791992,45.53743472061157Q19.211905867919924,47.93143472061157,22.30859586791992,49.244734720611575Q25.51499586791992,50.60463472061157,29.02289586791992,50.60463472061157Q32.53199586791992,50.60463472061157,35.73819586791993,49.247934720611575Q38.835295867919925,47.93743472061157,41.226595867919926,45.54813472061157Q43.617195867919925,43.159534720611575,44.928395867919924,40.06653472061157Q46.285195867919924,36.86613472061157,46.285195867919924,33.36523472061157L46.285195867919924,33.36293472061158ZM48.785195867919924,33.36523472061157Q48.785195867919924,37.37423472061157,47.23009586791992,41.04233472061157Q45.72879586791992,44.583734720611574,42.99359586791992,47.316634720611574Q40.25789586791992,50.05003472061157,36.71249586791993,51.55023472061157Q33.03919586791992,53.10463472061157,29.02289586791992,53.10463472061157Q25.006695867919923,53.10463472061157,21.33239586791992,51.546334720611576Q17.78751586791992,50.04283472061157,15.051485867919922,47.304434720611575Q12.316795867919922,44.56743472061157,10.815473867919922,41.02263472061157Q9.260565867919922,37.351334720611575,9.260585867919922,33.34923472061158Q9.213895867919922,24.772734720611574,16.426735867919923,15.725014720611572Q20.784495867919922,10.258714720611572,26.83849586791992,5.638592720611572Q27.79409586791992,4.895334720611572,29.00009586791992,4.895334720611572Q30.20599586791992,4.895334720611572,31.15829586791992,5.636059720611573Q37.17809586791992,10.286234720611573,41.57169586791992,15.815094720611572Q48.80069586791992,24.912034720611572,48.785195867919924,33.36753472061157L48.785195867919924,33.36523472061157Z" fill="#FFFFFF" fill-opacity="1"/></g><g style="mix-blend-mode:passthrough"><path d="M27.75006103515625,51.85463472061157L27.75006103515625,6.145334720611572Q27.75006103515625,6.083926120611572,27.75608103515625,6.022813720611572Q27.76210103515625,5.961700720611573,27.77408103515625,5.901471720611572Q27.78606103515625,5.841243720611573,27.80388103515625,5.782478720611572Q27.821711035156248,5.723714720611572,27.84521103515625,5.666980720611572Q27.86871103515625,5.610246720611572,27.89766103515625,5.556088720611572Q27.92661103515625,5.501931720611572,27.96072103515625,5.450871720611572Q27.99484103515625,5.399812720611572,28.03379803515625,5.352342720611572Q28.07275503515625,5.304873720611572,28.11617803515625,5.261451720611572Q28.15960003515625,5.2180287206115725,28.20706903515625,5.179071720611573Q28.25453903515625,5.140114720611573,28.30559803515625,5.105994720611572Q28.35665803515625,5.071884720611572,28.41081503515625,5.042934720611572Q28.464973035156248,5.013984720611572,28.52170703515625,4.9904847206115726Q28.57844103515625,4.966984720611572,28.63720503515625,4.949154720611572Q28.69597003515625,4.931334720611572,28.75619803515625,4.919354720611572Q28.81642703515625,4.907374720611572,28.87754003515625,4.901354720611572Q28.93865243515625,4.895334720611572,29.00006103515625,4.895334720611572Q29.06146963515625,4.895334720611572,29.12258203515625,4.901354720611572Q29.18369503515625,4.907374720611572,29.24392403515625,4.919354720611572Q29.30415203515625,4.931334720611572,29.36291703515625,4.949154720611572Q29.42168103515625,4.966984720611572,29.47841503515625,4.9904847206115726Q29.535149035156252,5.013984720611572,29.58930703515625,5.042934720611572Q29.64346403515625,5.071884720611572,29.69452403515625,5.105994720611572Q29.74558303515625,5.140114720611573,29.79305303515625,5.179071720611573Q29.84052203515625,5.2180287206115725,29.88394403515625,5.261451720611572Q29.92736703515625,5.304873720611572,29.96632403515625,5.352342720611572Q30.00528103515625,5.399812720611572,30.03940103515625,5.450871720611572Q30.07351103515625,5.501931720611572,30.10246103515625,5.556088720611572Q30.13141103515625,5.610246720611572,30.15491103515625,5.666980720611572Q30.178411035156252,5.723714720611572,30.19624103515625,5.782478720611572Q30.21406103515625,5.841243720611573,30.22604103515625,5.901471720611572Q30.23802103515625,5.961700720611573,30.24404103515625,6.022813720611572Q30.25006103515625,6.083926120611572,30.25006103515625,6.145334720611572L30.25006103515625,51.85463472061157Q30.25006103515625,51.91603472061157,30.24404103515625,51.97713472061157Q30.23802103515625,52.03833472061157,30.22604103515625,52.098534720611575Q30.21406103515625,52.15873472061157,30.19624103515625,52.217534720611575Q30.178411035156252,52.27623472061157,30.15491103515625,52.33303472061157Q30.13141103515625,52.38973472061157,30.10246103515625,52.44393472061157Q30.07351103515625,52.49803472061157,30.03940103515625,52.54913472061157Q30.00528103515625,52.60013472061157,29.96632403515625,52.64763472061157Q29.92736703515625,52.69513472061157,29.88394403515625,52.738534720611575Q29.84052203515625,52.781934720611574,29.79305303515625,52.820934720611575Q29.74558303515625,52.85993472061157,29.69452403515625,52.89403472061157Q29.64346403515625,52.928134720611574,29.58930703515625,52.957034720611574Q29.535149035156252,52.98603472061157,29.47841503515625,53.00953472061157Q29.42168103515625,53.033034720611575,29.36291703515625,53.050834720611576Q29.30415203515625,53.06863472061157,29.24392403515625,53.08063472061157Q29.18369503515625,53.09263472061157,29.12258203515625,53.09863472061157Q29.06146963515625,53.10463472061157,29.00006103515625,53.10463472061157Q28.93865243515625,53.10463472061157,28.87754003515625,53.09863472061157Q28.81642703515625,53.09263472061157,28.75619803515625,53.08063472061157Q28.69597003515625,53.06863472061157,28.63720503515625,53.050834720611576Q28.57844103515625,53.033034720611575,28.52170703515625,53.00953472061157Q28.464973035156248,52.98603472061157,28.41081503515625,52.957034720611574Q28.35665803515625,52.928134720611574,28.30559803515625,52.89403472061157Q28.25453903515625,52.85993472061157,28.20706903515625,52.820934720611575Q28.15960003515625,52.781934720611574,28.11617803515625,52.738534720611575Q28.07275503515625,52.69513472061157,28.03379803515625,52.64763472061157Q27.99484103515625,52.60013472061157,27.96072103515625,52.54913472061157Q27.92661103515625,52.49803472061157,27.89766103515625,52.44393472061157Q27.86871103515625,52.38973472061157,27.84521103515625,52.33303472061157Q27.821711035156248,52.27623472061157,27.80388103515625,52.217534720611575Q27.78606103515625,52.15873472061157,27.77408103515625,52.098534720611575Q27.76210103515625,52.03833472061157,27.75608103515625,51.97713472061157Q27.75006103515625,51.91603472061157,27.75006103515625,51.85463472061157ZM30.25006103515625,51.85463472061157Q30.25006103515625,51.91603472061157,30.24404103515625,51.97713472061157Q30.23802103515625,52.03833472061157,30.22604103515625,52.098534720611575Q30.21406103515625,52.15873472061157,30.19624103515625,52.217534720611575Q30.178411035156252,52.27623472061157,30.15491103515625,52.33303472061157Q30.13141103515625,52.38973472061157,30.10246103515625,52.44393472061157Q30.07351103515625,52.49803472061157,30.03940103515625,52.54913472061157Q30.00528103515625,52.60013472061157,29.96632403515625,52.64763472061157Q29.92736703515625,52.69513472061157,29.88394403515625,52.738534720611575Q29.84052203515625,52.781934720611574,29.79305303515625,52.820934720611575Q29.74558303515625,52.85993472061157,29.69452403515625,52.89403472061157Q29.64346403515625,52.928134720611574,29.58930703515625,52.957034720611574Q29.535149035156252,52.98603472061157,29.47841503515625,53.00953472061157Q29.42168103515625,53.033034720611575,29.36291703515625,53.050834720611576Q29.30415203515625,53.06863472061157,29.24392403515625,53.08063472061157Q29.18369503515625,53.09263472061157,29.12258203515625,53.09863472061157Q29.06146963515625,53.10463472061157,29.00006103515625,53.10463472061157Q28.93865243515625,53.10463472061157,28.87754003515625,53.09863472061157Q28.81642703515625,53.09263472061157,28.75619803515625,53.08063472061157Q28.69597003515625,53.06863472061157,28.63720503515625,53.050834720611576Q28.57844103515625,53.033034720611575,28.52170703515625,53.00953472061157Q28.464973035156248,52.98603472061157,28.41081503515625,52.957034720611574Q28.35665803515625,52.928134720611574,28.30559803515625,52.89403472061157Q28.25453903515625,52.85993472061157,28.20706903515625,52.820934720611575Q28.15960003515625,52.781934720611574,28.11617803515625,52.738534720611575Q28.07275503515625,52.69513472061157,28.03379803515625,52.64763472061157Q27.99484103515625,52.60013472061157,27.96072103515625,52.54913472061157Q27.92661103515625,52.49803472061157,27.89766103515625,52.44393472061157Q27.86871103515625,52.38973472061157,27.84521103515625,52.33303472061157Q27.821711035156248,52.27623472061157,27.80388103515625,52.217534720611575Q27.78606103515625,52.15873472061157,27.77408103515625,52.098534720611575Q27.76210103515625,52.03833472061157,27.75608103515625,51.97713472061157Q27.75006103515625,51.91603472061157,27.75006103515625,51.85463472061157Q27.75006103515625,51.79323472061157,27.75608103515625,51.73213472061157Q27.76210103515625,51.67103472061157,27.77408103515625,51.61083472061157Q27.78606103515625,51.55053472061157,27.80388103515625,51.49183472061157Q27.821711035156248,51.43303472061157,27.84521103515625,51.376334720611574Q27.86871103515625,51.31953472061157,27.89766103515625,51.26543472061157Q27.92661103515625,51.21123472061157,27.96072103515625,51.16023472061157Q27.99484103515625,51.10913472061157,28.03379803515625,51.06163472061157Q28.07275503515625,51.01423472061157,28.11617803515625,50.970734720611574Q28.15960003515625,50.92733472061157,28.20706903515625,50.88843472061157Q28.25453903515625,50.84943472061157,28.30559803515625,50.815334720611574Q28.35665803515625,50.78123472061157,28.41081503515625,50.752234720611575Q28.464973035156248,50.723334720611575,28.52170703515625,50.69983472061157Q28.57844103515625,50.67633472061157,28.63720503515625,50.658434720611574Q28.69597003515625,50.64063472061157,28.75619803515625,50.62863472061157Q28.81642703515625,50.616734720611575,28.87754003515625,50.610734720611575Q28.93865243515625,50.60463472061157,29.00006103515625,50.60463472061157Q29.06146963515625,50.60463472061157,29.12258203515625,50.610734720611575Q29.18369503515625,50.616734720611575,29.24392403515625,50.62863472061157Q29.30415203515625,50.64063472061157,29.36291703515625,50.658434720611574Q29.42168103515625,50.67633472061157,29.47841503515625,50.69983472061157Q29.535149035156252,50.723334720611575,29.58930703515625,50.752234720611575Q29.64346403515625,50.78123472061157,29.69452403515625,50.815334720611574Q29.74558303515625,50.84943472061157,29.79305303515625,50.88843472061157Q29.84052203515625,50.92733472061157,29.88394403515625,50.970734720611574Q29.92736703515625,51.01423472061157,29.96632403515625,51.06163472061157Q30.00528103515625,51.10913472061157,30.03940103515625,51.16023472061157Q30.07351103515625,51.21123472061157,30.10246103515625,51.26543472061157Q30.13141103515625,51.31953472061157,30.15491103515625,51.376334720611574Q30.178411035156252,51.43303472061157,30.19624103515625,51.49183472061157Q30.21406103515625,51.55053472061157,30.22604103515625,51.61083472061157Q30.23802103515625,51.67103472061157,30.24404103515625,51.73213472061157Q30.25006103515625,51.79323472061157,30.25006103515625,51.85463472061157ZM30.25006103515625,6.145334720611572Q30.25006103515625,6.206743320611572,30.24404103515625,6.267855720611572Q30.23802103515625,6.328968720611572,30.22604103515625,6.389197720611572Q30.21406103515625,6.449425720611572,30.19624103515625,6.508190720611572Q30.178411035156252,6.566954720611572,30.15491103515625,6.623688720611573Q30.13141103515625,6.680422720611572,30.10246103515625,6.734580720611572Q30.07351103515625,6.788737720611572,30.03940103515625,6.839797720611572Q30.00528103515625,6.8908567206115725,29.96632403515625,6.938326720611572Q29.92736703515625,6.985795720611573,29.88394403515625,7.029217720611572Q29.84052203515625,7.072640720611572,29.79305303515625,7.111597720611572Q29.74558303515625,7.150554720611572,29.69452403515625,7.184674720611572Q29.64346403515625,7.2187847206115725,29.58930703515625,7.2477347206115725Q29.535149035156252,7.276684720611573,29.47841503515625,7.300184720611572Q29.42168103515625,7.323684720611572,29.36291703515625,7.341514720611572Q29.30415203515625,7.359334720611573,29.24392403515625,7.371314720611572Q29.18369503515625,7.383294720611572,29.12258203515625,7.389314720611573Q29.06146963515625,7.395334720611572,29.00006103515625,7.395334720611572Q28.93865243515625,7.395334720611572,28.87754003515625,7.389314720611573Q28.81642703515625,7.383294720611572,28.75619803515625,7.371314720611572Q28.69597003515625,7.359334720611573,28.63720503515625,7.341514720611572Q28.57844103515625,7.323684720611572,28.52170703515625,7.300184720611572Q28.464973035156248,7.276684720611573,28.41081503515625,7.2477347206115725Q28.35665803515625,7.2187847206115725,28.30559803515625,7.184674720611572Q28.25453903515625,7.150554720611572,28.20706903515625,7.111597720611572Q28.15960003515625,7.072640720611572,28.11617803515625,7.029217720611572Q28.07275503515625,6.985795720611573,28.03379803515625,6.938326720611572Q27.99484103515625,6.8908567206115725,27.96072103515625,6.839797720611572Q27.92661103515625,6.788737720611572,27.89766103515625,6.734580720611572Q27.86871103515625,6.680422720611572,27.84521103515625,6.623688720611573Q27.821711035156248,6.566954720611572,27.80388103515625,6.508190720611572Q27.78606103515625,6.449425720611572,27.77408103515625,6.389197720611572Q27.76210103515625,6.328968720611572,27.75608103515625,6.267855720611572Q27.75006103515625,6.206743320611572,27.75006103515625,6.145334720611572Q27.75006103515625,6.083926120611572,27.75608103515625,6.022813720611572Q27.76210103515625,5.961700720611573,27.77408103515625,5.901471720611572Q27.78606103515625,5.841243720611573,27.80388103515625,5.782478720611572Q27.821711035156248,5.723714720611572,27.84521103515625,5.666980720611572Q27.86871103515625,5.610246720611572,27.89766103515625,5.556088720611572Q27.92661103515625,5.501931720611572,27.96072103515625,5.450871720611572Q27.99484103515625,5.399812720611572,28.03379803515625,5.352342720611572Q28.07275503515625,5.304873720611572,28.11617803515625,5.261451720611572Q28.15960003515625,5.2180287206115725,28.20706903515625,5.179071720611573Q28.25453903515625,5.140114720611573,28.30559803515625,5.105994720611572Q28.35665803515625,5.071884720611572,28.41081503515625,5.042934720611572Q28.464973035156248,5.013984720611572,28.52170703515625,4.9904847206115726Q28.57844103515625,4.966984720611572,28.63720503515625,4.949154720611572Q28.69597003515625,4.931334720611572,28.75619803515625,4.919354720611572Q28.81642703515625,4.907374720611572,28.87754003515625,4.901354720611572Q28.93865243515625,4.895334720611572,29.00006103515625,4.895334720611572Q29.06146963515625,4.895334720611572,29.12258203515625,4.901354720611572Q29.18369503515625,4.907374720611572,29.24392403515625,4.919354720611572Q29.30415203515625,4.931334720611572,29.36291703515625,4.949154720611572Q29.42168103515625,4.966984720611572,29.47841503515625,4.9904847206115726Q29.535149035156252,5.013984720611572,29.58930703515625,5.042934720611572Q29.64346403515625,5.071884720611572,29.69452403515625,5.105994720611572Q29.74558303515625,5.140114720611573,29.79305303515625,5.179071720611573Q29.84052203515625,5.2180287206115725,29.88394403515625,5.261451720611572Q29.92736703515625,5.304873720611572,29.96632403515625,5.352342720611572Q30.00528103515625,5.399812720611572,30.03940103515625,5.450871720611572Q30.07351103515625,5.501931720611572,30.10246103515625,5.556088720611572Q30.13141103515625,5.610246720611572,30.15491103515625,5.666980720611572Q30.178411035156252,5.723714720611572,30.19624103515625,5.782478720611572Q30.21406103515625,5.841243720611573,30.22604103515625,5.901471720611572Q30.23802103515625,5.961700720611573,30.24404103515625,6.022813720611572Q30.25006103515625,6.083926120611572,30.25006103515625,6.145334720611572Z" fill="#FFFFFF" fill-opacity="1"/></g><g style="mix-blend-mode:passthrough"><path d="M47.14426103515625,37.483593338623045L29.54619003515625,46.031233338623046Q29.49095203515625,46.05806333862304,29.43335103515625,46.07934333862305Q29.37575003515625,46.10063333862305,29.31633903515625,46.116163338623046Q29.25692903515625,46.13170333862305,29.19628203515625,46.141343338623045Q29.13563503515625,46.15098333862305,29.07433463515625,46.15463333862304Q29.01303463515625,46.15828333862305,28.95167203515625,46.15590333862305Q28.89030903515625,46.153523338623046,28.82947503515625,46.14514333862304Q28.76864103515625,46.13676333862305,28.70892203515625,46.12246333862305Q28.64920203515625,46.108163338623044,28.59117203515625,46.08807333862305Q28.53314203515625,46.06798333862305,28.47736003515625,46.042313338623046Q28.42157803515625,46.016633338623045,28.36858203515625,45.98560333862305Q28.31558503515625,45.954583338623046,28.26588503515625,45.91851333862304Q28.21618403515625,45.88245333862305,28.17025903515625,45.84168333862305Q28.12433303515625,45.80092333862305,28.08262403515625,45.755843338623045Q28.04091503515625,45.71077333862305,28.00382503515625,45.66183333862305Q27.96673103515625,45.612893338623046,27.93462103515625,45.560553338623045Q27.90250103515625,45.50821333862305,27.87567103515625,45.452973338623046Q27.84884103515625,45.39773333862305,27.82756103515625,45.34013333862305Q27.80627103515625,45.28253333862305,27.79073103515625,45.22312333862305Q27.77520103515625,45.16371333862305,27.76556103515625,45.103063338623045Q27.75592103515625,45.04241333862305,27.75227103515625,44.98111333862305Q27.74862103515625,44.919813338623044,27.75100103515625,44.85845333862305Q27.75337103515625,44.79709333862304,27.76175103515625,44.736253338623044Q27.77013103515625,44.67542333862305,27.78444103515625,44.61570333862305Q27.79874103515625,44.55598333862305,27.81883103515625,44.49795333862305Q27.83892103515625,44.439923338623046,27.86459103515625,44.38414333862305Q27.89027103515625,44.32836333862305,27.92130103515625,44.275363338623045Q27.95232103515625,44.22236333862305,27.98839103515625,44.172663338623046Q28.02445403515625,44.122963338623045,28.06522003515625,44.07704333862305Q28.10598503515625,44.031113338623044,28.15105603515625,43.98940333862305Q28.19612703515625,43.94769333862305,28.24506903515625,43.91060333862305Q28.29401103515625,43.87351333862305,28.34635303515625,43.841403338623046Q28.39869403515625,43.80928333862305,28.45393203515625,43.78245333862305L46.05206103515625,35.23481333862305Q46.10726103515625,35.207983338623045,46.16486103515625,35.18670333862305Q46.22246103515625,35.16541333862305,46.281861035156254,35.149873338623046Q46.341361035156254,35.13434333862305,46.40196103515625,35.12470333862305Q46.46256103515625,35.115063338623045,46.52386103515625,35.111413338623045Q46.58516103515625,35.107763338623045,46.64656103515625,35.11014333862305Q46.707961035156245,35.112513338623046,46.768761035156245,35.12089333862305Q46.829561035156246,35.129273338623044,46.88936103515625,35.143583338623046Q46.94906103515625,35.157883338623044,47.007061035156255,35.17797333862305Q47.06506103515625,35.198063338623044,47.12086103515625,35.22373333862305Q47.17666103515625,35.24941333862305,47.229661035156255,35.280443338623044Q47.28266103515625,35.31146333862305,47.332361035156254,35.347533338623045Q47.382061035156255,35.38359633862305,47.42796103515625,35.42436233862305Q47.47386103515625,35.46512733862305,47.51566103515625,35.51019833862305Q47.55736103515625,35.55526933862305,47.59446103515625,35.604211338623045Q47.63146103515625,35.65315333862305,47.66366103515625,35.705495338623045Q47.69576103515625,35.757836338623044,47.72256103515625,35.813074338623046Q47.749361035156255,35.86831233862305,47.77066103515625,35.92591333862305Q47.79196103515625,35.983514338623046,47.80746103515625,36.04292533862305Q47.82306103515625,36.10233533862305,47.83266103515625,36.162982338623046Q47.84236103515625,36.22362933862305,47.84596103515625,36.28492973862305Q47.849661035156245,36.346229738623045,47.84726103515625,36.40759233862305Q47.84486103515625,36.46895533862305,47.83646103515625,36.52978933862305Q47.82806103515625,36.59062333862305,47.81376103515625,36.65034233862305Q47.79946103515625,36.71006233862305,47.779461035156245,36.76809233862305Q47.759361035156246,36.826122338623044,47.733661035156246,36.881904338623045Q47.707961035156245,36.937686338623045,47.67696103515625,36.990682338623046Q47.64596103515625,37.04367933862304,47.60986103515625,37.093379338623045Q47.57376103515625,37.143080338623044,47.53306103515625,37.18900533862305Q47.49226103515625,37.23493133862305,47.44716103515625,37.27664033862305Q47.402161035156254,37.318349338623044,47.35316103515625,37.35543933862305Q47.30426103515625,37.392533338623046,47.25186103515625,37.42464333862305Q47.19956103515625,37.45676333862305,47.14426103515625,37.483593338623045ZM47.84816103515625,36.35920333862305Q47.84816103515625,36.42061193862305,47.84216103515625,36.481724338623046Q47.83616103515625,36.542837338623045,47.82416103515625,36.603066338623044Q47.81216103515625,36.66329433862305,47.79436103515625,36.72205933862305Q47.77656103515625,36.780823338623044,47.75306103515625,36.83755733862305Q47.72956103515625,36.89429133862305,47.700561035156255,36.94844933862305Q47.67166103515625,37.002606338623046,47.63756103515625,37.053666338623046Q47.603361035156254,37.10472533862305,47.56446103515625,37.152195338623045Q47.525461035156255,37.199664338623045,47.48206103515625,37.243086338623044Q47.43866103515625,37.28650933862305,47.39116103515625,37.325466338623045Q47.343661035156245,37.36442333862305,47.29266103515625,37.39854333862305Q47.24156103515625,37.43265333862305,47.18746103515625,37.46160333862305Q47.13326103515625,37.490553338623045,47.076561035156246,37.51405333862305Q47.01976103515625,37.53755333862305,46.96106103515625,37.555383338623045Q46.90226103515625,37.573203338623046,46.84206103515625,37.58518333862305Q46.781861035156254,37.59716333862305,46.720661035156255,37.60318333862305Q46.65956103515625,37.60920333862305,46.59816103515625,37.60920333862305Q46.536761035156246,37.60920333862305,46.47566103515625,37.60318333862305Q46.414561035156254,37.59716333862305,46.354361035156245,37.58518333862305Q46.29406103515625,37.573203338623046,46.235361035156245,37.555383338623045Q46.176561035156254,37.53755333862305,46.11986103515625,37.51405333862305Q46.06306103515625,37.490553338623045,46.00896103515625,37.46160333862305Q45.95476103515625,37.43265333862305,45.90376103515625,37.39854333862305Q45.852661035156245,37.36442333862305,45.805161035156246,37.325466338623045Q45.75776103515625,37.28650933862305,45.714261035156255,37.243086338623044Q45.67086103515625,37.199664338623045,45.63196103515625,37.152195338623045Q45.59296103515625,37.10472533862305,45.558861035156255,37.053666338623046Q45.524761035156246,37.002606338623046,45.49576103515625,36.94844933862305Q45.46686103515625,36.89429133862305,45.44336103515625,36.83755733862305Q45.419861035156245,36.780823338623044,45.40196103515625,36.72205933862305Q45.384161035156254,36.66329433862305,45.37216103515625,36.603066338623044Q45.36026103515625,36.542837338623045,45.35416103515625,36.481724338623046Q45.34816103515625,36.42061193862305,45.34816103515625,36.35920333862305Q45.34816103515625,36.29779473862305,45.35416103515625,36.23668233862305Q45.36026103515625,36.17556933862305,45.37216103515625,36.11534033862305Q45.384161035156254,36.05511233862305,45.40196103515625,35.996347338623046Q45.419861035156245,35.93758333862305,45.44336103515625,35.880849338623044Q45.46686103515625,35.824115338623045,45.49576103515625,35.769957338623044Q45.524761035156246,35.71580033862305,45.558861035156255,35.66474033862305Q45.59296103515625,35.613681338623046,45.63196103515625,35.56621133862305Q45.67086103515625,35.51874233862305,45.714261035156255,35.47532033862305Q45.75776103515625,35.431897338623045,45.805161035156246,35.39294033862305Q45.852661035156245,35.353983338623046,45.90376103515625,35.319863338623044Q45.95476103515625,35.285753338623046,46.00896103515625,35.256803338623044Q46.06306103515625,35.22785333862305,46.11986103515625,35.204353338623044Q46.176561035156254,35.180853338623045,46.235361035156245,35.16302333862305Q46.29406103515625,35.14520333862305,46.354361035156245,35.13322333862305Q46.414561035156254,35.121243338623046,46.47566103515625,35.115223338623046Q46.536761035156246,35.10920333862305,46.59816103515625,35.10920333862305Q46.65956103515625,35.10920333862305,46.720661035156255,35.115223338623046Q46.781861035156254,35.121243338623046,46.84206103515625,35.13322333862305Q46.90226103515625,35.14520333862305,46.96106103515625,35.16302333862305Q47.01976103515625,35.180853338623045,47.076561035156246,35.204353338623044Q47.13326103515625,35.22785333862305,47.18746103515625,35.256803338623044Q47.24156103515625,35.285753338623046,47.29266103515625,35.319863338623044Q47.343661035156245,35.353983338623046,47.39116103515625,35.39294033862305Q47.43866103515625,35.431897338623045,47.48206103515625,35.47532033862305Q47.525461035156255,35.51874233862305,47.56446103515625,35.56621133862305Q47.603361035156254,35.613681338623046,47.63756103515625,35.66474033862305Q47.67166103515625,35.71580033862305,47.700561035156255,35.769957338623044Q47.72956103515625,35.824115338623045,47.75306103515625,35.880849338623044Q47.77656103515625,35.93758333862305,47.79436103515625,35.996347338623046Q47.81216103515625,36.05511233862305,47.82416103515625,36.11534033862305Q47.83616103515625,36.17556933862305,47.84216103515625,36.23668233862305Q47.84816103515625,36.29779473862305,47.84816103515625,36.35920333862305ZM30.25006103515625,44.90684333862305Q30.25006103515625,44.96825333862304,30.24404103515625,45.02936333862304Q30.23802103515625,45.09047333862305,30.22604103515625,45.150703338623046Q30.21406103515625,45.21093333862305,30.19624103515625,45.269703338623046Q30.178411035156252,45.328463338623045,30.15491103515625,45.38519333862305Q30.13141103515625,45.441933338623045,30.10246103515625,45.496083338623045Q30.07351103515625,45.55024333862305,30.03940103515625,45.60130333862305Q30.00528103515625,45.65236333862305,29.96632403515625,45.69983333862305Q29.92736703515625,45.74730333862305,29.88394403515625,45.790723338623046Q29.84052203515625,45.83415333862305,29.79305303515625,45.87310333862305Q29.74558303515625,45.91206333862305,29.69452403515625,45.946183338623044Q29.64346403515625,45.98029333862305,29.58930703515625,46.00924333862305Q29.535149035156252,46.038193338623046,29.47841503515625,46.061693338623044Q29.42168103515625,46.08519333862304,29.36291703515625,46.10301333862304Q29.30415203515625,46.12084333862305,29.24392403515625,46.13282333862305Q29.18369503515625,46.14480333862305,29.12258203515625,46.15082333862305Q29.06146963515625,46.15684333862305,29.00006103515625,46.15684333862305Q28.93865243515625,46.15684333862305,28.87754003515625,46.15082333862305Q28.81642703515625,46.14480333862305,28.75619803515625,46.13282333862305Q28.69597003515625,46.12084333862305,28.63720503515625,46.10301333862304Q28.57844103515625,46.08519333862304,28.52170703515625,46.061693338623044Q28.464973035156248,46.038193338623046,28.41081503515625,46.00924333862305Q28.35665803515625,45.98029333862305,28.30559803515625,45.946183338623044Q28.25453903515625,45.91206333862305,28.20706903515625,45.87310333862305Q28.15960003515625,45.83415333862305,28.11617803515625,45.790723338623046Q28.07275503515625,45.74730333862305,28.03379803515625,45.69983333862305Q27.99484103515625,45.65236333862305,27.96072103515625,45.60130333862305Q27.92661103515625,45.55024333862305,27.89766103515625,45.496083338623045Q27.86871103515625,45.441933338623045,27.84521103515625,45.38519333862305Q27.821711035156248,45.328463338623045,27.80388103515625,45.269703338623046Q27.78606103515625,45.21093333862305,27.77408103515625,45.150703338623046Q27.76210103515625,45.09047333862305,27.75608103515625,45.02936333862304Q27.75006103515625,44.96825333862304,27.75006103515625,44.90684333862305Q27.75006103515625,44.845433338623046,27.75608103515625,44.78432333862305Q27.76210103515625,44.72321333862305,27.77408103515625,44.66298333862305Q27.78606103515625,44.602753338623046,27.80388103515625,44.54398333862305Q27.821711035156248,44.485223338623044,27.84521103515625,44.428483338623046Q27.86871103515625,44.371753338623044,27.89766103515625,44.31759333862305Q27.92661103515625,44.26344333862305,27.96072103515625,44.21238333862305Q27.99484103515625,44.16132333862305,28.03379803515625,44.113853338623045Q28.07275503515625,44.06638333862305,28.11617803515625,44.02296333862304Q28.15960003515625,43.97953333862305,28.20706903515625,43.94058333862305Q28.25453903515625,43.90162333862305,28.30559803515625,43.867503338623045Q28.35665803515625,43.83339333862305,28.41081503515625,43.804443338623045Q28.464973035156248,43.77549333862305,28.52170703515625,43.751993338623045Q28.57844103515625,43.728493338623046,28.63720503515625,43.71066333862305Q28.69597003515625,43.69284333862305,28.75619803515625,43.68086333862305Q28.81642703515625,43.66888333862305,28.87754003515625,43.66286333862305Q28.93865243515625,43.65684333862305,29.00006103515625,43.65684333862305Q29.06146963515625,43.65684333862305,29.12258203515625,43.66286333862305Q29.18369503515625,43.66888333862305,29.24392403515625,43.68086333862305Q29.30415203515625,43.69284333862305,29.36291703515625,43.71066333862305Q29.42168103515625,43.728493338623046,29.47841503515625,43.751993338623045Q29.535149035156252,43.77549333862305,29.58930703515625,43.804443338623045Q29.64346403515625,43.83339333862305,29.69452403515625,43.867503338623045Q29.74558303515625,43.90162333862305,29.79305303515625,43.94058333862305Q29.84052203515625,43.97953333862305,29.88394403515625,44.02296333862304Q29.92736703515625,44.06638333862305,29.96632403515625,44.113853338623045Q30.00528103515625,44.16132333862305,30.03940103515625,44.21238333862305Q30.07351103515625,44.26344333862305,30.10246103515625,44.31759333862305Q30.13141103515625,44.371753338623044,30.15491103515625,44.428483338623046Q30.178411035156252,44.485223338623044,30.19624103515625,44.54398333862305Q30.21406103515625,44.602753338623046,30.22604103515625,44.66298333862305Q30.23802103515625,44.72321333862305,30.24404103515625,44.78432333862305Q30.25006103515625,44.845433338623046,30.25006103515625,44.90684333862305Z" fill="#FFFFFF" fill-opacity="1"/></g><g style="mix-blend-mode:passthrough"><path d="M46.39006103515625,26.421906849975585L29.54622703515625,34.603876849975585Q29.49099003515625,34.63070684997559,29.43339003515625,34.65199684997559Q29.37578903515625,34.67328684997558,29.31637903515625,34.688826849975584Q29.25696903515625,34.704366849975585,29.19632203515625,34.71400684997559Q29.13567503515625,34.72364684997559,29.07437553515625,34.72729684997559Q29.01307563515625,34.73094684997559,28.95171293515625,34.72857684997558Q28.89035003515625,34.72619684997559,28.82951603515625,34.717816849975584Q28.76868203515625,34.709446849975585,28.70896203515625,34.695146849975586Q28.64924103515625,34.68084684997559,28.59121003515625,34.660756849975584Q28.53318003515625,34.64066684997559,28.47739703515625,34.61499684997558Q28.42161403515625,34.58931684997559,28.36861703515625,34.558296849975584Q28.31561903515625,34.527276849975586,28.26591803515625,34.49120684997558Q28.21621603515625,34.455146849975584,28.17028903515625,34.41437684997558Q28.12436203515625,34.37361684997558,28.08265203515625,34.32854684997559Q28.04094103515625,34.283476849975585,28.00384903515625,34.23453684997558Q27.96676103515625,34.18559684997558,27.93464103515625,34.13325684997559Q27.90252103515625,34.08091684997559,27.87569103515625,34.02567684997558Q27.84886103515625,33.970436849975584,27.82757103515625,33.912836849975584Q27.80628103515625,33.85523684997558,27.79075103515625,33.79582684997558Q27.77521103515625,33.73641684997558,27.76556103515625,33.67576684997559Q27.75592103515625,33.61512684997558,27.75227103515625,33.553826849975586Q27.74862103515625,33.49252684997559,27.75100103515625,33.43116684997558Q27.75337103515625,33.369796849975586,27.76175103515625,33.30896684997559Q27.77013103515625,33.248126849975584,27.78443103515625,33.188406849975586Q27.79873103515625,33.12868684997559,27.81881103515625,33.070656849975585Q27.83890103515625,33.01262684997559,27.86458103515625,32.956846849975584Q27.89025103515625,32.901066849975585,27.92127103515625,32.84806684997559Q27.95230103515625,32.79506684997558,27.98836103515625,32.74536684997558Q28.02442903515625,32.69566684997559,28.06519303515625,32.64973684997558Q28.10595703515625,32.60381684997559,28.15102603515625,32.56209684997559Q28.19609603515625,32.52038684997559,28.24503603515625,32.48329684997559Q28.29397703515625,32.44620684997559,28.34631803515625,32.41408684997559Q28.39865903515625,32.38197684997559,28.45389503515625,32.35514684997558L45.29776103515625,24.173166849975587Q45.352961035156255,24.146336849975587,45.41056103515625,24.125046849975586Q45.46816103515625,24.103756849975586,45.52766103515625,24.088226849975587Q45.58706103515625,24.072686849975586,45.64766103515625,24.063036849975585Q45.70836103515625,24.053396849975584,45.76966103515625,24.049746849975588Q45.83096103515625,24.046096849975587,45.89226103515625,24.048476849975586Q45.95366103515625,24.050846849975585,46.014461035156245,24.059226849975587Q46.07536103515625,24.067606849975586,46.135061035156255,24.081906849975585Q46.19476103515625,24.096206849975587,46.252761035156254,24.116286849975587Q46.31086103515625,24.136376849975587,46.36656103515625,24.162056849975585Q46.42236103515625,24.187726849975586,46.475361035156254,24.218746849975584Q46.52836103515625,24.249776849975586,46.57806103515625,24.285836849975585Q46.627761035156254,24.321904849975585,46.67366103515625,24.362668849975584Q46.71966103515625,24.403432849975587,46.76136103515625,24.448501849975585Q46.80306103515625,24.493571849975584,46.84016103515625,24.542511849975586Q46.87726103515625,24.591452849975585,46.90936103515625,24.643793849975587Q46.94146103515625,24.696134849975586,46.968261035156246,24.751370849975586Q46.99516103515625,24.806607849975585,47.016461035156254,24.864207849975585Q47.03776103515625,24.921808849975587,47.053261035156254,24.981218849975587Q47.06876103515625,25.040628849975587,47.07846103515625,25.101275849975586Q47.08806103515625,25.161922849975586,47.09176103515625,25.223222349975586Q47.09536103515625,25.284522249975584,47.09296103515625,25.345884949975584Q47.090661035156245,25.407247849975587,47.08226103515625,25.468081849975587Q47.07386103515625,25.528915849975586,47.05956103515625,25.588635849975585Q47.04526103515625,25.648356849975585,47.025161035156245,25.706387849975584Q47.005061035156245,25.764417849975587,46.97946103515625,25.820200849975585Q46.95376103515625,25.875983849975587,46.92276103515625,25.928980849975584Q46.89166103515625,25.981978849975587,46.855661035156245,26.031679849975585Q46.819561035156255,26.081381849975585,46.77876103515625,26.127308849975584Q46.73806103515625,26.173235849975587,46.69296103515625,26.214945849975585Q46.647861035156254,26.256656849975585,46.59896103515625,26.293748849975586Q46.55006103515625,26.330836849975586,46.49766103515625,26.362956849975586Q46.44536103515625,26.395076849975585,46.39006103515625,26.421906849975585ZM47.093961035156255,25.297536849975586Q47.093961035156255,25.358945449975586,47.087961035156255,25.420057849975585Q47.08186103515625,25.481170849975587,47.069961035156254,25.541399849975587Q47.057961035156254,25.601627849975586,47.04006103515625,25.660392849975587Q47.02226103515625,25.719156849975587,46.99876103515625,25.775890849975585Q46.97526103515625,25.832624849975588,46.94636103515625,25.886782849975585Q46.91736103515625,25.940939849975585,46.88326103515625,25.991999849975585Q46.84916103515625,26.043058849975587,46.81016103515625,26.090528849975588Q46.77126103515625,26.137997849975587,46.72786103515625,26.181419849975587Q46.68436103515625,26.224842849975587,46.63696103515625,26.263799849975587Q46.58946103515625,26.302756849975587,46.53836103515625,26.336876849975585Q46.487361035156255,26.370986849975587,46.433161035156246,26.399936849975585Q46.379061035156255,26.428886849975587,46.322261035156245,26.452386849975586Q46.26556103515625,26.475886849975588,46.20676103515625,26.493716849975584Q46.148061035156246,26.511536849975585,46.08776103515625,26.523516849975586Q46.02756103515625,26.535496849975587,45.96646103515625,26.541516849975586Q45.90536103515625,26.547536849975586,45.843961035156255,26.547536849975586Q45.78256103515625,26.547536849975586,45.72146103515625,26.541516849975586Q45.66026103515625,26.535496849975587,45.60006103515625,26.523516849975586Q45.53986103515625,26.511536849975585,45.48106103515625,26.493716849975584Q45.42236103515625,26.475886849975588,45.36556103515625,26.452386849975586Q45.308861035156255,26.428886849975587,45.254661035156246,26.399936849975585Q45.200561035156255,26.370986849975587,45.14946103515625,26.336876849975585Q45.09846103515625,26.302756849975587,45.05096103515625,26.263799849975587Q45.00346103515625,26.224842849975587,44.96006103515625,26.181419849975587Q44.91666103515625,26.137997849975587,44.87766103515625,26.090528849975588Q44.83876103515625,26.043058849975587,44.804561035156254,25.991999849975585Q44.77046103515625,25.940939849975585,44.74156103515625,25.886782849975585Q44.71256103515625,25.832624849975588,44.68906103515625,25.775890849975585Q44.66556103515625,25.719156849975587,44.64776103515625,25.660392849975587Q44.62996103515625,25.601627849975586,44.61796103515625,25.541399849975587Q44.60596103515625,25.481170849975587,44.59996103515625,25.420057849975585Q44.59396103515625,25.358945449975586,44.59396103515625,25.297536849975586Q44.59396103515625,25.236128249975586,44.59996103515625,25.175015849975587Q44.60596103515625,25.113902849975585,44.61796103515625,25.053673849975585Q44.62996103515625,24.993445849975586,44.64776103515625,24.934680849975585Q44.66556103515625,24.875916849975585,44.68906103515625,24.819182849975586Q44.71256103515625,24.762448849975584,44.74156103515625,24.708290849975587Q44.77046103515625,24.654133849975587,44.804561035156254,24.603073849975587Q44.83876103515625,24.552014849975585,44.87766103515625,24.504544849975584Q44.91666103515625,24.457075849975585,44.96006103515625,24.413653849975585Q45.00346103515625,24.370230849975584,45.05096103515625,24.331273849975585Q45.09846103515625,24.292316849975585,45.14946103515625,24.258196849975587Q45.200561035156255,24.224086849975585,45.254661035156246,24.195136849975587Q45.308861035156255,24.166186849975585,45.36556103515625,24.142686849975586Q45.42236103515625,24.119186849975584,45.48106103515625,24.101356849975588Q45.53986103515625,24.083536849975587,45.60006103515625,24.071556849975586Q45.66026103515625,24.059576849975585,45.72146103515625,24.053556849975585Q45.78256103515625,24.047536849975586,45.843961035156255,24.047536849975586Q45.90536103515625,24.047536849975586,45.96646103515625,24.053556849975585Q46.02756103515625,24.059576849975585,46.08776103515625,24.071556849975586Q46.148061035156246,24.083536849975587,46.20676103515625,24.101356849975588Q46.26556103515625,24.119186849975584,46.322261035156245,24.142686849975586Q46.379061035156255,24.166186849975585,46.433161035156246,24.195136849975587Q46.487361035156255,24.224086849975585,46.53836103515625,24.258196849975587Q46.58946103515625,24.292316849975585,46.63696103515625,24.331273849975585Q46.68436103515625,24.370230849975584,46.72786103515625,24.413653849975585Q46.77126103515625,24.457075849975585,46.81016103515625,24.504544849975584Q46.84916103515625,24.552014849975585,46.88326103515625,24.603073849975587Q46.91736103515625,24.654133849975587,46.94636103515625,24.708290849975587Q46.97526103515625,24.762448849975584,46.99876103515625,24.819182849975586Q47.02226103515625,24.875916849975585,47.040161035156245,24.934680849975585Q47.057961035156254,24.993445849975586,47.069961035156254,25.053673849975585Q47.08186103515625,25.113902849975585,47.087961035156255,25.175015849975587Q47.093961035156255,25.236128249975586,47.093961035156255,25.297536849975586ZM30.25006103515625,33.479506849975586Q30.25006103515625,33.54091684997559,30.24404103515625,33.60203684997559Q30.23802103515625,33.66314684997559,30.22604103515625,33.72337684997559Q30.21406103515625,33.78359684997559,30.19624103515625,33.84236684997558Q30.178411035156252,33.90112684997558,30.15491103515625,33.95786684997559Q30.13141103515625,34.01459684997559,30.10246103515625,34.068756849975586Q30.07351103515625,34.12291684997558,30.03940103515625,34.17397684997559Q30.00528103515625,34.22503684997559,29.96632403515625,34.272506849975585Q29.92736703515625,34.31997684997559,29.88394403515625,34.36339684997559Q29.84052203515625,34.406816849975584,29.79305303515625,34.44577684997559Q29.74558303515625,34.48473684997559,29.69452403515625,34.51884684997559Q29.64346403515625,34.55296684997559,29.58930703515625,34.581916849975585Q29.535149035156252,34.61085684997558,29.47841503515625,34.63435684997559Q29.42168103515625,34.65785684997559,29.36291703515625,34.675686849975584Q29.30415203515625,34.69351684997559,29.24392403515625,34.70549684997559Q29.18369503515625,34.71747684997558,29.12258203515625,34.723486849975586Q29.06146963515625,34.729506849975586,29.00006103515625,34.729506849975586Q28.93865243515625,34.729506849975586,28.87754003515625,34.723486849975586Q28.81642703515625,34.71747684997558,28.75619803515625,34.70549684997559Q28.69597003515625,34.69351684997559,28.63720503515625,34.675686849975584Q28.57844103515625,34.65785684997559,28.52170703515625,34.63435684997559Q28.464973035156248,34.61085684997558,28.41081503515625,34.581916849975585Q28.35665803515625,34.55296684997559,28.30559803515625,34.51884684997559Q28.25453903515625,34.48473684997559,28.20706903515625,34.44577684997559Q28.15960003515625,34.406816849975584,28.11617803515625,34.36339684997559Q28.07275503515625,34.31997684997559,28.03379803515625,34.272506849975585Q27.99484103515625,34.22503684997559,27.96072103515625,34.17397684997559Q27.92661103515625,34.12291684997558,27.89766103515625,34.068756849975586Q27.86871103515625,34.01459684997559,27.84521103515625,33.95786684997559Q27.821711035156248,33.90112684997558,27.80388103515625,33.84236684997558Q27.78606103515625,33.783606849975584,27.77408103515625,33.72337684997559Q27.76210103515625,33.66314684997559,27.75608103515625,33.60203684997559Q27.75006103515625,33.54091684997559,27.75006103515625,33.479506849975586Q27.75006103515625,33.41810684997559,27.75608103515625,33.356986849975584Q27.76210103515625,33.295876849975585,27.77408103515625,33.23564684997559Q27.78606103515625,33.17541684997558,27.80388103515625,33.116656849975584Q27.821711035156248,33.05788684997559,27.84521103515625,33.00115684997559Q27.86871103515625,32.944426849975585,27.89766103515625,32.89026684997559Q27.92661103515625,32.836106849975586,27.96072103515625,32.785046849975586Q27.99484103515625,32.73398684997559,28.03379803515625,32.68651684997559Q28.07275503515625,32.639046849975585,28.11617803515625,32.59562684997559Q28.15960003515625,32.55220684997558,28.20706903515625,32.51324684997559Q28.25453903515625,32.474286849975584,28.30559803515625,32.440176849975586Q28.35665803515625,32.406056849975585,28.41081503515625,32.37710684997559Q28.464973035156248,32.34815684997559,28.52170703515625,32.32465684997558Q28.57844103515625,32.301156849975584,28.63720503515625,32.28333684997558Q28.69597003515625,32.26550684997559,28.75619803515625,32.253526849975586Q28.81642703515625,32.241546849975585,28.87754003515625,32.235526849975585Q28.93865243515625,32.229506849975586,29.00006103515625,32.229506849975586Q29.06146963515625,32.229506849975586,29.12258203515625,32.235526849975585Q29.18369503515625,32.241546849975585,29.24392403515625,32.253526849975586Q29.30415203515625,32.26550684997559,29.36291703515625,32.28333684997558Q29.42168103515625,32.301156849975584,29.47841503515625,32.32465684997558Q29.535149035156252,32.34815684997559,29.58930703515625,32.37710684997559Q29.64346403515625,32.406056849975585,29.69452403515625,32.440176849975586Q29.74558303515625,32.474286849975584,29.79305303515625,32.51324684997559Q29.84052203515625,32.55220684997558,29.88394403515625,32.59562684997559Q29.92736703515625,32.639046849975585,29.96632403515625,32.68651684997559Q30.00528103515625,32.73398684997559,30.03940103515625,32.785046849975586Q30.07351103515625,32.836106849975586,30.10246103515625,32.89026684997559Q30.13141103515625,32.944426849975585,30.15491103515625,33.00115684997559Q30.178411035156252,33.05788684997559,30.19624103515625,33.116656849975584Q30.21406103515625,33.17541684997558,30.22604103515625,33.23564684997559Q30.23802103515625,33.295876849975585,30.24404103515625,33.356986849975584Q30.25006103515625,33.41810684997559,30.25006103515625,33.479506849975586Z" fill="#FFFFFF" fill-opacity="1"/></g><g style="mix-blend-mode:passthrough"><path d="M41.04336103515625,17.57657312133789L29.54742703515625,23.17596312133789Q29.49221903515625,23.202853121337892,29.43464103515625,23.22420312133789Q29.37706303515625,23.245553121337892,29.31767003515625,23.26115312133789Q29.25827703515625,23.27676312133789,29.19764003515625,23.28646312133789Q29.13700403515625,23.29617312133789,29.07570783515625,23.299883121337892Q29.01441183515625,23.30360312133789,28.95304673515625,23.301293121337892Q28.89168203515625,23.29898312133789,28.83083803515625,23.29067312133789Q28.76999503515625,23.28236312133789,28.71026003515625,23.26812312133789Q28.65052403515625,23.253883121337893,28.59247203515625,23.23386312133789Q28.53442003515625,23.213833121337892,28.47861003515625,23.18822312133789Q28.42280003515625,23.16260312133789,28.36976903515625,23.13163312133789Q28.31673903515625,23.10067312133789,28.26699903515625,23.06466312133789Q28.21725903515625,23.02864312133789,28.171288035156252,22.98793312133789Q28.12531703515625,22.94721312133789,28.08355903515625,22.90219312133789Q28.04180003515625,22.85716312133789,28.00465603515625,22.80826312133789Q27.96751103515625,22.75936312133789,27.93534103515625,22.70706312133789Q27.90317103515625,22.65475312133789,27.87628103515625,22.59954312133789Q27.84939103515625,22.544333121337893,27.82804103515625,22.48676312133789Q27.80669103515625,22.429183121337893,27.79108103515625,22.36978312133789Q27.77548103515625,22.31039312133789,27.76577103515625,22.249763121337892Q27.75607103515625,22.18912312133789,27.75235103515625,22.12782312133789Q27.74863103515625,22.06653312133789,27.75094103515625,22.00516312133789Q27.75325103515625,21.94380312133789,27.76157103515625,21.88295312133789Q27.76988103515625,21.822113121337892,27.78412103515625,21.76237312133789Q27.79836103515625,21.702643121337893,27.81838103515625,21.64459312133789Q27.83840103515625,21.58653312133789,27.86402103515625,21.530723121337893Q27.88964103515625,21.47491312133789,27.92060103515625,21.421883121337892Q27.95157103515625,21.368853121337892,27.98758103515625,21.319113121337892Q28.02359203515625,21.269373121337892,28.06430703515625,21.22340312133789Q28.10502203515625,21.17743312133789,28.15004703515625,21.13567312133789Q28.19507203515625,21.09391312133789,28.24397303515625,21.05677312133789Q28.29287403515625,21.01963312133789,28.34518103515625,20.98745312133789Q28.39748703515625,20.955283121337892,28.45269503515625,20.92839312133789L39.94866103515625,15.32901312133789Q40.00386103515625,15.30212312133789,40.06146103515625,15.28077312133789Q40.11906103515625,15.25942312133789,40.178461035156246,15.24381312133789Q40.237761035156254,15.228213121337891,40.29846103515625,15.218503121337891Q40.35906103515625,15.20880312133789,40.42036103515625,15.205083121337891Q40.48166103515625,15.201363121337891,40.54306103515625,15.203673121337891Q40.60436103515625,15.20598312133789,40.66526103515625,15.21430312133789Q40.72606103515625,15.22261312133789,40.78586103515625,15.23685312133789Q40.84556103515625,15.25109312133789,40.90366103515625,15.27111312133789Q40.961661035156254,15.291133121337891,41.01746103515625,15.316753121337891Q41.07326103515625,15.342373121337891,41.12636103515625,15.37333312133789Q41.17936103515625,15.404303121337891,41.22906103515625,15.44031312133789Q41.278861035156254,15.47632412133789,41.32476103515625,15.517039121337891Q41.37076103515625,15.55775412133789,41.41256103515625,15.60277912133789Q41.45426103515625,15.647804121337892,41.49146103515625,15.69670512133789Q41.52856103515625,15.745606121337891,41.56076103515625,15.79791312133789Q41.59296103515625,15.85021912133789,41.61976103515625,15.90542712133789Q41.64666103515625,15.96063512133789,41.66806103515625,16.01821312133789Q41.68936103515625,16.07579112133789,41.70496103515625,16.13518412133789Q41.72056103515625,16.19457712133789,41.730261035156246,16.25521412133789Q41.74006103515625,16.315850121337892,41.743761035156254,16.37714632133789Q41.74746103515625,16.43844232133789,41.74516103515625,16.49980742133789Q41.74286103515625,16.56117212133789,41.73456103515625,16.62201612133789Q41.72616103515625,16.68285912133789,41.71196103515625,16.74259412133789Q41.69776103515625,16.802330121337892,41.67766103515625,16.860382121337892Q41.65766103515625,16.918434121337892,41.63206103515625,16.97424412133789Q41.60646103515625,17.03005412133789,41.57546103515625,17.08308512133789Q41.54456103515625,17.13611512133789,41.50846103515625,17.18585512133789Q41.47246103515625,17.23559512133789,41.43176103515625,17.28156612133789Q41.39106103515625,17.32753712133789,41.346061035156254,17.369295121337892Q41.30106103515625,17.41105412133789,41.25206103515625,17.448198121337892Q41.20316103515625,17.48534312133789,41.150861035156254,17.517513121337892Q41.09856103515625,17.54968312133789,41.04336103515625,17.57657312133789ZM41.74606103515625,16.45279312133789Q41.74606103515625,16.51420172133789,41.73996103515625,16.57531412133789Q41.73396103515625,16.636427121337892,41.72196103515625,16.69665612133789Q41.71006103515625,16.75688412133789,41.692161035156246,16.81564912133789Q41.67436103515625,16.87441312133789,41.650861035156254,16.93114712133789Q41.62736103515625,16.987881121337892,41.59846103515625,17.04203912133789Q41.56946103515625,17.09619612133789,41.53536103515625,17.14725612133789Q41.50126103515625,17.19831512133789,41.462261035156246,17.245785121337892Q41.42336103515625,17.293254121337892,41.37986103515625,17.33667612133789Q41.33646103515625,17.380099121337892,41.28906103515625,17.419056121337892Q41.24156103515625,17.458013121337892,41.19046103515625,17.49213312133789Q41.13946103515625,17.52624312133789,41.08526103515625,17.55519312133789Q41.03106103515625,17.584143121337892,40.97436103515625,17.60764312133789Q40.91766103515625,17.631143121337892,40.85886103515625,17.64897312133789Q40.80016103515625,17.66679312133789,40.73986103515625,17.67877312133789Q40.67966103515625,17.69075312133789,40.61856103515625,17.69677312133789Q40.55746103515625,17.70279312133789,40.49606103515625,17.70279312133789Q40.43466103515625,17.70279312133789,40.373461035156254,17.69677312133789Q40.31236103515625,17.69075312133789,40.25216103515625,17.67877312133789Q40.191961035156254,17.66679312133789,40.13316103515625,17.64897312133789Q40.07436103515625,17.631143121337892,40.01766103515625,17.60764312133789Q39.96096103515625,17.584143121337892,39.90676103515625,17.55519312133789Q39.85266103515625,17.52624312133789,39.801561035156254,17.49213312133789Q39.75046103515625,17.458013121337892,39.70306103515625,17.419056121337892Q39.65556103515625,17.380099121337892,39.61216103515625,17.33667612133789Q39.56876103515625,17.293254121337892,39.52976103515625,17.245785121337892Q39.490761035156254,17.19831512133789,39.45666103515625,17.14725612133789Q39.42256103515625,17.09619612133789,39.39366103515625,17.04203912133789Q39.364661035156246,16.987881121337892,39.34116103515625,16.93114712133789Q39.31766103515625,16.87441312133789,39.29986103515625,16.81564912133789Q39.28206103515625,16.75688412133789,39.270061035156246,16.69665612133789Q39.258061035156246,16.636427121337892,39.25206103515625,16.57531412133789Q39.24606103515625,16.51420172133789,39.24606103515625,16.45279312133789Q39.24606103515625,16.39138452133789,39.25206103515625,16.33027212133789Q39.258061035156246,16.26915912133789,39.270061035156246,16.20893012133789Q39.28206103515625,16.14870212133789,39.29986103515625,16.08993712133789Q39.31766103515625,16.03117312133789,39.34116103515625,15.974439121337891Q39.364661035156246,15.91770512133789,39.39366103515625,15.863547121337891Q39.42256103515625,15.809390121337891,39.45666103515625,15.75833012133789Q39.490761035156254,15.707271121337891,39.52976103515625,15.65980112133789Q39.56876103515625,15.612332121337891,39.61216103515625,15.56891012133789Q39.65556103515625,15.52548712133789,39.70306103515625,15.486530121337891Q39.75046103515625,15.447573121337891,39.801561035156254,15.413453121337891Q39.85266103515625,15.379343121337891,39.90676103515625,15.350393121337891Q39.96096103515625,15.321443121337891,40.01766103515625,15.297943121337891Q40.07436103515625,15.27444312133789,40.13316103515625,15.25661312133789Q40.191961035156254,15.23879312133789,40.25216103515625,15.22681312133789Q40.31236103515625,15.214833121337891,40.373461035156254,15.20881312133789Q40.43466103515625,15.20279312133789,40.49606103515625,15.20279312133789Q40.55746103515625,15.20279312133789,40.61856103515625,15.20881312133789Q40.67966103515625,15.214833121337891,40.73986103515625,15.22681312133789Q40.80016103515625,15.23879312133789,40.85886103515625,15.25661312133789Q40.91766103515625,15.27444312133789,40.97436103515625,15.297943121337891Q41.03106103515625,15.321443121337891,41.08526103515625,15.350393121337891Q41.13946103515625,15.379343121337891,41.19046103515625,15.413453121337891Q41.24156103515625,15.447573121337891,41.28906103515625,15.486530121337891Q41.33646103515625,15.52548712133789,41.37986103515625,15.56891012133789Q41.42336103515625,15.612332121337891,41.462261035156246,15.65980112133789Q41.50126103515625,15.707271121337891,41.53536103515625,15.75833012133789Q41.56946103515625,15.809390121337891,41.59846103515625,15.863547121337891Q41.62736103515625,15.91770512133789,41.650861035156254,15.974439121337891Q41.67436103515625,16.03117312133789,41.692161035156246,16.08993712133789Q41.71006103515625,16.14870212133789,41.72196103515625,16.20893012133789Q41.73396103515625,16.26915912133789,41.73996103515625,16.33027212133789Q41.74606103515625,16.39138452133789,41.74606103515625,16.45279312133789ZM30.25006103515625,22.05218312133789Q30.25006103515625,22.11358312133789,30.24404103515625,22.174703121337892Q30.23802103515625,22.23581312133789,30.22604103515625,22.296043121337892Q30.21406103515625,22.356273121337892,30.19624103515625,22.415033121337892Q30.178411035156252,22.47380312133789,30.15491103515625,22.53053312133789Q30.13141103515625,22.58726312133789,30.10246103515625,22.64142312133789Q30.07351103515625,22.69558312133789,30.03940103515625,22.74664312133789Q30.00528103515625,22.79770312133789,29.96632403515625,22.84517312133789Q29.92736703515625,22.89264312133789,29.88394403515625,22.93606312133789Q29.84052203515625,22.979483121337893,29.79305303515625,23.01844312133789Q29.74558303515625,23.05740312133789,29.69452403515625,23.09151312133789Q29.64346403515625,23.12563312133789,29.58930703515625,23.15458312133789Q29.535149035156252,23.183523121337892,29.47841503515625,23.20702312133789Q29.42168103515625,23.23052312133789,29.36291703515625,23.248353121337892Q29.30415203515625,23.26618312133789,29.24392403515625,23.27816312133789Q29.18369503515625,23.29014312133789,29.12258203515625,23.29616312133789Q29.06146963515625,23.30218312133789,29.00006103515625,23.30218312133789Q28.93865243515625,23.30218312133789,28.87754003515625,23.29616312133789Q28.81642703515625,23.29014312133789,28.75619803515625,23.27816312133789Q28.69597003515625,23.26618312133789,28.63720503515625,23.248353121337892Q28.57844103515625,23.23052312133789,28.52170703515625,23.20702312133789Q28.464973035156248,23.183523121337892,28.41081503515625,23.15458312133789Q28.35665803515625,23.12563312133789,28.30559803515625,23.09151312133789Q28.25453903515625,23.05740312133789,28.20706903515625,23.01844312133789Q28.15960003515625,22.979483121337893,28.11617803515625,22.93606312133789Q28.07275503515625,22.89264312133789,28.03379803515625,22.84517312133789Q27.99484103515625,22.79770312133789,27.96072103515625,22.74664312133789Q27.92661103515625,22.69558312133789,27.89766103515625,22.64142312133789Q27.86871103515625,22.58726312133789,27.84521103515625,22.53053312133789Q27.821711035156248,22.47380312133789,27.80388103515625,22.415033121337892Q27.78606103515625,22.356273121337892,27.77408103515625,22.296043121337892Q27.76210103515625,22.23581312133789,27.75608103515625,22.174703121337892Q27.75006103515625,22.11358312133789,27.75006103515625,22.05218312133789Q27.75006103515625,21.99077312133789,27.75608103515625,21.929653121337893Q27.76210103515625,21.86854312133789,27.77408103515625,21.80831312133789Q27.78606103515625,21.748083121337892,27.80388103515625,21.689323121337893Q27.821711035156248,21.63056312133789,27.84521103515625,21.57382312133789Q27.86871103515625,21.51709312133789,27.89766103515625,21.46293312133789Q27.92661103515625,21.40877312133789,27.96072103515625,21.35771312133789Q27.99484103515625,21.30665312133789,28.03379803515625,21.25918312133789Q28.07275503515625,21.21171312133789,28.11617803515625,21.16829312133789Q28.15960003515625,21.12487312133789,28.20706903515625,21.08591312133789Q28.25453903515625,21.04695312133789,28.30559803515625,21.01284312133789Q28.35665803515625,20.97872312133789,28.41081503515625,20.94977312133789Q28.464973035156248,20.920833121337893,28.52170703515625,20.89733312133789Q28.57844103515625,20.87383312133789,28.63720503515625,20.856003121337892Q28.69597003515625,20.83818312133789,28.75619803515625,20.82619312133789Q28.81642703515625,20.81421312133789,28.87754003515625,20.80820312133789Q28.93865243515625,20.80218312133789,29.00006103515625,20.80218312133789Q29.06146963515625,20.80218312133789,29.12258203515625,20.80820312133789Q29.18369503515625,20.81421312133789,29.24392403515625,20.82619312133789Q29.30415203515625,20.83818312133789,29.36291703515625,20.856003121337892Q29.42168103515625,20.87383312133789,29.47841503515625,20.89733312133789Q29.535149035156252,20.920833121337893,29.58930703515625,20.94977312133789Q29.64346403515625,20.97872312133789,29.69452403515625,21.01284312133789Q29.74558303515625,21.04695312133789,29.79305303515625,21.08591312133789Q29.84052203515625,21.12487312133789,29.88394403515625,21.16829312133789Q29.92736703515625,21.21171312133789,29.96632403515625,21.25918312133789Q30.00528103515625,21.30665312133789,30.03940103515625,21.35771312133789Q30.07351103515625,21.40877312133789,30.10246103515625,21.46293312133789Q30.13141103515625,21.51709312133789,30.15491103515625,21.57382312133789Q30.178411035156252,21.63056312133789,30.19624103515625,21.689323121337893Q30.21406103515625,21.748083121337892,30.22604103515625,21.80831312133789Q30.23802103515625,21.86854312133789,30.24404103515625,21.929653121337893Q30.25006103515625,21.99077312133789,30.25006103515625,22.05218312133789Z" fill="#FFFFFF" fill-opacity="1"/></g><g style="opacity:0;mix-blend-mode:passthrough"></g></g></g><g style="mix-blend-mode:passthrough"><rect x="0" y="0" width="58" height="58" rx="0" fill="#D8D8D8" fill-opacity="0"/></g></g></svg>