<svg xmlns="http://www.w3.org/2000/svg" xmlns:xlink="http://www.w3.org/1999/xlink" fill="none" version="1.1" width="60.2978515625" height="60.29791259765625" viewBox="0 0 60.2978515625 60.29791259765625"><g style="mix-blend-mode:passthrough"><g style="mix-blend-mode:passthrough"><g style="mix-blend-mode:passthrough"><g style="mix-blend-mode:passthrough"><path d="M35.80829303436279,4.816493034362793Q40.32249303436279,4.816493034362793,43.493793034362795,5.762329034362793Q46.85329303436279,6.764276034362793,48.989293034362795,8.900373034362794Q51.125393034362794,11.036483034362792,52.12739303436279,14.395903034362792Q53.073193034362795,17.567193034362795,53.073193034362795,22.081393034362794L53.073193034362795,35.80829303436279L53.073193034362795,35.83319303436279Q53.07269303436279,36.57289303436279,52.626493034362795,37.15249303436279Q52.24179303436279,37.65209303436279,51.62719303436279,37.89299303436279Q50.374093034362794,38.38429303436279,49.27689303436279,37.64029303436279Q47.175693034362794,36.215493034362794,44.59839303436279,36.215493034362794Q41.12449303436279,36.215493034362794,38.66999303436279,38.66999303436279Q36.215493034362794,41.12449303436279,36.215493034362794,44.59839303436279Q36.215493034362794,46.93439303436279,37.42089303436279,48.894693034362795Q37.43279303436279,48.91409303436279,37.44469303436279,48.93419303436279Q37.546893034362796,49.107393034362794,37.65969303436279,49.27639303436279Q38.39649303436279,50.37979303436279,37.89869303436279,51.63149303436279Q37.65469303436279,52.24499303436279,37.15359303436279,52.62849303436279Q36.57309303436279,53.072793034362796,35.834293034362794,53.073193034362795L35.8084930343628,53.073193034362795L22.081293034362794,53.073193034362795Q17.567193034362795,53.073193034362795,14.395853034362792,52.12729303436279Q11.036443034362794,51.125393034362794,8.900343034362793,48.989293034362795Q6.764257034362793,46.853193034362796,5.7623200343627925,43.493793034362795Q4.816493034362793,40.32249303436279,4.816493034362793,35.80829303436279L4.816493034362793,22.081393034362794Q4.816493034362793,17.567193034362795,5.762319034362793,14.395903034362792Q6.764254034362793,11.036473034362793,8.900343034362793,8.900373034362794Q11.036423034362793,6.764273034362793,14.395853034362792,5.762329034362793Q17.567193034362795,4.816493034362793,22.081293034362794,4.816493034362793L35.80829303436279,4.816493034362793ZM35.80829303436279,7.316493034362793L22.081293034362794,7.316493034362793Q14.019733034362794,7.316493034362793,10.668113034362793,10.668133034362793Q7.316493034362793,14.019773034362792,7.316493034362793,22.081393034362794L7.316493034362793,35.80829303436279Q7.316493034362793,43.869893034362796,10.668113034362793,47.221493034362794Q14.019743034362794,50.573193034362795,22.081293034362794,50.573193034362795L35.80809303436279,50.573193034362795L35.8328930343628,50.573193034362795Q35.629093034362796,50.57329303436279,35.57569303436279,50.707593034362795Q35.58819303436279,50.67599303436279,35.58059303436279,50.664593034362795Q35.4291930343628,50.43779303436279,35.29159303436279,50.204793034362794Q35.291493034362794,50.20449303436279,35.2913930343628,50.20429303436279Q33.715493034362794,47.64159303436279,33.715493034362794,44.59839303436279Q33.715493034362794,42.384393034362795,34.570793034362794,40.36119303436279Q35.396793034362794,38.407693034362794,36.902193034362796,36.902193034362796Q38.407693034362794,35.396793034362794,40.36119303436279,34.570793034362794Q42.384393034362795,33.715493034362794,44.59839303436279,33.715493034362794Q47.94339303436279,33.715493034362794,50.679993034362795,35.57119303436279Q50.68739303436279,35.57619303436279,50.714693034362796,35.56549303436279Q50.57329303436279,35.6209930343628,50.573193034362795,35.83249303436279L50.573193034362795,35.80829303436279L50.573193034362795,22.081393034362794Q50.573193034362795,14.019773034362792,47.22159303436279,10.668133034362793Q43.86999303436279,7.316493034362793,35.80829303436279,7.316493034362793Z" fill="#FFFFFF" fill-opacity="1"/></g><g style="mix-blend-mode:passthrough"><g style="mix-blend-mode:passthrough"><path d="M17.43342107269287,27.743046760559082Q19.397601072692872,27.743046760559082,20.78647107269287,29.13185576055908Q22.17537107269287,30.520696760559083,22.17537107269287,32.48488676055908Q22.17537107269287,34.449066760559084,20.786491072692872,35.837966760559084Q19.397601072692872,37.22687676055908,17.43342107269287,37.22687676055908Q15.469231072692871,37.22687676055908,14.080340072692872,35.837966760559084Q12.691451072692871,34.449066760559084,12.691451072692871,32.48488676055908Q12.691451072692871,30.520696760559083,14.080366072692872,29.13185276055908Q15.46924107269287,27.743046760559082,17.43342107269287,27.743046760559082ZM17.43342107269287,30.243046760559082Q16.50474107269287,30.243046760559082,15.84809107269287,30.899666760559082Q15.191451072692871,31.556266760559083,15.191451072692871,32.48488676055908Q15.191451072692871,33.41353676055908,15.848111072692872,34.07020676055908Q16.504771072692872,34.72687676055908,17.43342107269287,34.72687676055908Q18.36206107269287,34.72687676055908,19.01871107269287,34.07020676055908Q19.675371072692872,33.41354676055908,19.675371072692872,32.48488676055908Q19.675371072692872,31.556266760559083,19.01874107269287,30.899656760559083Q18.36209107269287,30.243046760559082,17.43342107269287,30.243046760559082Z" fill="#FFFFFF" fill-opacity="1"/></g><g style="mix-blend-mode:passthrough"><path d="M19.675369262695312,32.48479588775635L19.675369262695312,22.49070588775635L19.675369262695312,20.853115887756346L19.675369262695312,18.420765887756346Q19.675369262695312,16.930575887756348,20.54532526269531,15.835205887756349Q21.372091262695314,14.794225887756348,22.72897926269531,14.424097887756348L22.741449262695312,14.420705887756348L22.750639262695312,14.418200887756347L26.21902926269531,13.470121387756347L29.691329262695312,12.520975887756348L29.698739262695312,12.518935887756347L29.704739262695313,12.517285887756348Q31.777769262695312,11.947255887756349,33.17616926269531,12.760017887756348Q34.93906926269531,13.784688887756348,34.93906926269531,16.51830588775635L34.93906926269531,30.148895887756346L32.43906926269531,30.148895887756346L32.43906926269531,16.51830588775635Q32.43906926269531,15.223235887756347,31.919869262695315,14.921445887756347Q31.42876926269531,14.636015887756347,30.367459262695313,14.927855887756348L30.359599262695312,14.930015887756348L30.350519262695315,14.932495887756348L26.87821926269531,15.881645887756347L23.40758926269531,16.83033588775635L23.39751926269531,16.833085887756347L23.386879262695313,16.835975887756348Q22.175369262695312,17.166445887756346,22.175369262695312,18.420765887756346L22.175369262695312,20.853115887756346L22.175369262695312,22.49070588775635L22.175369262695312,32.48479588775635L19.675369262695312,32.48479588775635Z" fill="#FFFFFF" fill-opacity="1"/></g><g style="mix-blend-mode:passthrough"><path d="M30.221201861572265,25.406970977783203Q32.18538186157227,25.406970977783203,33.57428186157227,26.795875977783204Q34.96317186157226,28.184770977783202,34.96317186157226,30.148960977783204Q34.96317186157226,32.1131409777832,33.57428186157227,33.5020409777832Q32.18538186157227,34.8909409777832,30.221201861572265,34.8909409777832Q28.257011861572266,34.8909409777832,26.868128861572266,33.5020409777832Q25.479251861572266,32.1131409777832,25.479251861572266,30.148960977783204Q25.479251861572266,28.184780977783202,26.868128861572266,26.795878977783204Q28.257021861572266,25.406970977783203,30.221201861572265,25.406970977783203L30.221201861572265,25.406970977783203ZM30.221201861572265,27.906970977783203Q29.292561861572267,27.906970977783203,28.635911861572264,28.563630977783202Q27.979251861572266,29.220300977783204,27.979251861572266,30.148960977783204Q27.979251861572266,31.077610977783202,28.635911861572264,31.734280977783204Q29.292561861572267,32.3909409777832,30.221201861572265,32.3909409777832Q31.149851861572266,32.3909409777832,31.806511861572265,31.734280977783204Q32.46317186157226,31.077610977783202,32.46317186157226,30.148960977783204Q32.46317186157226,29.220300977783204,31.806511861572265,28.5636409777832Q31.149841861572266,27.906970977783203,30.221201861572265,27.906970977783203L30.221201861572265,27.906970977783203Z" fill="#FFFFFF" fill-opacity="1"/></g><g style="mix-blend-mode:passthrough"><path d="M34.018969262695315,20.228560540618897L21.25523126269531,23.720550540618895L20.595507262695314,21.309170540618897L33.359269262695314,17.817180540618896L34.018969262695315,20.228560540618897Z" fill="#FFFFFF" fill-opacity="1"/></g></g><g style="mix-blend-mode:passthrough"><g style="mix-blend-mode:passthrough"><path d="M52.708650286865236,37.364160286865236Q55.48145028686523,40.465000286865234,55.48145028686523,44.598440286865234Q55.48145028686523,47.61995028686523,53.92625028686523,50.17045028686523L53.90185028686523,50.210550286865235L53.88085028686524,50.245450286865236Q52.440850286865235,52.639250286865234,50.01605028686524,54.03765028686523Q47.512350286865235,55.48145028686523,44.598440286865234,55.48145028686523Q40.472010286865235,55.48145028686523,37.41630028686524,52.73435028686524L37.359190286865235,52.68325028686523L37.30362028686523,52.63405028686523Q36.11948028686523,51.589150286865234,35.32083628686524,50.25395028686523L35.289404286865235,50.201550286865235L35.26035028686523,50.15355028686523Q33.715450286865234,47.61025028686524,33.715450286865234,44.598440286865234Q33.715450286865234,42.38441028686523,34.57083828686523,40.361200286865234Q35.39675728686523,38.40769028686523,36.90223028686523,36.90223028686523Q38.40769028686523,35.39675928686523,40.361200286865234,34.57083828686523Q42.38441028686523,33.715450286865234,44.598440286865234,33.715450286865234Q46.959250286865235,33.715450286865234,49.08785028686523,34.679615286865236Q51.163850286865234,35.61993128686523,52.66105028686523,37.31065028686523L52.68625028686523,37.33896028686524L52.70975028686523,37.36531028686523L52.708650286865236,37.364160286865236ZM50.84405028686523,39.02942028686523L50.81645028686523,38.99852028686524L50.78945028686523,38.96806028686523Q49.646150286865236,37.676970286865235,48.05635028686523,36.956900286865235Q46.419450286865235,36.215450286865234,44.598440286865234,36.215450286865234Q41.12453028686524,36.215450286865234,38.669990286865236,38.669990286865236Q36.215450286865234,41.12453028686524,36.215450286865234,44.598440286865234Q36.215450286865234,46.910450286865235,37.39931028686524,48.85935028686524L37.432840286865236,48.91485028686523L37.466350286865236,48.97065028686524Q38.06530028686524,49.97205028686523,38.96192028686524,50.76325028686524L39.026140286865235,50.820150286865236L39.08767028686523,50.87525028686524Q41.43054028686524,52.98145028686523,44.598440286865234,52.98145028686523Q46.84315028686524,52.98145028686523,48.76715028686523,51.871950286865236Q50.63185028686523,50.796550286865234,51.74035028686524,48.95385028686523L51.765350286865235,48.912350286865234L51.79175028686524,48.868950286865235Q52.98145028686523,46.91785028686523,52.98145028686523,44.598440286865234Q52.98145028686523,41.419720286865235,50.84505028686523,39.030570286865235L50.84405028686523,39.02942028686523Z" fill="#FFFFFF" fill-opacity="1"/></g><g style="mix-blend-mode:passthrough"><g style="mix-blend-mode:passthrough"><path d="M42.95155896734738,41.1356220012207L48.057039967347386,46.216985001220706L46.29345996734738,47.9889350012207L41.187980967347386,42.9075680012207L42.95155896734738,41.1356220012207Z" fill="#FFFFFF" fill-opacity="1"/></g><g style="mix-blend-mode:passthrough"><path d="M41.13982412103272,46.28930295164824L46.24530312103271,41.207939951648235L48.00888312103272,42.979885951648235L42.90340212103271,48.061252951648235L41.13982412103272,46.28930295164824Z" fill="#FFFFFF" fill-opacity="1"/></g></g></g><g style="opacity:0;mix-blend-mode:passthrough"><path d="M0,53.0646L0,30.149L0,7.23327Q0,4.23022,2.115109,2.115109Q4.23022,0,7.23327,0L30.149,0L53.0646,0Q56.0677,0,58.1828,2.115109Q60.2979,4.23022,60.2979,7.23327L60.2979,30.149L60.2979,53.0646Q60.2979,56.0677,58.1828,58.1828Q56.0677,60.2979,53.0646,60.2979L30.149,60.2979L7.23327,60.2979Q4.23022,60.2979,2.115109,58.1828Q0,56.0677,0,53.0646L0,53.0646ZM2.5,53.0646Q2.5,55.0322,3.88288,56.415Q5.26575,57.7979,7.23327,57.7979L30.149,57.7979L53.0646,57.7979Q55.0322,57.7979,56.415,56.415Q57.7979,55.0322,57.7979,53.0646L57.7979,30.149L57.7979,7.23327Q57.7979,5.26575,56.415,3.88288Q55.0322,2.5,53.0646,2.5L30.149,2.5L7.23327,2.5Q5.26575,2.5,3.88288,3.88288Q2.5,5.26575,2.5,7.23327L2.5,30.149L2.5,53.0646L2.5,53.0646Z" fill="#FFFFFF" fill-opacity="1"/></g></g></g><g style="mix-blend-mode:passthrough"><rect x="1.14892578125" y="1.14892578125" width="58" height="58" rx="0" fill="#D8D8D8" fill-opacity="0"/></g></g></svg>