<svg xmlns="http://www.w3.org/2000/svg" xmlns:xlink="http://www.w3.org/1999/xlink" fill="none" version="1.1" width="58" height="58" viewBox="0 0 58 58"><g style="mix-blend-mode:passthrough"><g style="mix-blend-mode:passthrough"><g style="mix-blend-mode:passthrough"><g style="mix-blend-mode:passthrough"><path d="M44.92281493530274,31.393068313598633Q47.82901493530274,31.393068313598633,49.654714935302735,33.21877931359863Q51.480514935302736,35.044488313598634,51.480514935302736,37.95068831359863L51.480514935302736,44.31986831359863Q51.480514935302736,47.22606831359863,49.654714935302735,49.05176831359863Q47.82901493530274,50.877468313598634,44.92281493530274,50.877468313598634L16.261714935302734,50.877468313598634L16.261714935302734,48.377468313598634Q17.400764935302735,48.377468313598634,18.393984935302733,48.05866831359863Q18.437064935302736,48.044868313598634,18.498444935302736,48.02246831359864Q18.781654935302733,47.91916831359863,18.937584935302734,47.85296831359863L19.064474935302734,47.79886831359863L19.191874935302735,47.74486831359863Q20.045234935302734,47.38556831359863,20.734574935302735,46.81516831359863L20.858114935302734,46.71326831359863L20.982694935302735,46.61026831359863Q21.169474935302734,46.454968313598634,21.364384935302734,46.26006831359864Q21.357064935302734,46.26736831359863,21.348934935302736,46.27576831359863Q21.356694935302734,46.26776831359864,21.364834935302735,46.259568313598635L21.406954935302736,46.21746831359863L21.447274935302733,46.17706831359863L21.450304935302732,46.17406831359863L21.451644935302735,46.17276831359863L21.452734935302736,46.17166831359863L28.668714935302734,38.96626831359863L34.13531493530273,33.50771431359863Q36.25311493530273,31.393068313598633,39.26421493530273,31.393068313598633L40.84661493530274,31.393068313598633L44.92281493530274,31.393068313598633ZM44.92281493530274,33.89306831359863L40.84661493530274,33.89306831359863L39.26421493530273,33.89306831359863Q37.287614935302734,33.89306831359863,35.90181493530274,35.27678831359863L30.435214935302735,40.73533831359863L23.218714935302735,47.94116831359863L23.218874935302736,47.941068313598635L23.218634935302735,47.941268313598634L23.215724935302735,47.94416831359863L23.175364935302735,47.98456831359863L23.132604935302734,48.02736831359863Q23.140244935302732,48.01976831359863,23.147954935302735,48.01176831359864Q23.139744935302733,48.020268313598635,23.131954935302733,48.027968313598635Q22.856024935302734,48.303868313598635,22.575894935302735,48.53686831359863L22.449044935302734,48.64176831359863L22.328314935302735,48.74136831359863Q21.355064935302735,49.54666831359863,20.167474935302735,50.04666831359863L20.043724935302734,50.09916831359863L19.915024935302736,50.15396831359863Q19.699284935302735,50.24556831359863,19.354974935302735,50.37116831359863Q19.247674935302733,50.410268313598635,19.157964935302736,50.43906831359863Q17.792104935302735,50.877468313598634,16.261714935302734,50.877468313598634L16.261714935302734,49.627468313598634L16.261714935302734,48.377468313598634L44.92281493530274,48.377468313598634Q46.79351493530274,48.377468313598634,47.88701493530273,47.283968313598635Q48.980514935302736,46.19046831359863,48.980514935302736,44.31986831359863L48.980514935302736,37.95068831359863Q48.980514935302736,36.08002831359863,47.88701493530273,34.98654831359863Q46.79351493530274,33.89306831359863,44.92281493530274,33.89306831359863Z" fill="#505157" fill-opacity="1"/></g><g style="mix-blend-mode:passthrough"><path d="M43.40743969116211,18.4901509085083Q45.46133969116211,20.544090908508302,45.46133969116211,23.131820908508303Q45.46133969116211,25.7195609085083,43.40743969116211,27.7734609085083L40.53073969116211,30.6502609085083L37.65503969116211,33.5258609085083L37.653439691162106,33.5274609085083L30.43494969116211,40.7353609085083L23.21657469116211,47.9430609085083L21.43709869116211,46.187160908508304Q23.50364969116211,44.0615609085083,23.50364969116211,41.1352609085083L23.50363969116211,30.8809609085083L23.50363969116211,23.1151509085083Q23.50364969116211,20.108850908508302,25.62974969116211,17.9827509085083L26.746479691162108,16.8660209085083L29.62265969116211,13.9898439085083L29.62427969116211,13.988216908508301Q31.67776969116211,11.9351809085083,34.26533969116211,11.9353609085083Q36.85283969116211,11.935540908508301,38.90653969116211,13.989298908508301L43.40743969116211,18.4901509085083L43.40743969116211,18.4901509085083ZM41.63963969116211,20.2579109085083L37.13883969116211,15.7570709085083Q35.81723969116211,14.4354709085083,34.26513969116211,14.4353609085083Q32.71303969116211,14.435250908508301,31.390999691162108,15.757040908508301L31.39041969116211,15.757610908508301L28.51424969116211,18.633790908508303L27.39751969116211,19.7505209085083Q26.00364969116211,21.1443909085083,26.00363969116211,23.1151509085083L26.00363969116211,30.8809609085083L26.00364969116211,41.1352609085083Q26.00363969116211,43.0723609085083,25.254089691162108,44.8655609085083Q24.53406969116211,46.5881609085083,23.22958869116211,47.9298609085083L22.33334350586211,47.0585609085083L21.450112691162108,46.1740609085083L28.668489691162108,38.9662609085083L35.88453969116211,31.760860908508302L35.88733969116211,31.758060908508302L38.76293969116211,28.8824609085083L41.63963969116211,26.0057609085083Q42.96133969116211,24.6840609085083,42.96133969116211,23.131820908508303Q42.96133969116211,21.5796209085083,41.63963969116211,20.2579209085083L41.63963969116211,20.2579109085083Z" fill="#929296" fill-opacity="1"/></g><g style="mix-blend-mode:passthrough"><path d="M19.446329819488525,5.91650390625Q22.352529819488524,5.91650390625,24.178229819488525,7.74221490625Q26.003929819488526,9.56792390625,26.003929819488526,12.47412390625L26.003929819488526,41.13530390625Q26.003929819488526,43.06020390625,25.263429819488525,44.84370390625Q24.552129819488524,46.55700390625,23.262129819488525,47.89660390625Q23.229529819488526,47.93040390625,23.189129819488528,47.97080390625L23.175329819488525,47.98460390625L23.132929819488524,48.02700390625Q22.856329819488526,48.30360390625,22.578529819488523,48.53460390625L22.453729819488526,48.63780390625L22.326929819488527,48.74250390625Q21.355029819488525,49.54660390625,20.164829819488524,50.04780390625L20.039629819488525,50.10090390625L19.915929819488525,50.15360390625Q19.699329819488526,50.24560390625,19.355029819488525,50.37110390625Q19.247629819488523,50.41030390625,19.157929819488526,50.43910390625Q17.792129819488526,50.87740390625,16.261719819488526,50.87740390625Q15.385189819488525,50.87740390625,14.449429819488525,50.70790390625Q14.320409819488525,50.68450390625,14.172039819488525,50.65010390625Q13.679589819488525,50.53580390625,13.371399819488525,50.44120390625L13.366079819488526,50.43950390625L13.361439819488526,50.43810390625Q12.673959819488525,50.22320390625,12.241089819488526,50.02220390625Q11.553609819488525,49.70370390625,11.510569819488525,48.94550390625Q11.523229819488526,49.16850390625,11.614219819488525,49.37460390625Q11.770899819488525,49.72950390625,12.101439819488526,49.93300390625Q12.505999819488526,50.18220390625,12.973689819488525,50.09930390625Q13.349759819488526,50.03270390625,13.617139819488525,49.77230390625Q13.326879819488525,50.05510390625,12.926309819488527,50.11650390625Q12.528199819488526,50.17760390625,12.167799819488526,49.99710390625Q11.115059819488526,49.46970390625,10.296339819488525,48.84960390625Q10.216019819488526,48.78880390625,10.144469819488526,48.71730390625L10.141259819488525,48.71410390625Q10.190979819488525,48.76380390625,10.243299819488525,48.80410390625Q9.686759819488525,48.37510390625,9.332079819488525,47.98810390625L9.330489819488525,47.98640390625Q8.879489819488526,47.49440390625,8.647138819488525,47.22240390625Q8.574792819488525,47.13770390625,8.509987819488526,47.05100390625Q7.911077819488526,46.24990390625,7.398789819488526,45.22700390625Q7.216713819488525,44.86300390625,7.281080819488525,44.46190390625Q7.345014819488526,44.06350390625,7.628426819488525,43.77600390625Q7.472302819488525,43.93430390625,7.380583819488526,44.14680390625Q7.256079819488526,44.43520390625,7.283174819488526,44.74850390625Q7.324915819488526,45.23110390625,7.681218119488525,45.55920390625Q7.976150819488526,45.83080390625,8.372673819488526,45.87930390625Q7.675039819488525,45.79360390625,7.377318819488526,45.15430390625L7.340160819488525,45.07460390625L7.314550819488526,44.99030390625Q7.385315819488525,45.22300390625,7.541305819488525,45.40770390625L8.496291819488526,44.60120390625L7.573883819488525,45.44480390625Q7.425266819488526,45.28230390625,7.338874819488526,45.07990390625Q7.193501819488525,44.73950390625,6.983524819488525,44.11010390625Q6.957272819488526,44.03140390625,6.937805819488525,43.96610390625Q6.852345819488526,43.67950390625,6.7468398194885255,43.22500390625Q6.712369819488526,43.07650390625,6.689019819488525,42.94760390625Q6.519529819488525,42.01200390625,6.519529819488525,41.13530390625L6.519529819488525,12.47412390625Q6.519529819488525,9.56792390625,8.345240819488525,7.74221490625Q10.170949819488525,5.91650390625,13.077149819488525,5.91650390625L19.446329819488525,5.91650390625ZM19.446329819488525,8.41650390625L13.077149819488525,8.41650390625Q11.206489819488525,8.41650390625,10.113009819488525,9.50998390625Q9.019529819488525,10.60346390625,9.019529819488525,12.47412390625L9.019529819488525,41.13530390625Q9.019529819488525,41.78730390625,9.148979819488526,42.50190390625Q9.161449819488526,42.57080390625,9.182099819488526,42.65970390625Q9.270149819488525,43.03910390625,9.333539819488525,43.25170390625Q9.341529819488525,43.27850390625,9.355039819488525,43.31890390625Q9.532709819488526,43.85150390625,9.638119819488525,44.09840390625Q9.557369819488525,43.90920390625,9.418699819488525,43.75760390625L9.435349819488525,43.77580390625L9.451279819488526,43.79470390625Q9.627379819488525,44.00320390625,9.706379819488525,44.26290390625L8.510464819488526,44.62660390625L9.643609819488525,44.09890390625Q9.355999819488526,43.48130390625,8.676268819488525,43.39780390625Q9.078089819488525,43.44700390625,9.374789819488525,43.72020390625Q9.732029819488526,44.04920390625,9.773879819488526,44.53310390625Q9.801079819488525,44.84750390625,9.675849819488526,45.13760390625Q9.581789819488526,45.35550390625,9.408949819488525,45.53090390625Q9.686759819488525,45.24900390625,9.749499819488525,44.85800390625Q9.812669819488526,44.46440390625,9.634169819488525,44.10750390625Q10.046719819488526,44.93140390625,10.512279819488526,45.55410390625Q10.528439819488526,45.57570390625,10.547949819488526,45.59860390625Q10.751899819488525,45.83730390625,11.173379819488526,46.29710390625L11.174969819488526,46.29880390625Q11.383929819488525,46.52680390625,11.769399819488525,46.82390390625Q11.844699819488525,46.88200390625,11.914299819488527,46.95160390625L11.912359819488525,46.94960390625Q11.862179819488524,46.89950390625,11.805639819488526,46.85670390625Q12.440749819488525,47.33760390625,13.287459819488525,47.76180390625Q12.936099819488525,47.58580390625,12.547339819488524,47.64540390625Q12.156119819488525,47.70540390625,11.873109819488526,47.98120390625Q12.156579819488526,47.70510390625,12.537569819488525,47.63760390625Q13.006729819488525,47.55450390625,13.412319819488525,47.80430390625Q13.743899819488526,48.00850390625,13.901259819488526,48.36490390625Q13.993499819488525,48.57380390625,14.006549819488527,48.80380390625Q13.964639819488525,48.06550390625,13.293779819488526,47.75460390625Q13.577189819488526,47.88620390625,14.102809819488526,48.05060390625L14.102639819488525,48.05050390625L14.105379819488526,48.05130390625Q14.329839819488527,48.12030390625,14.737219819488526,48.21480390625Q14.826319819488525,48.23550390625,14.895069819488526,48.24800390625Q15.609819819488525,48.37740390625,16.261719819488526,48.37740390625Q17.400769819488524,48.37740390625,18.394029819488523,48.05870390625Q18.437129819488526,48.04480390625,18.498429819488525,48.02250390625Q18.781629819488526,47.91920390625,18.936729819488527,47.85330390625L19.064029819488525,47.79910390625L19.194529819488526,47.74380390625Q20.045229819488526,47.38560390625,20.735929819488526,46.81400390625L20.860529819488526,46.71130390625L20.980029819488525,46.61240390625Q21.169729819488524,46.45470390625,21.364429819488528,46.26000390625L21.407029819488525,46.21740390625L21.420729819488525,46.20360390625Q21.444929819488525,46.17950390625,21.461429819488526,46.16230390625Q23.503929819488526,44.04150390625,23.503929819488526,41.13530390625L23.503929819488526,12.47412390625Q23.503929819488526,10.60346390625,22.410429819488527,9.50998390625Q21.316929819488525,8.41650390625,19.446329819488525,8.41650390625Z" fill="#FFFFFF" fill-opacity="1"/></g><g style="mix-blend-mode:passthrough"><path d="M11.081364557342528,46.192375943603516Q11.14218455734253,46.25466594360351,11.20446455734253,46.31548594360351Q11.366554557342528,46.47377594360351,11.466124557342528,46.668805943603516Q11.56890455734253,46.870135943603515,11.595424557342529,47.09319594360352Q11.654834557342529,47.59297594360351,11.351854557342529,47.99452594360351Q10.90105455734253,48.59198594360352,10.16132455734253,48.47701594360352Q9.759274557342529,48.414525943603515,9.46450455734253,48.12281594360351Q9.41198455734253,48.07083594360351,9.360254557342529,48.01800594360351Q9.326054557342529,47.98491594360352,9.274054557342529,47.932365943603514Q8.983220557342529,47.63848594360351,8.92020155734253,47.237775943603516Q8.80433255734253,46.50101594360351,9.39726455734253,46.048865943603516Q9.79905455734253,45.742475943603516,10.30119455734253,45.80115594360352Q10.52526455734253,45.827335943603515,10.72750455734253,45.93045594360352Q10.922854557342529,46.030055943603514,11.081364557342528,46.192375943603516L11.081364557342528,46.192375943603516ZM9.29272455734253,47.93902594360352Q9.42123455734253,48.07063594360351,9.59188455734253,48.157635943603516Q9.789414557342528,48.25835594360352,10.01105455734253,48.28425594360351Q10.511954557342529,48.342785943603516,10.913194557342528,48.03682594360352Q11.50555455734253,47.58511594360352,11.38984455734253,46.84937594360352Q11.327554557342529,46.453275943603515,11.05101455734253,46.17384594360352Q11.08916455734253,46.21239594360352,11.14653455734253,46.268955943603515Q11.184484557342529,46.307705943603516,11.22303455734253,46.34585594360352Q10.94271455734253,46.068445943603514,10.54527455734253,46.00667594360352Q9.80656455734253,45.89186594360351,9.35619455734253,46.488755943603515Q9.05363755734253,46.889745943603515,9.11290055734253,47.38829594360352Q9.13912555734253,47.60891594360351,9.23950455734253,47.805535943603516Q9.32644455734253,47.97582594360352,9.45782455734253,48.10412594360351Q9.374284557342529,48.02254594360352,9.29272455734253,47.93902594360352L9.29272455734253,47.93902594360352Z" fill="#FFFFFF" fill-opacity="1"/></g><g style="mix-blend-mode:passthrough"><path d="M16.26171901397705,37.76220703125Q17.65887901397705,37.76220703125,18.64681901397705,38.75015003125Q19.63475901397705,39.73809203125,19.63475901397705,41.13525703125Q19.63475901397705,42.53241703125,18.64681901397705,43.52035703125Q17.65887901397705,44.50829703125,16.26171901397705,44.50829703125Q14.86455401397705,44.50829703125,13.876611013977051,43.52035703125Q12.88866901397705,42.53241703125,12.88866901397705,41.13525703125Q12.88866901397705,39.73809203125,13.87661201397705,38.75014903125Q14.86455401397705,37.76220703125,16.26171901397705,37.76220703125L16.26171901397705,37.76220703125ZM16.26171901397705,40.26220703125Q15.90008901397705,40.26220703125,15.644379013977051,40.51791703125Q15.38866901397705,40.77362703125,15.38866901397705,41.13525703125Q15.38866901397705,41.49687703125,15.644379013977051,41.75258703125Q15.90008901397705,42.00829703125,16.26171901397705,42.00829703125Q16.623339013977052,42.00829703125,16.879049013977053,41.75258703125Q17.13475901397705,41.49687703125,17.13475901397705,41.13525703125Q17.13475901397705,40.77362703125,16.879049013977053,40.51791703125Q16.623339013977052,40.26220703125,16.26171901397705,40.26220703125L16.26171901397705,40.26220703125Z" fill="#FFFFFF" fill-opacity="1"/></g><g style="opacity:0;mix-blend-mode:passthrough"><path d="M2.2734375,47.88471015625L2.2734375,28.39701015625L2.2734375,8.90919015625Q2.2734375,5.90614015625,4.3913035,3.7882761562500002Q6.5091675,1.67041015625,9.5122175,1.67041015625L29.0000375,1.67041015625L48.4877375,1.67041015625Q51.4908375,1.67041015625,53.6087375,3.7882761562500002Q55.7265375,5.90614015625,55.7265375,8.90919015625L55.7265375,28.39701015625L55.7265375,47.88471015625Q55.7265375,50.88781015625,53.6087375,53.00571015625Q51.4908375,55.12351015625,48.4877375,55.12351015625L28.9999375,55.12351015625L9.5122175,55.12351015625Q6.5091675,55.12351015625,4.3913035,53.00571015625Q2.2734375,50.88781015625,2.2734375,47.88471015625L2.2734375,47.88471015625ZM4.7734375,47.88471015625Q4.7734375,49.85231015625,6.1590675,51.23791015625Q7.5447075,52.62351015625,9.5122175,52.62351015625L28.9999375,52.62351015625L48.4877375,52.62351015625Q50.4553375,52.62351015625,51.8409375,51.23791015625Q53.2265375,49.85221015625,53.2265375,47.88471015625L53.2265375,28.39701015625L53.2265375,8.90919015625Q53.2265375,6.94168015625,51.8409375,5.55604015625Q50.4553375,4.17041015625,48.4877375,4.17041015625L29.0000375,4.17041015625L9.5122175,4.17041015625Q7.5447075,4.17041015625,6.1590675,5.55604015625Q4.7734375,6.94168015625,4.7734375,8.90919015625L4.7734375,28.39701015625L4.7734375,47.88471015625L4.7734375,47.88471015625Z" fill="#FFFFFF" fill-opacity="1"/></g></g></g><g style="mix-blend-mode:passthrough"><rect x="0" y="0" width="58" height="58" rx="0" fill="#D8D8D8" fill-opacity="0"/></g></g></svg>