<svg xmlns="http://www.w3.org/2000/svg" xmlns:xlink="http://www.w3.org/1999/xlink" fill="none" version="1.1" width="58" height="58" viewBox="0 0 58 58"><g style="mix-blend-mode:passthrough"><g style="mix-blend-mode:passthrough"><rect x="0" y="0" width="58" height="58" rx="0" fill="#D8D8D8" fill-opacity="0"/></g><g style="mix-blend-mode:passthrough"><rect x="5.5" y="5" width="47" height="47" rx="6" fill-opacity="0" stroke-opacity="1" stroke="#FFFFFF" fill="none" stroke-width="2.5"/></g><g style="mix-blend-mode:passthrough"><g style="mix-blend-mode:passthrough"><g style="mix-blend-mode:passthrough" transform="matrix(1,0,0,-1,0,61.1326904296875)"><g style="mix-blend-mode:passthrough"><path d="M34.99102169189453,33.38094878196716L34.99102169189453,41.78501878196717Q34.99102169189453,41.84642878196716,34.98500169189453,41.90753878196716Q34.97898169189453,41.96864878196716,34.96700169189453,42.028878781967165Q34.95502169189453,42.08910878196716,34.93719169189453,42.14786878196716Q34.91937169189453,42.206638781967165,34.89587169189453,42.26336878196716Q34.87237169189453,42.320108781967164,34.843421691894534,42.37426878196716Q34.81447169189453,42.42841878196717,34.78035169189453,42.47947878196716Q34.74624169189453,42.53053878196717,34.70728169189453,42.57800878196716Q34.66832169189453,42.62547878196716,34.62490169189453,42.668898781967165Q34.58148169189453,42.71232878196716,34.534011691894534,42.75127878196716Q34.48654169189453,42.79023878196716,34.43548169189453,42.82435878196716Q34.38442169189453,42.85846878196716,34.330261691894535,42.88741878196716Q34.27611169189453,42.916368781967165,34.21937169189453,42.939868781967164Q34.162641691894535,42.96336878196716,34.10387169189453,42.98118878196716Q34.04511169189453,42.999018781967166,33.98488169189453,43.01099878196716Q33.92465169189453,43.02297878196716,33.86354169189453,43.02899878196716Q33.80243169189453,43.03501878196717,33.74102169189453,43.03501878196717L25.33692169189453,43.03501878196717Q25.27551309189453,43.03501878196717,25.214400691894532,43.02899878196716Q25.15328769189453,43.02297878196716,25.09305869189453,43.01099878196716Q25.03283069189453,42.999018781967166,24.97406569189453,42.98118878196716Q24.91530169189453,42.96336878196716,24.85856769189453,42.939868781967164Q24.80183369189453,42.916368781967165,24.747675691894532,42.88741878196716Q24.693518691894532,42.85846878196716,24.642458691894532,42.82435878196716Q24.59139969189453,42.79023878196716,24.54392969189453,42.75127878196716Q24.49646069189453,42.71232878196716,24.45303869189453,42.668898781967165Q24.40961569189453,42.62547878196716,24.37065869189453,42.57800878196716Q24.33170169189453,42.53053878196717,24.297581691894532,42.47947878196716Q24.26347169189453,42.42841878196717,24.234521691894532,42.37426878196716Q24.20557169189453,42.320108781967164,24.18207169189453,42.26336878196716Q24.15857169189453,42.206638781967165,24.140741691894533,42.14786878196716Q24.122921691894533,42.08910878196716,24.11094169189453,42.028878781967165Q24.09896169189453,41.96864878196716,24.09294169189453,41.90753878196716Q24.08692169189453,41.84642878196716,24.08692169189453,41.78501878196717Q24.08692169189453,41.723608781967165,24.09294169189453,41.66249878196716Q24.09896169189453,41.60138878196716,24.11094169189453,41.54115878196716Q24.122921691894533,41.480928781967165,24.140741691894533,41.42215878196716Q24.15857169189453,41.36339878196716,24.18207169189453,41.306658781967165Q24.20557169189453,41.249928781967164,24.234521691894532,41.19576878196716Q24.26347169189453,41.14161878196716,24.297581691894532,41.09055878196716Q24.33170169189453,41.03949878196716,24.37065869189453,40.992028781967164Q24.40961569189453,40.94455878196716,24.45303869189453,40.90113878196716Q24.49646069189453,40.85770878196716,24.54392969189453,40.81875878196716Q24.59139969189453,40.779798781967166,24.642458691894532,40.745678781967165Q24.693518691894532,40.71156878196716,24.747675691894532,40.682618781967165Q24.80183369189453,40.65366878196716,24.85856769189453,40.630168781967164Q24.91530169189453,40.606668781967166,24.97406569189453,40.58883878196716Q25.03283069189453,40.57101878196716,25.09305869189453,40.55903878196716Q25.15328769189453,40.547058781967166,25.214400691894532,40.54103878196716Q25.27551309189453,40.53501878196716,25.33692169189453,40.53501878196716L33.74102169189453,40.53501878196716L33.74102169189453,41.78501878196717L32.49102169189453,41.78501878196717L32.49102169189453,33.38094878196716Q32.49102169189453,33.31954018196716,32.49704169189453,33.258427781967164Q32.50306169189453,33.197314781967165,32.51504169189453,33.137085781967166Q32.52702169189453,33.07685778196716,32.54484169189453,33.01809278196716Q32.56267169189453,32.959328781967166,32.586171691894535,32.90259478196716Q32.60967169189453,32.84586078196716,32.63862169189453,32.79170278196716Q32.66757169189453,32.737545781967164,32.701681691894535,32.686485781967164Q32.73580169189453,32.63542678196716,32.77476169189453,32.587956781967165Q32.81371169189453,32.540487781967165,32.85714169189453,32.497065781967166Q32.90056169189453,32.45364278196716,32.94803169189453,32.414685781967165Q32.99550169189453,32.37572878196716,33.04656169189453,32.34160878196716Q33.09762169189453,32.30749878196716,33.15177169189453,32.27854878196716Q33.205931691894534,32.249598781967165,33.26266169189453,32.22609878196716Q33.319401691894534,32.20259878196716,33.37816169189453,32.184768781967165Q33.43693169189453,32.166948781967164,33.49716169189453,32.15496878196716Q33.557381691894534,32.14298878196716,33.61850169189453,32.13696878196716Q33.67961169189453,32.13094878196716,33.74102169189453,32.13094878196716Q33.80243169189453,32.13094878196716,33.86354169189453,32.13696878196716Q33.92465169189453,32.14298878196716,33.98488169189453,32.15496878196716Q34.04511169189453,32.166948781967164,34.10387169189453,32.184768781967165Q34.162641691894535,32.20259878196716,34.21937169189453,32.22609878196716Q34.27611169189453,32.249598781967165,34.330261691894535,32.27854878196716Q34.38442169189453,32.30749878196716,34.43548169189453,32.34160878196716Q34.48654169189453,32.37572878196716,34.534011691894534,32.414685781967165Q34.58148169189453,32.45364278196716,34.62490169189453,32.497065781967166Q34.66832169189453,32.540487781967165,34.70728169189453,32.587956781967165Q34.74624169189453,32.63542678196716,34.78035169189453,32.686485781967164Q34.81447169189453,32.737545781967164,34.843421691894534,32.79170278196716Q34.87237169189453,32.84586078196716,34.89587169189453,32.90259478196716Q34.91937169189453,32.959328781967166,34.93719169189453,33.01809278196716Q34.95502169189453,33.07685778196716,34.96700169189453,33.137085781967166Q34.97898169189453,33.197314781967165,34.98500169189453,33.258427781967164Q34.99102169189453,33.31954018196716,34.99102169189453,33.38094878196716ZM34.99102169189453,33.38094878196716Q34.99102169189453,33.44235738196716,34.98500169189453,33.50346978196716Q34.97898169189453,33.56458278196716,34.96700169189453,33.62481178196716Q34.95502169189453,33.68503978196716,34.93719169189453,33.743804781967164Q34.91937169189453,33.80256878196716,34.89587169189453,33.859302781967166Q34.87237169189453,33.916036781967165,34.843421691894534,33.970194781967166Q34.81447169189453,34.02435178196716,34.78035169189453,34.07541178196716Q34.74624169189453,34.126470781967164,34.70728169189453,34.17394078196716Q34.66832169189453,34.22140978196716,34.62490169189453,34.26483178196716Q34.58148169189453,34.308254781967165,34.534011691894534,34.34721178196716Q34.48654169189453,34.386168781967164,34.43548169189453,34.420288781967166Q34.38442169189453,34.454398781967164,34.330261691894535,34.483348781967166Q34.27611169189453,34.51229878196716,34.21937169189453,34.535798781967166Q34.162641691894535,34.559298781967165,34.10387169189453,34.57712878196716Q34.04511169189453,34.59494878196716,33.98488169189453,34.60692878196716Q33.92465169189453,34.618908781967164,33.86354169189453,34.624928781967164Q33.80243169189453,34.63094878196716,33.74102169189453,34.63094878196716Q33.67961169189453,34.63094878196716,33.61850169189453,34.624928781967164Q33.557381691894534,34.618908781967164,33.49716169189453,34.60692878196716Q33.43693169189453,34.59494878196716,33.37816169189453,34.57712878196716Q33.319401691894534,34.559298781967165,33.26266169189453,34.535798781967166Q33.205931691894534,34.51229878196716,33.15177169189453,34.483348781967166Q33.09762169189453,34.454398781967164,33.04656169189453,34.420288781967166Q32.99550169189453,34.386168781967164,32.94803169189453,34.34721178196716Q32.90056169189453,34.308254781967165,32.85714169189453,34.26483178196716Q32.81371169189453,34.22140978196716,32.77476169189453,34.17394078196716Q32.73580169189453,34.126470781967164,32.701681691894535,34.07541178196716Q32.66757169189453,34.02435178196716,32.63862169189453,33.970194781967166Q32.60967169189453,33.916036781967165,32.586171691894535,33.859302781967166Q32.56267169189453,33.80256878196716,32.54484169189453,33.743804781967164Q32.52702169189453,33.68503978196716,32.51504169189453,33.62481178196716Q32.50306169189453,33.56458278196716,32.49704169189453,33.50346978196716Q32.49102169189453,33.44235738196716,32.49102169189453,33.38094878196716Q32.49102169189453,33.31954018196716,32.49704169189453,33.258427781967164Q32.50306169189453,33.197314781967165,32.51504169189453,33.137085781967166Q32.52702169189453,33.07685778196716,32.54484169189453,33.01809278196716Q32.56267169189453,32.959328781967166,32.586171691894535,32.90259478196716Q32.60967169189453,32.84586078196716,32.63862169189453,32.79170278196716Q32.66757169189453,32.737545781967164,32.701681691894535,32.686485781967164Q32.73580169189453,32.63542678196716,32.77476169189453,32.587956781967165Q32.81371169189453,32.540487781967165,32.85714169189453,32.497065781967166Q32.90056169189453,32.45364278196716,32.94803169189453,32.414685781967165Q32.99550169189453,32.37572878196716,33.04656169189453,32.34160878196716Q33.09762169189453,32.30749878196716,33.15177169189453,32.27854878196716Q33.205931691894534,32.249598781967165,33.26266169189453,32.22609878196716Q33.319401691894534,32.20259878196716,33.37816169189453,32.184768781967165Q33.43693169189453,32.166948781967164,33.49716169189453,32.15496878196716Q33.557381691894534,32.14298878196716,33.61850169189453,32.13696878196716Q33.67961169189453,32.13094878196716,33.74102169189453,32.13094878196716Q33.80243169189453,32.13094878196716,33.86354169189453,32.13696878196716Q33.92465169189453,32.14298878196716,33.98488169189453,32.15496878196716Q34.04511169189453,32.166948781967164,34.10387169189453,32.184768781967165Q34.162641691894535,32.20259878196716,34.21937169189453,32.22609878196716Q34.27611169189453,32.249598781967165,34.330261691894535,32.27854878196716Q34.38442169189453,32.30749878196716,34.43548169189453,32.34160878196716Q34.48654169189453,32.37572878196716,34.534011691894534,32.414685781967165Q34.58148169189453,32.45364278196716,34.62490169189453,32.497065781967166Q34.66832169189453,32.540487781967165,34.70728169189453,32.587956781967165Q34.74624169189453,32.63542678196716,34.78035169189453,32.686485781967164Q34.81447169189453,32.737545781967164,34.843421691894534,32.79170278196716Q34.87237169189453,32.84586078196716,34.89587169189453,32.90259478196716Q34.91937169189453,32.959328781967166,34.93719169189453,33.01809278196716Q34.95502169189453,33.07685778196716,34.96700169189453,33.137085781967166Q34.97898169189453,33.197314781967165,34.98500169189453,33.258427781967164Q34.99102169189453,33.31954018196716,34.99102169189453,33.38094878196716ZM26.58692169189453,41.78501878196717Q26.58692169189453,41.84642878196716,26.580901691894532,41.90753878196716Q26.574881691894532,41.96864878196716,26.56290169189453,42.028878781967165Q26.55092169189453,42.08910878196716,26.53310169189453,42.14786878196716Q26.515271691894533,42.206638781967165,26.49177169189453,42.26336878196716Q26.468271691894532,42.320108781967164,26.43932169189453,42.37426878196716Q26.410371691894532,42.42841878196717,26.37626169189453,42.47947878196716Q26.342141691894533,42.53053878196717,26.303184691894533,42.57800878196716Q26.264227691894533,42.62547878196716,26.220804691894532,42.668898781967165Q26.177382691894532,42.71232878196716,26.129913691894533,42.75127878196716Q26.082443691894532,42.79023878196716,26.03138469189453,42.82435878196716Q25.98032469189453,42.85846878196716,25.92616769189453,42.88741878196716Q25.872009691894533,42.916368781967165,25.81527569189453,42.939868781967164Q25.758541691894532,42.96336878196716,25.699777691894532,42.98118878196716Q25.64101269189453,42.999018781967166,25.580784691894532,43.01099878196716Q25.520555691894533,43.02297878196716,25.45944269189453,43.02899878196716Q25.39833029189453,43.03501878196717,25.33692169189453,43.03501878196717Q25.27551309189453,43.03501878196717,25.214400691894532,43.02899878196716Q25.15328769189453,43.02297878196716,25.09305869189453,43.01099878196716Q25.03283069189453,42.999018781967166,24.97406569189453,42.98118878196716Q24.91530169189453,42.96336878196716,24.85856769189453,42.939868781967164Q24.80183369189453,42.916368781967165,24.747675691894532,42.88741878196716Q24.693518691894532,42.85846878196716,24.642458691894532,42.82435878196716Q24.59139969189453,42.79023878196716,24.54392969189453,42.75127878196716Q24.49646069189453,42.71232878196716,24.45303869189453,42.668898781967165Q24.40961569189453,42.62547878196716,24.37065869189453,42.57800878196716Q24.33170169189453,42.53053878196717,24.297581691894532,42.47947878196716Q24.26347169189453,42.42841878196717,24.234521691894532,42.37426878196716Q24.20557169189453,42.320108781967164,24.18207169189453,42.26336878196716Q24.15857169189453,42.206638781967165,24.140741691894533,42.14786878196716Q24.122921691894533,42.08910878196716,24.11094169189453,42.028878781967165Q24.09896169189453,41.96864878196716,24.09294169189453,41.90753878196716Q24.08692169189453,41.84642878196716,24.08692169189453,41.78501878196717Q24.08692169189453,41.723608781967165,24.09294169189453,41.66249878196716Q24.09896169189453,41.60138878196716,24.11094169189453,41.54115878196716Q24.122921691894533,41.480928781967165,24.140741691894533,41.42215878196716Q24.15857169189453,41.36339878196716,24.18207169189453,41.306658781967165Q24.20557169189453,41.249928781967164,24.234521691894532,41.19576878196716Q24.26347169189453,41.14161878196716,24.297581691894532,41.09055878196716Q24.33170169189453,41.03949878196716,24.37065869189453,40.992028781967164Q24.40961569189453,40.94455878196716,24.45303869189453,40.90113878196716Q24.49646069189453,40.85770878196716,24.54392969189453,40.81875878196716Q24.59139969189453,40.779798781967166,24.642458691894532,40.745678781967165Q24.693518691894532,40.71156878196716,24.747675691894532,40.682618781967165Q24.80183369189453,40.65366878196716,24.85856769189453,40.630168781967164Q24.91530169189453,40.606668781967166,24.97406569189453,40.58883878196716Q25.03283069189453,40.57101878196716,25.09305869189453,40.55903878196716Q25.15328769189453,40.547058781967166,25.214400691894532,40.54103878196716Q25.27551309189453,40.53501878196716,25.33692169189453,40.53501878196716Q25.39833029189453,40.53501878196716,25.45944269189453,40.54103878196716Q25.520555691894533,40.547058781967166,25.580784691894532,40.55903878196716Q25.64101269189453,40.57101878196716,25.699777691894532,40.58883878196716Q25.758541691894532,40.606668781967166,25.81527569189453,40.630168781967164Q25.872009691894533,40.65366878196716,25.92616769189453,40.682618781967165Q25.98032469189453,40.71156878196716,26.03138469189453,40.745678781967165Q26.082443691894532,40.779798781967166,26.129913691894533,40.81875878196716Q26.177382691894532,40.85770878196716,26.220804691894532,40.90113878196716Q26.264227691894533,40.94455878196716,26.303184691894533,40.992028781967164Q26.342141691894533,41.03949878196716,26.37626169189453,41.09055878196716Q26.410371691894532,41.14161878196716,26.43932169189453,41.19576878196716Q26.468271691894532,41.249928781967164,26.49177169189453,41.306658781967165Q26.515271691894533,41.36339878196716,26.53310169189453,41.42215878196716Q26.55092169189453,41.480928781967165,26.56290169189453,41.54115878196716Q26.574881691894532,41.60138878196716,26.580901691894532,41.66249878196716Q26.58692169189453,41.723608781967165,26.58692169189453,41.78501878196717Z" fill="#FFFFFF" fill-opacity="1"/></g><g style="mix-blend-mode:passthrough"><path d="M23.406231403930665,29.68246221484375L34.62494840393067,40.90114521484375Q34.668348403930665,40.94454521484375,34.70724840393066,40.99204521484375Q34.746248403930664,41.03954521484375,34.78034840393066,41.09054521484375Q34.81444840393066,41.14164521484375,34.843448403930665,41.195745214843754Q34.872348403930665,41.24994521484375,34.895848403930664,41.30664521484375Q34.91934840393066,41.36344521484375,34.937148403930664,41.42214521484375Q34.95504840393066,41.48094521484375,34.96704840393066,41.54114521484375Q34.978948403930666,41.60134521484375,34.98504840393066,41.662545214843746Q34.99104840393066,41.72364521484375,34.99104840393066,41.78504521484375Q34.99104840393066,41.84644521484375,34.98504840393066,41.90754521484375Q34.978948403930666,41.96864521484375,34.96704840393066,42.02884521484375Q34.95504840393066,42.089145214843754,34.93724840393067,42.14784521484375Q34.91934840393066,42.206645214843746,34.895848403930664,42.26334521484375Q34.872348403930665,42.32014521484375,34.843448403930665,42.374245214843754Q34.81444840393066,42.42844521484375,34.78034840393066,42.47944521484375Q34.746248403930664,42.53054521484375,34.70724840393066,42.57804521484375Q34.668348403930665,42.62544521484375,34.62494840393067,42.66894521484375Q34.581448403930665,42.71234521484375,34.53404840393066,42.75124521484375Q34.48654840393066,42.79024521484375,34.435448403930664,42.824345214843746Q34.38444840393066,42.85844521484375,34.33024840393067,42.88744521484375Q34.27614840393066,42.91634521484375,34.21934840393067,42.93984521484375Q34.16264840393066,42.96334521484375,34.10384840393066,42.98114521484375Q34.04514840393067,42.99904521484375,33.98484840393066,43.01104521484375Q33.92464840393066,43.02294521484375,33.863548403930665,43.02904521484375Q33.80244840393066,43.03504521484375,33.74104840393066,43.03504521484375Q33.67964840393066,43.03504521484375,33.61854840393066,43.02904521484375Q33.55734840393066,43.02294521484375,33.497148403930666,43.01104521484375Q33.436948403930664,42.99904521484375,33.378148403930666,42.98124521484375Q33.319448403930664,42.96334521484375,33.26264840393066,42.93984521484375Q33.20594840393066,42.91634521484375,33.15174840393067,42.88744521484375Q33.09764840393066,42.85844521484375,33.046548403930665,42.824345214843746Q32.99554840393066,42.79024521484375,32.94804840393066,42.75124521484375Q32.900548403930664,42.71234521484375,32.857148403930665,42.66894521484375L21.638465403930663,31.45022821484375Q21.595042403930663,31.40680621484375,21.556085403930663,31.35933721484375Q21.517128403930663,31.31186721484375,21.483008403930665,31.26080821484375Q21.448898403930663,31.20974821484375,21.419948403930665,31.15559121484375Q21.390998403930663,31.101433214843752,21.367498403930664,31.04469921484375Q21.343998403930662,30.98796521484375,21.326168403930666,30.92920121484375Q21.308348403930665,30.87043621484375,21.296368403930664,30.81020821484375Q21.284388403930663,30.74997921484375,21.278368403930664,30.68886621484375Q21.272348403930664,30.62775381484375,21.272348403930664,30.56634521484375Q21.272348403930664,30.50493661484375,21.278368403930664,30.44382421484375Q21.284388403930663,30.38271121484375,21.296368403930664,30.32248221484375Q21.308348403930665,30.26225421484375,21.326168403930666,30.20348921484375Q21.343998403930662,30.14472521484375,21.367498403930664,30.08799121484375Q21.390998403930663,30.031257214843748,21.419948403930665,29.97709921484375Q21.448898403930663,29.92294221484375,21.483008403930665,29.87188221484375Q21.517128403930663,29.82082321484375,21.556085403930663,29.77335321484375Q21.595042403930663,29.72588421484375,21.638465403930663,29.68246221484375Q21.681887403930663,29.63903921484375,21.729356403930662,29.60008221484375Q21.776826403930663,29.56112521484375,21.827885403930665,29.52700521484375Q21.878945403930665,29.49289521484375,21.933102403930665,29.46394521484375Q21.987260403930662,29.43499521484375,22.043994403930665,29.41149521484375Q22.100728403930663,29.387995214843748,22.159492403930663,29.37016521484375Q22.218257403930664,29.35234521484375,22.278485403930663,29.34036521484375Q22.338714403930663,29.32838521484375,22.399827403930665,29.32236521484375Q22.460939803930664,29.31634521484375,22.522348403930664,29.31634521484375Q22.583757003930664,29.31634521484375,22.644869403930663,29.32236521484375Q22.705982403930665,29.32838521484375,22.766211403930665,29.34036521484375Q22.826439403930664,29.35234521484375,22.885204403930665,29.37016521484375Q22.943968403930665,29.387995214843748,23.000702403930664,29.41149521484375Q23.057436403930666,29.43499521484375,23.111594403930663,29.46394521484375Q23.165751403930663,29.49289521484375,23.216811403930663,29.52700521484375Q23.267870403930665,29.56112521484375,23.315340403930666,29.60008221484375Q23.362809403930665,29.63903921484375,23.406231403930665,29.68246221484375ZM23.772348403930664,30.56634521484375Q23.772348403930664,30.62775381484375,23.766328403930665,30.68886621484375Q23.760308403930665,30.74997921484375,23.748328403930664,30.81020821484375Q23.736348403930663,30.87043621484375,23.718528403930662,30.92920121484375Q23.700698403930666,30.98796521484375,23.677198403930664,31.04469921484375Q23.653698403930665,31.101433214843752,23.624748403930663,31.15559121484375Q23.595798403930665,31.20974821484375,23.561688403930663,31.26080821484375Q23.527568403930665,31.31186721484375,23.488611403930665,31.35933721484375Q23.449654403930666,31.40680621484375,23.406231403930665,31.45022821484375Q23.362809403930665,31.49365121484375,23.315340403930666,31.53260821484375Q23.267870403930665,31.57156521484375,23.216811403930663,31.60568521484375Q23.165751403930663,31.63979521484375,23.111594403930663,31.66874521484375Q23.057436403930666,31.69769521484375,23.000702403930664,31.72119521484375Q22.943968403930665,31.744695214843752,22.885204403930665,31.76252521484375Q22.826439403930664,31.78034521484375,22.766211403930665,31.79232521484375Q22.705982403930665,31.80430521484375,22.644869403930663,31.81032521484375Q22.583757003930664,31.81634521484375,22.522348403930664,31.81634521484375Q22.460939803930664,31.81634521484375,22.399827403930665,31.81032521484375Q22.338714403930663,31.80430521484375,22.278485403930663,31.79232521484375Q22.218257403930664,31.78034521484375,22.159492403930663,31.76252521484375Q22.100728403930663,31.744695214843752,22.043994403930665,31.72119521484375Q21.987260403930662,31.69769521484375,21.933102403930665,31.66874521484375Q21.878945403930665,31.63979521484375,21.827885403930665,31.60568521484375Q21.776826403930663,31.57156521484375,21.729356403930662,31.53260821484375Q21.681887403930663,31.49365121484375,21.638465403930663,31.45022821484375Q21.595042403930663,31.40680621484375,21.556085403930663,31.35933721484375Q21.517128403930663,31.31186721484375,21.483008403930665,31.26080821484375Q21.448898403930663,31.20974821484375,21.419948403930665,31.15559121484375Q21.390998403930663,31.101433214843752,21.367498403930664,31.04469921484375Q21.343998403930662,30.98796521484375,21.326168403930666,30.92920121484375Q21.308348403930665,30.87043621484375,21.296368403930664,30.81020821484375Q21.284388403930663,30.74997921484375,21.278368403930664,30.68886621484375Q21.272348403930664,30.62775381484375,21.272348403930664,30.56634521484375Q21.272348403930664,30.50493661484375,21.278368403930664,30.44382421484375Q21.284388403930663,30.38271121484375,21.296368403930664,30.32248221484375Q21.308348403930665,30.26225421484375,21.326168403930666,30.20348921484375Q21.343998403930662,30.14472521484375,21.367498403930664,30.08799121484375Q21.390998403930663,30.031257214843748,21.419948403930665,29.97709921484375Q21.448898403930663,29.92294221484375,21.483008403930665,29.87188221484375Q21.517128403930663,29.82082321484375,21.556085403930663,29.77335321484375Q21.595042403930663,29.72588421484375,21.638465403930663,29.68246221484375Q21.681887403930663,29.63903921484375,21.729356403930662,29.60008221484375Q21.776826403930663,29.56112521484375,21.827885403930665,29.52700521484375Q21.878945403930665,29.49289521484375,21.933102403930665,29.46394521484375Q21.987260403930662,29.43499521484375,22.043994403930665,29.41149521484375Q22.100728403930663,29.387995214843748,22.159492403930663,29.37016521484375Q22.218257403930664,29.35234521484375,22.278485403930663,29.34036521484375Q22.338714403930663,29.32838521484375,22.399827403930665,29.32236521484375Q22.460939803930664,29.31634521484375,22.522348403930664,29.31634521484375Q22.583757003930664,29.31634521484375,22.644869403930663,29.32236521484375Q22.705982403930665,29.32838521484375,22.766211403930665,29.34036521484375Q22.826439403930664,29.35234521484375,22.885204403930665,29.37016521484375Q22.943968403930665,29.387995214843748,23.000702403930664,29.41149521484375Q23.057436403930666,29.43499521484375,23.111594403930663,29.46394521484375Q23.165751403930663,29.49289521484375,23.216811403930663,29.52700521484375Q23.267870403930665,29.56112521484375,23.315340403930666,29.60008221484375Q23.362809403930665,29.63903921484375,23.406231403930665,29.68246221484375Q23.449654403930666,29.72588421484375,23.488611403930665,29.77335321484375Q23.527568403930665,29.82082321484375,23.561688403930663,29.87188221484375Q23.595798403930665,29.92294221484375,23.624748403930663,29.97709921484375Q23.653698403930665,30.031257214843748,23.677198403930664,30.08799121484375Q23.700698403930666,30.14472521484375,23.718528403930662,30.20348921484375Q23.736348403930663,30.26225421484375,23.748328403930664,30.32248221484375Q23.760308403930665,30.38271121484375,23.766328403930665,30.44382421484375Q23.772348403930664,30.50493661484375,23.772348403930664,30.56634521484375ZM34.99104840393066,41.78504521484375Q34.99104840393066,41.84644521484375,34.98504840393066,41.90754521484375Q34.978948403930666,41.96864521484375,34.96704840393066,42.02884521484375Q34.95504840393066,42.089145214843754,34.93724840393067,42.14784521484375Q34.91934840393066,42.206645214843746,34.895848403930664,42.26334521484375Q34.872348403930665,42.32014521484375,34.843448403930665,42.374245214843754Q34.81444840393066,42.42844521484375,34.78034840393066,42.47944521484375Q34.746248403930664,42.53054521484375,34.70724840393066,42.57804521484375Q34.668348403930665,42.62544521484375,34.62494840393067,42.66894521484375Q34.581448403930665,42.71234521484375,34.53404840393066,42.75124521484375Q34.48654840393066,42.79024521484375,34.435448403930664,42.824345214843746Q34.38444840393066,42.85844521484375,34.33024840393067,42.88744521484375Q34.27614840393066,42.91634521484375,34.21934840393067,42.93984521484375Q34.16264840393066,42.96334521484375,34.10384840393066,42.98114521484375Q34.04514840393067,42.99904521484375,33.98484840393066,43.01104521484375Q33.92464840393066,43.02294521484375,33.863548403930665,43.02904521484375Q33.80244840393066,43.03504521484375,33.74104840393066,43.03504521484375Q33.67964840393066,43.03504521484375,33.61854840393066,43.02904521484375Q33.55734840393066,43.02294521484375,33.497148403930666,43.01104521484375Q33.436948403930664,42.99904521484375,33.378148403930666,42.98124521484375Q33.319448403930664,42.96334521484375,33.26264840393066,42.93984521484375Q33.20594840393066,42.91634521484375,33.15174840393067,42.88744521484375Q33.09764840393066,42.85844521484375,33.046548403930665,42.824345214843746Q32.99554840393066,42.79024521484375,32.94804840393066,42.75124521484375Q32.900548403930664,42.71234521484375,32.857148403930665,42.66894521484375Q32.81374840393066,42.62544521484375,32.774748403930666,42.57804521484375Q32.73584840393066,42.53054521484375,32.70164840393066,42.47944521484375Q32.66754840393067,42.42844521484375,32.63864840393067,42.374245214843754Q32.60964840393066,42.32014521484375,32.586148403930665,42.26334521484375Q32.562648403930666,42.206645214843746,32.544848403930665,42.14784521484375Q32.527048403930664,42.089145214843754,32.51503840393066,42.02884521484375Q32.503058403930666,41.96864521484375,32.49703840393067,41.90754521484375Q32.49101840393067,41.84644521484375,32.49101840393067,41.78504521484375Q32.49101840393067,41.72364521484375,32.49703840393067,41.662545214843746Q32.503058403930666,41.60134521484375,32.51503840393066,41.54114521484375Q32.527048403930664,41.48094521484375,32.544848403930665,41.42214521484375Q32.562648403930666,41.36344521484375,32.586148403930665,41.30664521484375Q32.60964840393066,41.24994521484375,32.63864840393067,41.195745214843754Q32.66754840393067,41.14164521484375,32.70164840393066,41.09054521484375Q32.73584840393066,41.03954521484375,32.774748403930666,40.99204521484375Q32.81374840393066,40.94454521484375,32.857148403930665,40.90114521484375Q32.900548403930664,40.857745214843746,32.94804840393066,40.81874521484375Q32.99554840393066,40.779845214843746,33.046548403930665,40.74564521484375Q33.09764840393066,40.71154521484375,33.15174840393067,40.68264521484375Q33.20594840393066,40.65364521484375,33.26264840393066,40.63014521484375Q33.319448403930664,40.60664521484375,33.378148403930666,40.58884521484375Q33.436948403930664,40.57104521484375,33.497148403930666,40.559035214843746Q33.55734840393066,40.54705521484375,33.61854840393066,40.54103521484375Q33.67964840393066,40.53501521484375,33.74104840393066,40.53501521484375Q33.80244840393066,40.53501521484375,33.863548403930665,40.54103521484375Q33.92464840393066,40.54705521484375,33.98484840393066,40.559035214843746Q34.04514840393067,40.57104521484375,34.10384840393066,40.58884521484375Q34.16264840393066,40.60664521484375,34.21934840393067,40.63014521484375Q34.27614840393066,40.65364521484375,34.33024840393067,40.68264521484375Q34.38444840393066,40.71154521484375,34.435448403930664,40.74564521484375Q34.48654840393066,40.779845214843746,34.53404840393066,40.81874521484375Q34.581448403930665,40.857745214843746,34.62494840393067,40.90114521484375Q34.668348403930665,40.94454521484375,34.70724840393066,40.99204521484375Q34.746248403930664,41.03954521484375,34.78034840393066,41.09054521484375Q34.81444840393066,41.14164521484375,34.843448403930665,41.195745214843754Q34.872348403930665,41.24994521484375,34.895848403930664,41.30664521484375Q34.91934840393066,41.36344521484375,34.937148403930664,41.42214521484375Q34.95504840393066,41.48094521484375,34.96704840393066,41.54114521484375Q34.978948403930666,41.60134521484375,34.98504840393066,41.662545214843746Q34.99104840393066,41.72364521484375,34.99104840393066,41.78504521484375Z" fill="#FFFFFF" fill-opacity="1"/></g></g><g style="mix-blend-mode:passthrough"><path d="M40.42050522460937,38.03518035583496Q34.444805224609375,40.032170355834964,28.131705224609377,40.032170355834964Q21.818535224609377,40.032170355834964,15.842906224609376,38.03518035583496Q15.784664224609376,38.01572035583496,15.728610224609374,37.99064035583496Q15.672556224609375,37.96556035583496,15.619230224609375,37.93510035583496Q15.565904224609374,37.90465035583496,15.515820224609374,37.86912035583496Q15.465735224609375,37.83358635583496,15.419375224609375,37.79331635583496Q15.373015224609375,37.75304535583496,15.330825224609375,37.708424355834964Q15.288635224609376,37.66380335583496,15.251022224609375,37.61526235583496Q15.213405224609374,37.56672035583496,15.180735224609375,37.51472635583496Q15.148065224609375,37.46273135583496,15.120645224609374,37.40778535583496Q15.093225224609375,37.35283835583496,15.071315224609375,37.29546835583496Q15.049415224609374,37.23809935583496,15.033245224609376,37.17885835583496Q15.017065224609375,37.11961835583496,15.006775224609376,37.05907835583496Q14.996485224609374,36.99853735583496,14.992185224609376,36.93728025583496Q14.987875224609375,36.87602285583496,14.989595224609374,36.81463835583496Q14.991315224609375,36.75325385583496,14.999045224609375,36.69233335583496Q15.006765224609374,36.63141335583496,15.020435224609376,36.57154335583496Q15.034095224609375,36.51167335583496,15.053555224609376,36.45343135583496Q15.073015224609374,36.39518935583496,15.098095224609375,36.33913535583496Q15.123175224609374,36.28308135583496,15.153635224609374,36.22975535583496Q15.184085224609374,36.17642935583496,15.219615224609376,36.126345355834964Q15.255149224609376,36.07626035583496,15.295419224609375,36.02990035583496Q15.335690224609374,35.98354035583496,15.380311224609375,35.94135035583496Q15.424932224609375,35.89916035583496,15.473473224609375,35.86154735583496Q15.522015224609374,35.82393035583496,15.574009224609375,35.791260355834964Q15.626004224609375,35.75859035583496,15.680950224609376,35.73117035583496Q15.735897224609374,35.70374035583496,15.793267224609375,35.681840355834964Q15.850636224609374,35.65994035583496,15.909877224609374,35.64377035583496Q15.969117224609375,35.62759035583496,16.029657224609377,35.61730035583496Q16.090198224609374,35.60701035583496,16.151455324609376,35.60271035583496Q16.212712724609375,35.59840035583496,16.274097224609374,35.60012035583496Q16.335481624609375,35.60184035583496,16.396402224609375,35.60957035583496Q16.457322224609374,35.61729035583496,16.517192224609374,35.63096035583496Q16.577062224609374,35.64462035583496,16.635304224609374,35.66408035583496Q22.225215224609375,37.53217435583496,28.131705224609377,37.53217435583496Q34.038105224609374,37.53217435583496,39.62810522460937,35.66408035583496Q39.68630522460937,35.64462035583496,39.746205224609376,35.63096035583496Q39.80600522460938,35.61729035583496,39.86700522460937,35.60957035583496Q39.927905224609376,35.60184035583496,39.989305224609375,35.60012035583496Q40.05060522460937,35.59840035583496,40.11190522460937,35.60271035583496Q40.173205224609376,35.60701035583496,40.23370522460937,35.61730035583496Q40.29420522460937,35.62759035583496,40.35350522460938,35.64377035583496Q40.412705224609375,35.65994035583496,40.47010522460938,35.681840355834964Q40.52750522460937,35.70375035583496,40.582405224609374,35.73117035583496Q40.637405224609374,35.75859035583496,40.689405224609374,35.791260355834964Q40.74130522460938,35.82393035583496,40.78990522460937,35.86154735583496Q40.838405224609374,35.89916035583496,40.88300522460938,35.94135035583496Q40.927705224609376,35.98354035583496,40.967905224609375,36.02990035583496Q41.00820522460938,36.07626035583496,41.043705224609376,36.126345355834964Q41.07930522460937,36.17642935583496,41.10970522460937,36.22975535583496Q41.140205224609375,36.28308135583496,41.16530522460938,36.33913535583496Q41.190305224609375,36.39518935583496,41.209805224609376,36.45343135583496Q41.22930522460938,36.51167335583496,41.24290522460937,36.57154335583496Q41.25660522460937,36.63141335583496,41.26430522460937,36.69233335583496Q41.27200522460937,36.753253955834964,41.273805224609376,36.81463845583496Q41.275505224609375,36.87602295583496,41.271205224609375,36.93728035583496Q41.266905224609374,36.99853735583496,41.25660522460937,37.05907835583496Q41.24630522460937,37.11961835583496,41.230105224609375,37.17885835583496Q41.21390522460938,37.23809935583496,41.192005224609375,37.29546835583496Q41.17010522460937,37.35283835583496,41.14270522460937,37.40778535583496Q41.11530522460937,37.46273135583496,41.082605224609374,37.51472635583496Q41.05000522460938,37.56672035583496,41.01230522460938,37.61526235583496Q40.97470522460938,37.66380335583496,40.93250522460937,37.708424355834964Q40.89030522460938,37.75304535583496,40.844005224609376,37.79331635583496Q40.79760522460937,37.83358635583496,40.74750522460938,37.86912035583496Q40.69750522460937,37.90465035583496,40.644105224609376,37.93510035583496Q40.590805224609376,37.96556035583496,40.534705224609375,37.99064035583496Q40.47870522460937,38.01572035583496,40.42050522460937,38.03518035583496ZM41.27430522460938,36.84963035583496Q41.27430522460938,36.91103895583496,41.268205224609375,36.97215135583496Q41.262205224609374,37.03326435583496,41.250205224609374,37.09349335583496Q41.23830522460938,37.15372135583496,41.22040522460938,37.21248635583496Q41.20260522460937,37.27125035583496,41.17910522460937,37.327984355834964Q41.155605224609374,37.38471835583496,41.126705224609374,37.438876355834964Q41.09770522460937,37.49303335583496,41.063605224609375,37.54409335583496Q41.02950522460938,37.59515235583496,40.99050522460938,37.64262235583496Q40.951605224609374,37.69009135583496,40.90810522460937,37.73351335583496Q40.864705224609374,37.77693635583496,40.817205224609374,37.81589335583496Q40.76980522460937,37.85485035583496,40.71870522460938,37.888970355834964Q40.66770522460938,37.92308035583496,40.613505224609376,37.952030355834964Q40.559305224609375,37.98098035583496,40.502605224609376,38.004480355834964Q40.445905224609376,38.02798035583496,40.38710522460937,38.04581035583496Q40.32830522460938,38.06363035583496,40.26810522460937,38.07561035583496Q40.20790522460938,38.08759035583496,40.14680522460937,38.09361035583496Q40.08570522460937,38.09963035583496,40.02430522460938,38.09963035583496Q39.962805224609376,38.09963035583496,39.90170522460937,38.09361035583496Q39.84060522460938,38.08759035583496,39.780405224609375,38.07561035583496Q39.72020522460937,38.06363035583496,39.661405224609375,38.04581035583496Q39.60260522460938,38.02798035583496,39.54590522460937,38.004480355834964Q39.48920522460938,37.98098035583496,39.43500522460938,37.952030355834964Q39.38090522460938,37.92308035583496,39.32980522460937,37.888970355834964Q39.278705224609375,37.85485035583496,39.23130522460937,37.81589335583496Q39.18380522460937,37.77693635583496,39.140405224609374,37.73351335583496Q39.09690522460937,37.69009135583496,39.058005224609374,37.64262235583496Q39.01900522460937,37.59515235583496,38.98490522460938,37.54409335583496Q38.950805224609375,37.49303335583496,38.921905224609375,37.438876355834964Q38.89290522460938,37.38471835583496,38.86940522460937,37.327984355834964Q38.845905224609375,37.27125035583496,38.828105224609374,37.21248635583496Q38.81030522460938,37.15372135583496,38.79830522460938,37.09349335583496Q38.78630522460938,37.03326435583496,38.78030522460938,36.97215135583496Q38.77430522460938,36.91103895583496,38.77430522460938,36.84963035583496Q38.77430522460938,36.78822175583496,38.78030522460938,36.72710935583496Q38.78630522460938,36.66599635583496,38.79830522460938,36.60576735583496Q38.81030522460938,36.54553935583496,38.828105224609374,36.48677435583496Q38.845905224609375,36.428010355834964,38.86940522460937,36.37127635583496Q38.89290522460938,36.31454235583496,38.921905224609375,36.26038435583496Q38.950805224609375,36.20622735583496,38.98490522460938,36.15516735583496Q39.01900522460937,36.10410835583496,39.058005224609374,36.05663835583496Q39.09690522460937,36.00916935583496,39.140405224609374,35.965747355834964Q39.18380522460937,35.92232435583496,39.23130522460937,35.88336735583496Q39.278705224609375,35.84441035583496,39.32980522460937,35.81029035583496Q39.38090522460938,35.77618035583496,39.43500522460938,35.74723035583496Q39.48920522460938,35.71828035583496,39.54590522460937,35.69478035583496Q39.60260522460938,35.67128035583496,39.661405224609375,35.65345035583496Q39.72020522460937,35.63563035583496,39.780405224609375,35.62365035583496Q39.84060522460938,35.61167035583496,39.90170522460937,35.60565035583496Q39.962805224609376,35.59963035583496,40.02430522460938,35.59963035583496Q40.08570522460937,35.59963035583496,40.14680522460937,35.60565035583496Q40.20790522460938,35.61167035583496,40.26810522460937,35.62365035583496Q40.32830522460938,35.63563035583496,40.38710522460937,35.65345035583496Q40.445905224609376,35.67128035583496,40.502605224609376,35.69478035583496Q40.559305224609375,35.71828035583496,40.613505224609376,35.74723035583496Q40.66770522460938,35.77618035583496,40.71870522460938,35.81029035583496Q40.76980522460937,35.84441035583496,40.817205224609374,35.88336735583496Q40.864705224609374,35.92232435583496,40.90810522460937,35.965747355834964Q40.951605224609374,36.00916935583496,40.99050522460938,36.05663835583496Q41.02950522460938,36.10410835583496,41.063605224609375,36.15516735583496Q41.09770522460937,36.20622735583496,41.126705224609374,36.26038435583496Q41.155605224609374,36.31454235583496,41.17910522460937,36.37127635583496Q41.20260522460937,36.428010355834964,41.22040522460938,36.48677435583496Q41.23830522460938,36.54553935583496,41.250205224609374,36.60576735583496Q41.262205224609374,36.66599635583496,41.268205224609375,36.72710935583496Q41.27430522460938,36.78822175583496,41.27430522460938,36.84963035583496ZM17.489105224609375,36.84963035583496Q17.489105224609375,36.91103895583496,17.483085224609376,36.97215135583496Q17.477065224609376,37.03326435583496,17.465085224609375,37.09349335583496Q17.453105224609374,37.15372135583496,17.435285224609373,37.21248635583496Q17.417455224609377,37.27125035583496,17.393955224609375,37.327984355834964Q17.370455224609376,37.38471835583496,17.341505224609374,37.438876355834964Q17.312555224609376,37.49303335583496,17.278445224609374,37.54409335583496Q17.244325224609376,37.59515235583496,17.205368224609376,37.64262235583496Q17.166411224609377,37.69009135583496,17.122988224609376,37.73351335583496Q17.079566224609376,37.77693635583496,17.032097224609377,37.81589335583496Q16.984627224609376,37.85485035583496,16.933568224609374,37.888970355834964Q16.882508224609374,37.92308035583496,16.828351224609374,37.952030355834964Q16.774193224609377,37.98098035583496,16.717459224609375,38.004480355834964Q16.660725224609376,38.02798035583496,16.601961224609376,38.04581035583496Q16.543196224609375,38.06363035583496,16.482968224609376,38.07561035583496Q16.422739224609376,38.08759035583496,16.361626224609374,38.09361035583496Q16.300513824609375,38.09963035583496,16.239105224609375,38.09963035583496Q16.177696624609375,38.09963035583496,16.116584224609376,38.09361035583496Q16.055471224609374,38.08759035583496,15.995242224609376,38.07561035583496Q15.935014224609375,38.06363035583496,15.876249224609374,38.04581035583496Q15.817485224609374,38.02798035583496,15.760751224609375,38.004480355834964Q15.704017224609375,37.98098035583496,15.649859224609376,37.952030355834964Q15.595702224609376,37.92308035583496,15.544642224609374,37.888970355834964Q15.493583224609376,37.85485035583496,15.446113224609375,37.81589335583496Q15.398644224609376,37.77693635583496,15.355222224609374,37.73351335583496Q15.311799224609375,37.69009135583496,15.272842224609375,37.64262235583496Q15.233885224609375,37.59515235583496,15.199765224609376,37.54409335583496Q15.165655224609376,37.49303335583496,15.136705224609376,37.438876355834964Q15.107755224609376,37.38471835583496,15.084255224609375,37.327984355834964Q15.060755224609375,37.27125035583496,15.042925224609375,37.21248635583496Q15.025105224609375,37.15372135583496,15.013125224609375,37.09349335583496Q15.001145224609376,37.03326435583496,14.995125224609374,36.97215135583496Q14.989105224609375,36.91103895583496,14.989105224609375,36.84963035583496Q14.989105224609375,36.78822175583496,14.995125224609374,36.72710935583496Q15.001145224609376,36.66599635583496,15.013125224609375,36.60576735583496Q15.025105224609375,36.54553935583496,15.042925224609375,36.48677435583496Q15.060755224609375,36.428010355834964,15.084255224609375,36.37127635583496Q15.107755224609376,36.31454235583496,15.136705224609376,36.26038435583496Q15.165655224609376,36.20622735583496,15.199765224609376,36.15516735583496Q15.233885224609375,36.10410835583496,15.272842224609375,36.05663835583496Q15.311799224609375,36.00916935583496,15.355222224609374,35.965747355834964Q15.398644224609376,35.92232435583496,15.446113224609375,35.88336735583496Q15.493583224609376,35.84441035583496,15.544642224609374,35.81029035583496Q15.595702224609376,35.77618035583496,15.649859224609376,35.74723035583496Q15.704017224609375,35.71828035583496,15.760751224609375,35.69478035583496Q15.817485224609374,35.67128035583496,15.876249224609374,35.65345035583496Q15.935014224609375,35.63563035583496,15.995242224609376,35.62365035583496Q16.055471224609374,35.61167035583496,16.116584224609376,35.60565035583496Q16.177696624609375,35.59963035583496,16.239105224609375,35.59963035583496Q16.300513824609375,35.59963035583496,16.361626224609374,35.60565035583496Q16.422739224609376,35.61167035583496,16.482968224609376,35.62365035583496Q16.543196224609375,35.63563035583496,16.601961224609376,35.65345035583496Q16.660725224609376,35.67128035583496,16.717459224609375,35.69478035583496Q16.774193224609377,35.71828035583496,16.828351224609374,35.74723035583496Q16.882508224609374,35.77618035583496,16.933568224609374,35.81029035583496Q16.984627224609376,35.84441035583496,17.032097224609377,35.88336735583496Q17.079566224609376,35.92232435583496,17.122988224609376,35.965747355834964Q17.166411224609377,36.00916935583496,17.205368224609376,36.05663835583496Q17.244325224609376,36.10410835583496,17.278445224609374,36.15516735583496Q17.312555224609376,36.20622735583496,17.341505224609374,36.26038435583496Q17.370455224609376,36.31454235583496,17.393955224609375,36.37127635583496Q17.417455224609377,36.428010355834964,17.435285224609373,36.48677435583496Q17.453105224609374,36.54553935583496,17.465085224609375,36.60576735583496Q17.477065224609376,36.66599635583496,17.483085224609376,36.72710935583496Q17.489105224609375,36.78822175583496,17.489105224609375,36.84963035583496Z" fill="#FFFFFF" fill-opacity="1"/></g></g></g></g></svg>