<svg xmlns="http://www.w3.org/2000/svg" xmlns:xlink="http://www.w3.org/1999/xlink" fill="none" version="1.1" width="58" height="58" viewBox="0 0 58 58"><g style="mix-blend-mode:passthrough"><g style="mix-blend-mode:passthrough"><g style="mix-blend-mode:passthrough"><g style="mix-blend-mode:passthrough"><g style="mix-blend-mode:passthrough"><path d="M34.99102932128906,22.162336111068726L34.99102932128906,30.566406111068726Q34.99102932128906,30.627816111068725,34.98500932128906,30.688926111068724Q34.97898932128906,30.750036111068724,34.96700932128906,30.810266111068728Q34.95502932128906,30.870496111068725,34.937199321289064,30.929256111068725Q34.919379321289064,30.988026111068727,34.89587932128906,31.044756111068725Q34.87237932128906,31.101496111068727,34.843429321289065,31.155656111068726Q34.81447932128906,31.209806111068726,34.78035932128906,31.260866111068726Q34.74624932128906,31.311926111068725,34.70728932128906,31.359396111068726Q34.668329321289065,31.406866111068723,34.62490932128906,31.450286111068728Q34.58148932128906,31.493716111068725,34.534019321289065,31.532666111068725Q34.48654932128906,31.571626111068724,34.43548932128906,31.605746111068726Q34.38442932128906,31.639856111068724,34.330269321289066,31.668806111068726Q34.27611932128906,31.697756111068728,34.21937932128906,31.721256111068726Q34.16264932128907,31.744756111068725,34.103879321289064,31.762576111068725Q34.045119321289064,31.780406111068725,33.98488932128906,31.792386111068726Q33.92465932128906,31.804366111068724,33.863549321289064,31.810386111068723Q33.802439321289064,31.816406111068726,33.74102932128906,31.816406111068726L25.336929321289062,31.816406111068726Q25.275520721289062,31.816406111068726,25.214408321289064,31.810386111068723Q25.15329532128906,31.804366111068724,25.09306632128906,31.792386111068726Q25.032838321289063,31.780406111068725,24.97407332128906,31.762576111068725Q24.91530932128906,31.744756111068725,24.858575321289063,31.721256111068726Q24.80184132128906,31.697756111068728,24.747683321289063,31.668806111068726Q24.693526321289063,31.639856111068724,24.642466321289064,31.605746111068726Q24.59140732128906,31.571626111068724,24.54393732128906,31.532666111068725Q24.49646832128906,31.493716111068725,24.45304632128906,31.450286111068728Q24.40962332128906,31.406866111068723,24.37066632128906,31.359396111068726Q24.33170932128906,31.311926111068725,24.297589321289063,31.260866111068726Q24.26347932128906,31.209806111068726,24.234529321289063,31.155656111068726Q24.20557932128906,31.101496111068727,24.182079321289063,31.044756111068725Q24.15857932128906,30.988026111068727,24.140749321289064,30.929256111068725Q24.122929321289064,30.870496111068725,24.110949321289063,30.810266111068728Q24.09896932128906,30.750036111068724,24.092949321289062,30.688926111068724Q24.086929321289062,30.627816111068725,24.086929321289062,30.566406111068726Q24.086929321289062,30.504996111068728,24.092949321289062,30.443886111068725Q24.09896932128906,30.382776111068726,24.110949321289063,30.322546111068725Q24.122929321289064,30.262316111068728,24.140749321289064,30.203546111068725Q24.15857932128906,30.144786111068726,24.182079321289063,30.088046111068724Q24.20557932128906,30.031316111068726,24.234529321289063,29.977156111068727Q24.26347932128906,29.923006111068727,24.297589321289063,29.871946111068723Q24.33170932128906,29.820886111068724,24.37066632128906,29.773416111068727Q24.40962332128906,29.725946111068726,24.45304632128906,29.682526111068725Q24.49646832128906,29.639096111068724,24.54393732128906,29.600146111068725Q24.59140732128906,29.561186111068725,24.642466321289064,29.527066111068727Q24.693526321289063,29.492956111068725,24.747683321289063,29.464006111068727Q24.80184132128906,29.435056111068725,24.858575321289063,29.411556111068727Q24.91530932128906,29.388056111068725,24.97407332128906,29.370226111068725Q25.032838321289063,29.352406111068724,25.09306632128906,29.340426111068727Q25.15329532128906,29.328446111068725,25.214408321289064,29.322426111068726Q25.275520721289062,29.316406111068726,25.336929321289062,29.316406111068726L33.74102932128906,29.316406111068726L33.74102932128906,30.566406111068726L32.49102932128906,30.566406111068726L32.49102932128906,22.162336111068726Q32.49102932128906,22.100927511068726,32.49704932128906,22.039815111068727Q32.50306932128906,21.978702111068724,32.51504932128906,21.918473111068725Q32.52702932128906,21.858245111068726,32.544849321289064,21.799480111068725Q32.56267932128906,21.740716111068725,32.586179321289066,21.683982111068726Q32.609679321289065,21.627248111068724,32.63862932128906,21.573090111068726Q32.66757932128906,21.518933111068726,32.70168932128907,21.467873111068727Q32.73580932128906,21.416814111068724,32.774769321289064,21.369344111068724Q32.813719321289064,21.321875111068724,32.857149321289064,21.278453111068725Q32.90056932128906,21.235030111068724,32.94803932128906,21.196073111068724Q32.99550932128906,21.157116111068724,33.04656932128906,21.122996111068726Q33.09762932128906,21.088886111068724,33.15177932128906,21.059936111068726Q33.205939321289065,21.030986111068724,33.26266932128906,21.007486111068726Q33.319409321289065,20.983986111068724,33.378169321289064,20.966156111068727Q33.43693932128906,20.948336111068727,33.497169321289064,20.936356111068726Q33.557389321289065,20.924376111068725,33.61850932128906,20.918356111068725Q33.67961932128906,20.912336111068726,33.74102932128906,20.912336111068726Q33.802439321289064,20.912336111068726,33.863549321289064,20.918356111068725Q33.92465932128906,20.924376111068725,33.98488932128906,20.936356111068726Q34.045119321289064,20.948336111068727,34.103879321289064,20.966156111068727Q34.16264932128907,20.983986111068724,34.21937932128906,21.007486111068726Q34.27611932128906,21.030986111068724,34.330269321289066,21.059936111068726Q34.38442932128906,21.088886111068724,34.43548932128906,21.122996111068726Q34.48654932128906,21.157116111068724,34.534019321289065,21.196073111068724Q34.58148932128906,21.235030111068724,34.62490932128906,21.278453111068725Q34.668329321289065,21.321875111068724,34.70728932128906,21.369344111068724Q34.74624932128906,21.416814111068724,34.78035932128906,21.467873111068727Q34.81447932128906,21.518933111068726,34.843429321289065,21.573090111068726Q34.87237932128906,21.627248111068724,34.89587932128906,21.683982111068726Q34.919379321289064,21.740716111068725,34.937199321289064,21.799480111068725Q34.95502932128906,21.858245111068726,34.96700932128906,21.918473111068725Q34.97898932128906,21.978702111068724,34.98500932128906,22.039815111068727Q34.99102932128906,22.100927511068726,34.99102932128906,22.162336111068726ZM34.99102932128906,22.162336111068726Q34.99102932128906,22.223744711068726,34.98500932128906,22.284857111068725Q34.97898932128906,22.345970111068727,34.96700932128906,22.406199111068727Q34.95502932128906,22.466427111068725,34.937199321289064,22.525192111068726Q34.919379321289064,22.583956111068726,34.89587932128906,22.640690111068725Q34.87237932128906,22.697424111068727,34.843429321289065,22.751582111068725Q34.81447932128906,22.805739111068725,34.78035932128906,22.856799111068725Q34.74624932128906,22.907858111068727,34.70728932128906,22.955328111068727Q34.668329321289065,23.002797111068727,34.62490932128906,23.046219111068726Q34.58148932128906,23.089642111068727,34.534019321289065,23.128599111068727Q34.48654932128906,23.167556111068727,34.43548932128906,23.201676111068725Q34.38442932128906,23.235786111068727,34.330269321289066,23.264736111068725Q34.27611932128906,23.293686111068727,34.21937932128906,23.317186111068725Q34.16264932128907,23.340686111068727,34.103879321289064,23.358516111068724Q34.045119321289064,23.376336111068724,33.98488932128906,23.388316111068725Q33.92465932128906,23.400296111068727,33.863549321289064,23.406316111068726Q33.802439321289064,23.412336111068726,33.74102932128906,23.412336111068726Q33.67961932128906,23.412336111068726,33.61850932128906,23.406316111068726Q33.557389321289065,23.400296111068727,33.497169321289064,23.388316111068725Q33.43693932128906,23.376336111068724,33.378169321289064,23.358516111068724Q33.319409321289065,23.340686111068727,33.26266932128906,23.317186111068725Q33.205939321289065,23.293686111068727,33.15177932128906,23.264736111068725Q33.09762932128906,23.235786111068727,33.04656932128906,23.201676111068725Q32.99550932128906,23.167556111068727,32.94803932128906,23.128599111068727Q32.90056932128906,23.089642111068727,32.857149321289064,23.046219111068726Q32.813719321289064,23.002797111068727,32.774769321289064,22.955328111068727Q32.73580932128906,22.907858111068727,32.70168932128907,22.856799111068725Q32.66757932128906,22.805739111068725,32.63862932128906,22.751582111068725Q32.609679321289065,22.697424111068727,32.586179321289066,22.640690111068725Q32.56267932128906,22.583956111068726,32.544849321289064,22.525192111068726Q32.52702932128906,22.466427111068725,32.51504932128906,22.406199111068727Q32.50306932128906,22.345970111068727,32.49704932128906,22.284857111068725Q32.49102932128906,22.223744711068726,32.49102932128906,22.162336111068726Q32.49102932128906,22.100927511068726,32.49704932128906,22.039815111068727Q32.50306932128906,21.978702111068724,32.51504932128906,21.918473111068725Q32.52702932128906,21.858245111068726,32.544849321289064,21.799480111068725Q32.56267932128906,21.740716111068725,32.586179321289066,21.683982111068726Q32.609679321289065,21.627248111068724,32.63862932128906,21.573090111068726Q32.66757932128906,21.518933111068726,32.70168932128907,21.467873111068727Q32.73580932128906,21.416814111068724,32.774769321289064,21.369344111068724Q32.813719321289064,21.321875111068724,32.857149321289064,21.278453111068725Q32.90056932128906,21.235030111068724,32.94803932128906,21.196073111068724Q32.99550932128906,21.157116111068724,33.04656932128906,21.122996111068726Q33.09762932128906,21.088886111068724,33.15177932128906,21.059936111068726Q33.205939321289065,21.030986111068724,33.26266932128906,21.007486111068726Q33.319409321289065,20.983986111068724,33.378169321289064,20.966156111068727Q33.43693932128906,20.948336111068727,33.497169321289064,20.936356111068726Q33.557389321289065,20.924376111068725,33.61850932128906,20.918356111068725Q33.67961932128906,20.912336111068726,33.74102932128906,20.912336111068726Q33.802439321289064,20.912336111068726,33.863549321289064,20.918356111068725Q33.92465932128906,20.924376111068725,33.98488932128906,20.936356111068726Q34.045119321289064,20.948336111068727,34.103879321289064,20.966156111068727Q34.16264932128907,20.983986111068724,34.21937932128906,21.007486111068726Q34.27611932128906,21.030986111068724,34.330269321289066,21.059936111068726Q34.38442932128906,21.088886111068724,34.43548932128906,21.122996111068726Q34.48654932128906,21.157116111068724,34.534019321289065,21.196073111068724Q34.58148932128906,21.235030111068724,34.62490932128906,21.278453111068725Q34.668329321289065,21.321875111068724,34.70728932128906,21.369344111068724Q34.74624932128906,21.416814111068724,34.78035932128906,21.467873111068727Q34.81447932128906,21.518933111068726,34.843429321289065,21.573090111068726Q34.87237932128906,21.627248111068724,34.89587932128906,21.683982111068726Q34.919379321289064,21.740716111068725,34.937199321289064,21.799480111068725Q34.95502932128906,21.858245111068726,34.96700932128906,21.918473111068725Q34.97898932128906,21.978702111068724,34.98500932128906,22.039815111068727Q34.99102932128906,22.100927511068726,34.99102932128906,22.162336111068726ZM26.586929321289062,30.566406111068726Q26.586929321289062,30.627816111068725,26.580909321289063,30.688926111068724Q26.574889321289064,30.750036111068724,26.562909321289062,30.810266111068728Q26.55092932128906,30.870496111068725,26.53310932128906,30.929256111068725Q26.515279321289064,30.988026111068727,26.491779321289062,31.044756111068725Q26.468279321289064,31.101496111068727,26.439329321289062,31.155656111068726Q26.410379321289064,31.209806111068726,26.37626932128906,31.260866111068726Q26.342149321289064,31.311926111068725,26.303192321289064,31.359396111068726Q26.264235321289064,31.406866111068723,26.220812321289063,31.450286111068728Q26.177390321289064,31.493716111068725,26.129921321289064,31.532666111068725Q26.082451321289064,31.571626111068724,26.03139232128906,31.605746111068726Q25.980332321289062,31.639856111068724,25.92617532128906,31.668806111068726Q25.872017321289064,31.697756111068728,25.815283321289062,31.721256111068726Q25.758549321289063,31.744756111068725,25.699785321289063,31.762576111068725Q25.641020321289062,31.780406111068725,25.580792321289064,31.792386111068726Q25.520563321289064,31.804366111068724,25.45945032128906,31.810386111068723Q25.398337921289063,31.816406111068726,25.336929321289062,31.816406111068726Q25.275520721289062,31.816406111068726,25.214408321289064,31.810386111068723Q25.15329532128906,31.804366111068724,25.09306632128906,31.792386111068726Q25.032838321289063,31.780406111068725,24.97407332128906,31.762576111068725Q24.91530932128906,31.744756111068725,24.858575321289063,31.721256111068726Q24.80184132128906,31.697756111068728,24.747683321289063,31.668806111068726Q24.693526321289063,31.639856111068724,24.642466321289064,31.605746111068726Q24.59140732128906,31.571626111068724,24.54393732128906,31.532666111068725Q24.49646832128906,31.493716111068725,24.45304632128906,31.450286111068728Q24.40962332128906,31.406866111068723,24.37066632128906,31.359396111068726Q24.33170932128906,31.311926111068725,24.297589321289063,31.260866111068726Q24.26347932128906,31.209806111068726,24.234529321289063,31.155656111068726Q24.20557932128906,31.101496111068727,24.182079321289063,31.044756111068725Q24.15857932128906,30.988026111068727,24.140749321289064,30.929256111068725Q24.122929321289064,30.870496111068725,24.110949321289063,30.810266111068728Q24.09896932128906,30.750036111068724,24.092949321289062,30.688926111068724Q24.086929321289062,30.627816111068725,24.086929321289062,30.566406111068726Q24.086929321289062,30.504996111068728,24.092949321289062,30.443886111068725Q24.09896932128906,30.382776111068726,24.110949321289063,30.322546111068725Q24.122929321289064,30.262316111068728,24.140749321289064,30.203546111068725Q24.15857932128906,30.144786111068726,24.182079321289063,30.088046111068724Q24.20557932128906,30.031316111068726,24.234529321289063,29.977156111068727Q24.26347932128906,29.923006111068727,24.297589321289063,29.871946111068723Q24.33170932128906,29.820886111068724,24.37066632128906,29.773416111068727Q24.40962332128906,29.725946111068726,24.45304632128906,29.682526111068725Q24.49646832128906,29.639096111068724,24.54393732128906,29.600146111068725Q24.59140732128906,29.561186111068725,24.642466321289064,29.527066111068727Q24.693526321289063,29.492956111068725,24.747683321289063,29.464006111068727Q24.80184132128906,29.435056111068725,24.858575321289063,29.411556111068727Q24.91530932128906,29.388056111068725,24.97407332128906,29.370226111068725Q25.032838321289063,29.352406111068724,25.09306632128906,29.340426111068727Q25.15329532128906,29.328446111068725,25.214408321289064,29.322426111068726Q25.275520721289062,29.316406111068726,25.336929321289062,29.316406111068726Q25.398337921289063,29.316406111068726,25.45945032128906,29.322426111068726Q25.520563321289064,29.328446111068725,25.580792321289064,29.340426111068727Q25.641020321289062,29.352406111068724,25.699785321289063,29.370226111068725Q25.758549321289063,29.388056111068725,25.815283321289062,29.411556111068727Q25.872017321289064,29.435056111068725,25.92617532128906,29.464006111068727Q25.980332321289062,29.492956111068725,26.03139232128906,29.527066111068727Q26.082451321289064,29.561186111068725,26.129921321289064,29.600146111068725Q26.177390321289064,29.639096111068724,26.220812321289063,29.682526111068725Q26.264235321289064,29.725946111068726,26.303192321289064,29.773416111068727Q26.342149321289064,29.820886111068724,26.37626932128906,29.871946111068723Q26.410379321289064,29.923006111068727,26.439329321289062,29.977156111068727Q26.468279321289064,30.031316111068726,26.491779321289062,30.088046111068724Q26.515279321289064,30.144786111068726,26.53310932128906,30.203546111068725Q26.55092932128906,30.262316111068728,26.562909321289062,30.322546111068725Q26.574889321289064,30.382776111068726,26.580909321289063,30.443886111068725Q26.586929321289062,30.504996111068728,26.586929321289062,30.566406111068726Z" fill="#FFFFFF" fill-opacity="1"/></g><g style="mix-blend-mode:passthrough"><path d="M23.406239033325196,18.46384954394531L34.6249560333252,29.682532543945314Q34.668356033325196,29.725932543945312,34.707256033325194,29.77343254394531Q34.746256033325196,29.82093254394531,34.78035603332519,29.871932543945313Q34.81445603332519,29.92303254394531,34.8434560333252,29.977132543945313Q34.8723560333252,30.03133254394531,34.895856033325195,30.08803254394531Q34.919356033325194,30.144832543945313,34.937156033325195,30.203532543945315Q34.95505603332519,30.262332543945313,34.96705603332519,30.322532543945314Q34.9789560333252,30.382732543945313,34.98505603332519,30.443932543945312Q34.991056033325194,30.505032543945312,34.991056033325194,30.56643254394531Q34.991056033325194,30.62783254394531,34.98505603332519,30.688932543945313Q34.9789560333252,30.750032543945313,34.96705603332519,30.81023254394531Q34.95505603332519,30.870532543945313,34.9372560333252,30.92923254394531Q34.919356033325194,30.988032543945312,34.895856033325195,31.04473254394531Q34.8723560333252,31.10153254394531,34.8434560333252,31.155632543945313Q34.81445603332519,31.20983254394531,34.78035603332519,31.260832543945313Q34.746256033325196,31.31193254394531,34.707256033325194,31.35943254394531Q34.668356033325196,31.406832543945313,34.6249560333252,31.450332543945315Q34.581456033325196,31.493732543945313,34.53405603332519,31.53263254394531Q34.48655603332519,31.571632543945313,34.435456033325195,31.60573254394531Q34.38445603332519,31.63983254394531,34.3302560333252,31.668832543945314Q34.276156033325194,31.697732543945314,34.2193560333252,31.721232543945312Q34.16265603332519,31.74473254394531,34.103856033325194,31.762532543945312Q34.0451560333252,31.780432543945313,33.984856033325194,31.79243254394531Q33.92465603332519,31.804332543945314,33.863556033325196,31.81043254394531Q33.80245603332519,31.81643254394531,33.741056033325194,31.81643254394531Q33.679656033325195,31.81643254394531,33.61855603332519,31.81043254394531Q33.55735603332519,31.804332543945314,33.4971560333252,31.79243254394531Q33.436956033325195,31.780432543945313,33.3781560333252,31.762632543945312Q33.319456033325196,31.74473254394531,33.26265603332519,31.721232543945312Q33.205956033325194,31.697732543945314,33.1517560333252,31.668832543945314Q33.097656033325194,31.63983254394531,33.046556033325196,31.60573254394531Q32.995556033325194,31.571632543945313,32.948056033325194,31.53263254394531Q32.900556033325195,31.493732543945313,32.8571560333252,31.450332543945315L21.638473033325194,20.231615543945313Q21.595050033325194,20.188193543945314,21.556093033325194,20.140724543945314Q21.517136033325194,20.093254543945314,21.483016033325196,20.04219554394531Q21.448906033325194,19.991135543945312,21.419956033325196,19.93697854394531Q21.391006033325194,19.882820543945314,21.367506033325196,19.826086543945312Q21.344006033325194,19.769352543945313,21.326176033325197,19.710588543945313Q21.308356033325197,19.651823543945312,21.296376033325195,19.591595543945314Q21.284396033325194,19.531366543945314,21.278376033325195,19.47025354394531Q21.272356033325195,19.409141143945313,21.272356033325195,19.347732543945312Q21.272356033325195,19.286323943945312,21.278376033325195,19.225211543945314Q21.284396033325194,19.16409854394531,21.296376033325195,19.10386954394531Q21.308356033325197,19.043641543945313,21.326176033325197,18.98487654394531Q21.344006033325194,18.92611254394531,21.367506033325196,18.869378543945313Q21.391006033325194,18.81264454394531,21.419956033325196,18.758486543945313Q21.448906033325194,18.704329543945313,21.483016033325196,18.653269543945314Q21.517136033325194,18.60221054394531,21.556093033325194,18.55474054394531Q21.595050033325194,18.50727154394531,21.638473033325194,18.46384954394531Q21.681895033325194,18.42042654394531,21.729364033325194,18.38146954394531Q21.776834033325194,18.34251254394531,21.827893033325196,18.308392543945313Q21.878953033325196,18.27428254394531,21.933110033325196,18.245332543945313Q21.987268033325194,18.21638254394531,22.044002033325196,18.192882543945313Q22.100736033325195,18.16938254394531,22.159500033325195,18.151552543945314Q22.218265033325196,18.133732543945314,22.278493033325194,18.121752543945313Q22.338722033325194,18.10977254394531,22.399835033325196,18.103752543945312Q22.460947433325195,18.097732543945312,22.522356033325195,18.097732543945312Q22.583764633325195,18.097732543945312,22.644877033325194,18.103752543945312Q22.705990033325197,18.10977254394531,22.766219033325196,18.121752543945313Q22.826447033325195,18.133732543945314,22.885212033325196,18.151552543945314Q22.943976033325196,18.16938254394531,23.000710033325195,18.192882543945313Q23.057444033325197,18.21638254394531,23.111602033325195,18.245332543945313Q23.165759033325195,18.27428254394531,23.216819033325194,18.308392543945313Q23.267878033325196,18.34251254394531,23.315348033325197,18.38146954394531Q23.362817033325197,18.42042654394531,23.406239033325196,18.46384954394531ZM23.772356033325195,19.347732543945312Q23.772356033325195,19.409141143945313,23.766336033325196,19.47025354394531Q23.760316033325196,19.531366543945314,23.748336033325195,19.591595543945314Q23.736356033325194,19.651823543945312,23.718536033325194,19.710588543945313Q23.700706033325197,19.769352543945313,23.677206033325195,19.826086543945312Q23.653706033325197,19.882820543945314,23.624756033325195,19.93697854394531Q23.595806033325196,19.991135543945312,23.561696033325195,20.04219554394531Q23.527576033325197,20.093254543945314,23.488619033325197,20.140724543945314Q23.449662033325197,20.188193543945314,23.406239033325196,20.231615543945313Q23.362817033325197,20.275038543945314,23.315348033325197,20.313995543945314Q23.267878033325196,20.352952543945314,23.216819033325194,20.38707254394531Q23.165759033325195,20.421182543945314,23.111602033325195,20.450132543945312Q23.057444033325197,20.479082543945314,23.000710033325195,20.502582543945312Q22.943976033325196,20.526082543945314,22.885212033325196,20.54391254394531Q22.826447033325195,20.56173254394531,22.766219033325196,20.573712543945312Q22.705990033325197,20.585692543945314,22.644877033325194,20.591712543945313Q22.583764633325195,20.597732543945312,22.522356033325195,20.597732543945312Q22.460947433325195,20.597732543945312,22.399835033325196,20.591712543945313Q22.338722033325194,20.585692543945314,22.278493033325194,20.573712543945312Q22.218265033325196,20.56173254394531,22.159500033325195,20.54391254394531Q22.100736033325195,20.526082543945314,22.044002033325196,20.502582543945312Q21.987268033325194,20.479082543945314,21.933110033325196,20.450132543945312Q21.878953033325196,20.421182543945314,21.827893033325196,20.38707254394531Q21.776834033325194,20.352952543945314,21.729364033325194,20.313995543945314Q21.681895033325194,20.275038543945314,21.638473033325194,20.231615543945313Q21.595050033325194,20.188193543945314,21.556093033325194,20.140724543945314Q21.517136033325194,20.093254543945314,21.483016033325196,20.04219554394531Q21.448906033325194,19.991135543945312,21.419956033325196,19.93697854394531Q21.391006033325194,19.882820543945314,21.367506033325196,19.826086543945312Q21.344006033325194,19.769352543945313,21.326176033325197,19.710588543945313Q21.308356033325197,19.651823543945312,21.296376033325195,19.591595543945314Q21.284396033325194,19.531366543945314,21.278376033325195,19.47025354394531Q21.272356033325195,19.409141143945313,21.272356033325195,19.347732543945312Q21.272356033325195,19.286323943945312,21.278376033325195,19.225211543945314Q21.284396033325194,19.16409854394531,21.296376033325195,19.10386954394531Q21.308356033325197,19.043641543945313,21.326176033325197,18.98487654394531Q21.344006033325194,18.92611254394531,21.367506033325196,18.869378543945313Q21.391006033325194,18.81264454394531,21.419956033325196,18.758486543945313Q21.448906033325194,18.704329543945313,21.483016033325196,18.653269543945314Q21.517136033325194,18.60221054394531,21.556093033325194,18.55474054394531Q21.595050033325194,18.50727154394531,21.638473033325194,18.46384954394531Q21.681895033325194,18.42042654394531,21.729364033325194,18.38146954394531Q21.776834033325194,18.34251254394531,21.827893033325196,18.308392543945313Q21.878953033325196,18.27428254394531,21.933110033325196,18.245332543945313Q21.987268033325194,18.21638254394531,22.044002033325196,18.192882543945313Q22.100736033325195,18.16938254394531,22.159500033325195,18.151552543945314Q22.218265033325196,18.133732543945314,22.278493033325194,18.121752543945313Q22.338722033325194,18.10977254394531,22.399835033325196,18.103752543945312Q22.460947433325195,18.097732543945312,22.522356033325195,18.097732543945312Q22.583764633325195,18.097732543945312,22.644877033325194,18.103752543945312Q22.705990033325197,18.10977254394531,22.766219033325196,18.121752543945313Q22.826447033325195,18.133732543945314,22.885212033325196,18.151552543945314Q22.943976033325196,18.16938254394531,23.000710033325195,18.192882543945313Q23.057444033325197,18.21638254394531,23.111602033325195,18.245332543945313Q23.165759033325195,18.27428254394531,23.216819033325194,18.308392543945313Q23.267878033325196,18.34251254394531,23.315348033325197,18.38146954394531Q23.362817033325197,18.42042654394531,23.406239033325196,18.46384954394531Q23.449662033325197,18.50727154394531,23.488619033325197,18.55474054394531Q23.527576033325197,18.60221054394531,23.561696033325195,18.653269543945314Q23.595806033325196,18.704329543945313,23.624756033325195,18.758486543945313Q23.653706033325197,18.81264454394531,23.677206033325195,18.869378543945313Q23.700706033325197,18.92611254394531,23.718536033325194,18.98487654394531Q23.736356033325194,19.043641543945313,23.748336033325195,19.10386954394531Q23.760316033325196,19.16409854394531,23.766336033325196,19.225211543945314Q23.772356033325195,19.286323943945312,23.772356033325195,19.347732543945312ZM34.991056033325194,30.56643254394531Q34.991056033325194,30.62783254394531,34.98505603332519,30.688932543945313Q34.9789560333252,30.750032543945313,34.96705603332519,30.81023254394531Q34.95505603332519,30.870532543945313,34.9372560333252,30.92923254394531Q34.919356033325194,30.988032543945312,34.895856033325195,31.04473254394531Q34.8723560333252,31.10153254394531,34.8434560333252,31.155632543945313Q34.81445603332519,31.20983254394531,34.78035603332519,31.260832543945313Q34.746256033325196,31.31193254394531,34.707256033325194,31.35943254394531Q34.668356033325196,31.406832543945313,34.6249560333252,31.450332543945315Q34.581456033325196,31.493732543945313,34.53405603332519,31.53263254394531Q34.48655603332519,31.571632543945313,34.435456033325195,31.60573254394531Q34.38445603332519,31.63983254394531,34.3302560333252,31.668832543945314Q34.276156033325194,31.697732543945314,34.2193560333252,31.721232543945312Q34.16265603332519,31.74473254394531,34.103856033325194,31.762532543945312Q34.0451560333252,31.780432543945313,33.984856033325194,31.79243254394531Q33.92465603332519,31.804332543945314,33.863556033325196,31.81043254394531Q33.80245603332519,31.81643254394531,33.741056033325194,31.81643254394531Q33.679656033325195,31.81643254394531,33.61855603332519,31.81043254394531Q33.55735603332519,31.804332543945314,33.4971560333252,31.79243254394531Q33.436956033325195,31.780432543945313,33.3781560333252,31.762632543945312Q33.319456033325196,31.74473254394531,33.26265603332519,31.721232543945312Q33.205956033325194,31.697732543945314,33.1517560333252,31.668832543945314Q33.097656033325194,31.63983254394531,33.046556033325196,31.60573254394531Q32.995556033325194,31.571632543945313,32.948056033325194,31.53263254394531Q32.900556033325195,31.493732543945313,32.8571560333252,31.450332543945315Q32.81375603332519,31.406832543945313,32.7747560333252,31.35943254394531Q32.73585603332519,31.31193254394531,32.70165603332519,31.260832543945313Q32.6675560333252,31.20983254394531,32.6386560333252,31.155632543945313Q32.609656033325194,31.10153254394531,32.586156033325196,31.04473254394531Q32.5626560333252,30.988032543945312,32.544856033325196,30.92923254394531Q32.527056033325195,30.870532543945313,32.51504603332519,30.81023254394531Q32.5030660333252,30.750032543945313,32.4970460333252,30.688932543945313Q32.4910260333252,30.62783254394531,32.4910260333252,30.56643254394531Q32.4910260333252,30.505032543945312,32.4970460333252,30.443932543945312Q32.5030660333252,30.382732543945313,32.51504603332519,30.322532543945314Q32.527056033325195,30.262332543945313,32.544856033325196,30.203532543945315Q32.5626560333252,30.144832543945313,32.586156033325196,30.08803254394531Q32.609656033325194,30.03133254394531,32.6386560333252,29.977132543945313Q32.6675560333252,29.92303254394531,32.70165603332519,29.871932543945313Q32.73585603332519,29.82093254394531,32.7747560333252,29.77343254394531Q32.81375603332519,29.725932543945312,32.8571560333252,29.682532543945314Q32.900556033325195,29.639132543945312,32.948056033325194,29.600132543945314Q32.995556033325194,29.561232543945312,33.046556033325196,29.52703254394531Q33.097656033325194,29.492932543945315,33.1517560333252,29.464032543945315Q33.205956033325194,29.43503254394531,33.26265603332519,29.411532543945313Q33.319456033325196,29.388032543945315,33.3781560333252,29.370232543945313Q33.436956033325195,29.352432543945312,33.4971560333252,29.340422543945312Q33.55735603332519,29.328442543945314,33.61855603332519,29.322422543945315Q33.679656033325195,29.316402543945312,33.741056033325194,29.316402543945312Q33.80245603332519,29.316402543945312,33.863556033325196,29.322422543945315Q33.92465603332519,29.328442543945314,33.984856033325194,29.340422543945312Q34.0451560333252,29.352432543945312,34.103856033325194,29.370232543945313Q34.16265603332519,29.388032543945315,34.2193560333252,29.411532543945313Q34.276156033325194,29.43503254394531,34.3302560333252,29.464032543945315Q34.38445603332519,29.492932543945315,34.435456033325195,29.52703254394531Q34.48655603332519,29.561232543945312,34.53405603332519,29.600132543945314Q34.581456033325196,29.639132543945312,34.6249560333252,29.682532543945314Q34.668356033325196,29.725932543945312,34.707256033325194,29.77343254394531Q34.746256033325196,29.82093254394531,34.78035603332519,29.871932543945313Q34.81445603332519,29.92303254394531,34.8434560333252,29.977132543945313Q34.8723560333252,30.03133254394531,34.895856033325195,30.08803254394531Q34.919356033325194,30.144832543945313,34.937156033325195,30.203532543945315Q34.95505603332519,30.262332543945313,34.96705603332519,30.322532543945314Q34.9789560333252,30.382732543945313,34.98505603332519,30.443932543945312Q34.991056033325194,30.505032543945312,34.991056033325194,30.56643254394531Z" fill="#FFFFFF" fill-opacity="1"/></g></g><g style="mix-blend-mode:passthrough"><path d="M40.4205128540039,38.03519561462402Q34.44481285400391,40.03218561462403,28.131712854003908,40.03218561462403Q21.81854285400391,40.03218561462403,15.842913854003907,38.03519561462402Q15.784671854003907,38.01573561462402,15.728617854003906,37.990655614624025Q15.672563854003906,37.96557561462402,15.619237854003906,37.935115614624024Q15.565911854003906,37.90466561462402,15.515827854003906,37.86913561462402Q15.465742854003906,37.83360161462402,15.419382854003906,37.79333161462402Q15.373022854003906,37.753060614624026,15.330832854003907,37.70843961462403Q15.288642854003907,37.66381861462402,15.251029854003907,37.61527761462402Q15.213412854003906,37.56673561462402,15.180742854003906,37.51474161462402Q15.148072854003907,37.462746614624024,15.120652854003906,37.40780061462402Q15.093232854003906,37.352853614624024,15.071322854003906,37.295483614624025Q15.049422854003906,37.238114614624024,15.033252854003907,37.178873614624024Q15.017072854003906,37.11963361462402,15.006782854003907,37.059093614624025Q14.996492854003906,36.998552614624025,14.992192854003907,36.937295514624026Q14.987882854003907,36.87603811462402,14.989602854003905,36.81465361462402Q14.991322854003906,36.753269114624025,14.999052854003907,36.692348614624024Q15.006772854003906,36.63142861462402,15.020442854003907,36.571558614624024Q15.034102854003907,36.51168861462402,15.053562854003907,36.45344661462402Q15.073022854003906,36.39520461462402,15.098102854003907,36.339150614624025Q15.123182854003906,36.28309661462402,15.153642854003905,36.22977061462402Q15.184092854003906,36.176444614624025,15.219622854003907,36.126360614624026Q15.255156854003907,36.07627561462402,15.295426854003907,36.029915614624024Q15.335697854003906,35.983555614624024,15.380318854003907,35.941365614624026Q15.424939854003906,35.89917561462402,15.473480854003906,35.86156261462402Q15.522022854003906,35.82394561462402,15.574016854003906,35.79127561462403Q15.626011854003906,35.758605614624024,15.680957854003907,35.731185614624025Q15.735904854003905,35.70375561462402,15.793274854003906,35.68185561462403Q15.850643854003906,35.659955614624025,15.909884854003906,35.64378561462402Q15.969124854003907,35.627605614624024,16.029664854003908,35.617315614624026Q16.090205854003905,35.60702561462402,16.151462954003907,35.60272561462402Q16.212720354003906,35.598415614624024,16.274104854003905,35.60013561462402Q16.335489254003907,35.60185561462402,16.396409854003906,35.609585614624024Q16.457329854003905,35.61730561462402,16.517199854003906,35.63097561462402Q16.577069854003906,35.64463561462402,16.635311854003906,35.664095614624024Q22.225222854003906,37.53218961462402,28.131712854003908,37.53218961462402Q34.038112854003906,37.53218961462402,39.6281128540039,35.664095614624024Q39.6863128540039,35.64463561462402,39.74621285400391,35.63097561462402Q39.80601285400391,35.61730561462402,39.8670128540039,35.609585614624024Q39.92791285400391,35.60185561462402,39.989312854003906,35.60013561462402Q40.0506128540039,35.598415614624024,40.111912854003904,35.60272561462402Q40.17321285400391,35.60702561462402,40.233712854003905,35.617315614624026Q40.2942128540039,35.627605614624024,40.35351285400391,35.64378561462402Q40.41271285400391,35.659955614624025,40.47011285400391,35.68185561462403Q40.5275128540039,35.703765614624025,40.582412854003906,35.731185614624025Q40.637412854003905,35.758605614624024,40.689412854003905,35.79127561462403Q40.74131285400391,35.82394561462402,40.7899128540039,35.86156261462402Q40.838412854003906,35.89917561462402,40.88301285400391,35.941365614624026Q40.92771285400391,35.983555614624024,40.967912854003906,36.029915614624024Q41.00821285400391,36.07627561462402,41.04371285400391,36.126360614624026Q41.0793128540039,36.176444614624025,41.1097128540039,36.22977061462402Q41.140212854003906,36.28309661462402,41.16531285400391,36.339150614624025Q41.190312854003906,36.39520461462402,41.20981285400391,36.45344661462402Q41.22931285400391,36.51168861462402,41.242912854003904,36.571558614624024Q41.256612854003905,36.63142861462402,41.264312854003904,36.692348614624024Q41.272012854003904,36.75326921462403,41.27381285400391,36.81465371462402Q41.27551285400391,36.876038214624025,41.271212854003906,36.93729561462402Q41.266912854003905,36.998552614624025,41.256612854003905,37.059093614624025Q41.246312854003904,37.11963361462402,41.230112854003906,37.178873614624024Q41.21391285400391,37.238114614624024,41.192012854003906,37.295483614624025Q41.170112854003904,37.352853614624024,41.1427128540039,37.40780061462402Q41.1153128540039,37.462746614624024,41.082612854003905,37.51474161462402Q41.05001285400391,37.56673561462402,41.01231285400391,37.61527761462402Q40.97471285400391,37.66381861462402,40.9325128540039,37.70843961462403Q40.89031285400391,37.753060614624026,40.84401285400391,37.79333161462402Q40.7976128540039,37.83360161462402,40.74751285400391,37.86913561462402Q40.697512854003904,37.90466561462402,40.64411285400391,37.935115614624024Q40.59081285400391,37.96557561462402,40.53471285400391,37.990655614624025Q40.4787128540039,38.01573561462402,40.4205128540039,38.03519561462402ZM41.27431285400391,36.84964561462402Q41.27431285400391,36.91105421462402,41.268212854003906,36.97216661462402Q41.262212854003906,37.03327961462402,41.250212854003905,37.09350861462402Q41.23831285400391,37.15373661462402,41.22041285400391,37.212501614624024Q41.2026128540039,37.27126561462402,41.179112854003904,37.32799961462403Q41.155612854003905,37.384733614624025,41.126712854003905,37.438891614624026Q41.0977128540039,37.49304861462402,41.06361285400391,37.54410861462402Q41.02951285400391,37.595167614624025,40.99051285400391,37.64263761462402Q40.951612854003905,37.69010661462402,40.9081128540039,37.73352861462402Q40.864712854003905,37.776951614624025,40.817212854003905,37.81590861462402Q40.7698128540039,37.854865614624025,40.71871285400391,37.888985614624026Q40.66771285400391,37.923095614624025,40.61351285400391,37.952045614624026Q40.559312854003906,37.98099561462402,40.50261285400391,38.00449561462403Q40.44591285400391,38.027995614624025,40.3871128540039,38.04582561462402Q40.32831285400391,38.06364561462402,40.2681128540039,38.07562561462402Q40.20791285400391,38.087605614624024,40.146812854003905,38.093625614624024Q40.0857128540039,38.09964561462402,40.02431285400391,38.09964561462402Q39.96281285400391,38.09964561462402,39.901712854003904,38.093625614624024Q39.84061285400391,38.087605614624024,39.780412854003906,38.07562561462402Q39.720212854003904,38.06364561462402,39.661412854003906,38.04582561462402Q39.60261285400391,38.027995614624025,39.5459128540039,38.00449561462403Q39.48921285400391,37.98099561462402,39.43501285400391,37.952045614624026Q39.38091285400391,37.923095614624025,39.329812854003904,37.888985614624026Q39.278712854003906,37.854865614624025,39.2313128540039,37.81590861462402Q39.183812854003904,37.776951614624025,39.140412854003905,37.73352861462402Q39.096912854003904,37.69010661462402,39.058012854003906,37.64263761462402Q39.019012854003904,37.595167614624025,38.98491285400391,37.54410861462402Q38.95081285400391,37.49304861462402,38.92191285400391,37.438891614624026Q38.89291285400391,37.384733614624025,38.869412854003905,37.32799961462403Q38.845912854003906,37.27126561462402,38.828112854003905,37.212501614624024Q38.81031285400391,37.15373661462402,38.79831285400391,37.09350861462402Q38.78631285400391,37.03327961462402,38.78031285400391,36.97216661462402Q38.77431285400391,36.91105421462402,38.77431285400391,36.84964561462402Q38.77431285400391,36.78823701462402,38.78031285400391,36.727124614624024Q38.78631285400391,36.666011614624026,38.79831285400391,36.605782614624026Q38.81031285400391,36.545554614624024,38.828112854003905,36.48678961462402Q38.845912854003906,36.428025614624026,38.869412854003905,36.37129161462402Q38.89291285400391,36.31455761462402,38.92191285400391,36.26039961462402Q38.95081285400391,36.206242614624024,38.98491285400391,36.155182614624024Q39.019012854003904,36.10412361462402,39.058012854003906,36.056653614624025Q39.096912854003904,36.009184614624026,39.140412854003905,35.965762614624026Q39.183812854003904,35.92233961462402,39.2313128540039,35.883382614624026Q39.278712854003906,35.84442561462402,39.329812854003904,35.81030561462402Q39.38091285400391,35.77619561462402,39.43501285400391,35.74724561462402Q39.48921285400391,35.718295614624026,39.5459128540039,35.69479561462402Q39.60261285400391,35.67129561462402,39.661412854003906,35.653465614624025Q39.720212854003904,35.635645614624025,39.780412854003906,35.623665614624024Q39.84061285400391,35.61168561462402,39.901712854003904,35.60566561462402Q39.96281285400391,35.59964561462402,40.02431285400391,35.59964561462402Q40.0857128540039,35.59964561462402,40.146812854003905,35.60566561462402Q40.20791285400391,35.61168561462402,40.2681128540039,35.623665614624024Q40.32831285400391,35.635645614624025,40.3871128540039,35.653465614624025Q40.44591285400391,35.67129561462402,40.50261285400391,35.69479561462402Q40.559312854003906,35.718295614624026,40.61351285400391,35.74724561462402Q40.66771285400391,35.77619561462402,40.71871285400391,35.81030561462402Q40.7698128540039,35.84442561462402,40.817212854003905,35.883382614624026Q40.864712854003905,35.92233961462402,40.9081128540039,35.965762614624026Q40.951612854003905,36.009184614624026,40.99051285400391,36.056653614624025Q41.02951285400391,36.10412361462402,41.06361285400391,36.155182614624024Q41.0977128540039,36.206242614624024,41.126712854003905,36.26039961462402Q41.155612854003905,36.31455761462402,41.179112854003904,36.37129161462402Q41.2026128540039,36.428025614624026,41.22041285400391,36.48678961462402Q41.23831285400391,36.545554614624024,41.250212854003905,36.605782614624026Q41.262212854003906,36.666011614624026,41.268212854003906,36.727124614624024Q41.27431285400391,36.78823701462402,41.27431285400391,36.84964561462402ZM17.489112854003906,36.84964561462402Q17.489112854003906,36.91105421462402,17.483092854003907,36.97216661462402Q17.477072854003907,37.03327961462402,17.465092854003906,37.09350861462402Q17.453112854003905,37.15373661462402,17.435292854003904,37.212501614624024Q17.417462854003908,37.27126561462402,17.393962854003906,37.32799961462403Q17.370462854003907,37.384733614624025,17.341512854003906,37.438891614624026Q17.312562854003907,37.49304861462402,17.278452854003906,37.54410861462402Q17.244332854003908,37.595167614624025,17.205375854003908,37.64263761462402Q17.166418854003908,37.69010661462402,17.122995854003907,37.73352861462402Q17.079573854003907,37.776951614624025,17.032104854003908,37.81590861462402Q16.984634854003907,37.854865614624025,16.933575854003905,37.888985614624026Q16.882515854003906,37.923095614624025,16.828358854003906,37.952045614624026Q16.774200854003908,37.98099561462402,16.717466854003906,38.00449561462403Q16.660732854003907,38.027995614624025,16.601968854003907,38.04582561462402Q16.543203854003906,38.06364561462402,16.482975854003907,38.07562561462402Q16.422746854003908,38.087605614624024,16.361633854003905,38.093625614624024Q16.300521454003906,38.09964561462402,16.239112854003906,38.09964561462402Q16.177704254003906,38.09964561462402,16.116591854003907,38.093625614624024Q16.055478854003905,38.087605614624024,15.995249854003907,38.07562561462402Q15.935021854003907,38.06364561462402,15.876256854003906,38.04582561462402Q15.817492854003905,38.027995614624025,15.760758854003907,38.00449561462403Q15.704024854003906,37.98099561462402,15.649866854003907,37.952045614624026Q15.595709854003907,37.923095614624025,15.544649854003906,37.888985614624026Q15.493590854003907,37.854865614624025,15.446120854003906,37.81590861462402Q15.398651854003907,37.776951614624025,15.355229854003905,37.73352861462402Q15.311806854003907,37.69010661462402,15.272849854003907,37.64263761462402Q15.233892854003907,37.595167614624025,15.199772854003907,37.54410861462402Q15.165662854003907,37.49304861462402,15.136712854003907,37.438891614624026Q15.107762854003907,37.384733614624025,15.084262854003907,37.32799961462403Q15.060762854003906,37.27126561462402,15.042932854003906,37.212501614624024Q15.025112854003906,37.15373661462402,15.013132854003906,37.09350861462402Q15.001152854003907,37.03327961462402,14.995132854003906,36.97216661462402Q14.989112854003906,36.91105421462402,14.989112854003906,36.84964561462402Q14.989112854003906,36.78823701462402,14.995132854003906,36.727124614624024Q15.001152854003907,36.666011614624026,15.013132854003906,36.605782614624026Q15.025112854003906,36.545554614624024,15.042932854003906,36.48678961462402Q15.060762854003906,36.428025614624026,15.084262854003907,36.37129161462402Q15.107762854003907,36.31455761462402,15.136712854003907,36.26039961462402Q15.165662854003907,36.206242614624024,15.199772854003907,36.155182614624024Q15.233892854003907,36.10412361462402,15.272849854003907,36.056653614624025Q15.311806854003907,36.009184614624026,15.355229854003905,35.965762614624026Q15.398651854003907,35.92233961462402,15.446120854003906,35.883382614624026Q15.493590854003907,35.84442561462402,15.544649854003906,35.81030561462402Q15.595709854003907,35.77619561462402,15.649866854003907,35.74724561462402Q15.704024854003906,35.718295614624026,15.760758854003907,35.69479561462402Q15.817492854003905,35.67129561462402,15.876256854003906,35.653465614624025Q15.935021854003907,35.635645614624025,15.995249854003907,35.623665614624024Q16.055478854003905,35.61168561462402,16.116591854003907,35.60566561462402Q16.177704254003906,35.59964561462402,16.239112854003906,35.59964561462402Q16.300521454003906,35.59964561462402,16.361633854003905,35.60566561462402Q16.422746854003908,35.61168561462402,16.482975854003907,35.623665614624024Q16.543203854003906,35.635645614624025,16.601968854003907,35.653465614624025Q16.660732854003907,35.67129561462402,16.717466854003906,35.69479561462402Q16.774200854003908,35.718295614624026,16.828358854003906,35.74724561462402Q16.882515854003906,35.77619561462402,16.933575854003905,35.81030561462402Q16.984634854003907,35.84442561462402,17.032104854003908,35.883382614624026Q17.079573854003907,35.92233961462402,17.122995854003907,35.965762614624026Q17.166418854003908,36.009184614624026,17.205375854003908,36.056653614624025Q17.244332854003908,36.10412361462402,17.278452854003906,36.155182614624024Q17.312562854003907,36.206242614624024,17.341512854003906,36.26039961462402Q17.370462854003907,36.31455761462402,17.393962854003906,36.37129161462402Q17.417462854003908,36.428025614624026,17.435292854003904,36.48678961462402Q17.453112854003905,36.545554614624024,17.465092854003906,36.605782614624026Q17.477072854003907,36.666011614624026,17.483092854003907,36.727124614624024Q17.489112854003906,36.78823701462402,17.489112854003906,36.84964561462402Z" fill="#FFFFFF" fill-opacity="1"/></g></g></g><g style="mix-blend-mode:passthrough"><g style="mix-blend-mode:passthrough"><rect x="5.5" y="5" width="47" height="47" rx="6" fill-opacity="0" stroke-opacity="1" stroke="#FFFFFF" fill="none" stroke-width="2.5"/></g><g style="mix-blend-mode:passthrough"><rect x="0" y="0" width="58" height="58" rx="0" fill="#D8D8D8" fill-opacity="0"/></g></g></g></svg>