<svg xmlns="http://www.w3.org/2000/svg" xmlns:xlink="http://www.w3.org/1999/xlink" fill="none" version="1.1" width="58" height="58" viewBox="0 0 58 58"><g style="mix-blend-mode:passthrough"><g style="mix-blend-mode:passthrough"><path d="M4.25,46.7085L4.25,10.29146Q4.25,9.01792,4.824071,7.898350000000001Q5.371192,6.8313299999999995,6.334114,6.10342Q7.29704,5.375512,8.47282,5.140128Q9.706520000000001,4.893148,10.93178,5.240467L25.553,9.385069999999999Q26.6019,9.68238,27.2593,10.55204Q27.9167,11.42169,27.9167,12.51187L27.9167,44.4881Q27.9167,45.5783,27.2593,46.448Q26.6019,47.3176,25.553,47.6149L10.93178,51.7595Q9.706520000000001,52.1068,8.47282,51.8599Q7.29704,51.6245,6.334114,50.8966Q5.371194,50.1687,4.824071,49.1017Q4.25,47.9821,4.25,46.7085ZM6.75,46.7085Q6.75,48.077,7.84168,48.9023Q8.93336,49.7275,10.24998,49.3543L24.8712,45.2097Q25.4167,45.0551,25.4167,44.4881L25.4167,12.51187Q25.4167,11.94492,24.8712,11.7903L10.24998,7.6457Q8.93336,7.2724899999999995,7.84168,8.097719999999999Q6.75,8.92296,6.75,10.29146L6.75,46.7085Z" fill="#FFFFFF" fill-opacity="1"/></g><g style="mix-blend-mode:passthrough" transform="matrix(-1,0,0,1,107.66671752929688,0)"><path d="M52.58335876464844,46.7085L52.58335876464844,10.29146Q52.58335876464844,9.01792,53.15742976464844,7.898350000000001Q53.70455076464844,6.8313299999999995,54.66747276464844,6.10342Q55.63039876464844,5.375512,56.806178764648436,5.140128Q58.039878764648435,4.893148,59.26513876464844,5.240467L73.88635876464843,9.385069999999999Q74.93525876464844,9.68238,75.59265876464843,10.55204Q76.25005876464843,11.42169,76.25005876464843,12.51187L76.25005876464843,44.4881Q76.25005876464843,45.5783,75.59265876464843,46.448Q74.93525876464844,47.3176,73.88635876464843,47.6149L59.26513876464844,51.7595Q58.039878764648435,52.1068,56.806178764648436,51.8599Q55.63039876464844,51.6245,54.66747276464844,50.8966Q53.70455276464844,50.1687,53.15742976464844,49.1017Q52.58335876464844,47.9821,52.58335876464844,46.7085ZM55.08335876464844,46.7085Q55.08335876464844,48.077,56.175038764648434,48.9023Q57.26671876464844,49.7275,58.58333876464844,49.3543L73.20455876464844,45.2097Q73.75005876464843,45.0551,73.75005876464843,44.4881L73.75005876464843,12.51187Q73.75005876464843,11.94492,73.20455876464844,11.7903L58.58333876464844,7.6457Q57.26671876464844,7.2724899999999995,56.175038764648434,8.097719999999999Q55.08335876464844,8.92296,55.08335876464844,10.29146L55.08335876464844,46.7085Z" fill="#FFFFFF" fill-opacity="1"/></g><g style="mix-blend-mode:passthrough"><rect x="0" y="0" width="58" height="58" rx="0" fill="#D8D8D8" fill-opacity="0"/></g></g></svg>