<svg xmlns="http://www.w3.org/2000/svg" xmlns:xlink="http://www.w3.org/1999/xlink" fill="none" version="1.1" width="58" height="58" viewBox="0 0 58 58"><g style="mix-blend-mode:passthrough"><g style="mix-blend-mode:passthrough"><path d="M4.25,36L4.25,31L6.75,31L6.75,36L4.25,36ZM4.25,26L4.25,21L6.75,21L6.75,26L4.25,26ZM4.25,16L4.25,11L6.75,11L6.75,16L4.25,16ZM6.63318,5.626306Q8.70491,3.75,11.5,3.75L12.09045,3.75L12.09045,6.25L11.5,6.25Q9.66873,6.25,8.311399999999999,7.4793L6.63318,5.626306ZM17.090400000000002,3.75L22.0904,3.75L22.0904,6.25L17.090400000000002,6.25L17.090400000000002,3.75ZM27.0904,3.75L32.0904,3.75L32.0904,6.25L27.0904,6.25L27.0904,3.75ZM37.0904,3.75L42.0904,3.75L42.0904,6.25L37.0904,6.25L37.0904,3.75ZM47.2024,3.78411Q48.7338,3.9331899999999997,50.0727,4.691395Q51.4115,5.449603,52.327,6.68624L50.3177,8.17374Q49.0615,6.4769000000000005,46.9602,6.27235L47.2024,3.78411ZM53.75,12.18089L53.75,17.1809L51.25,17.1809L51.25,12.18089L53.75,12.18089ZM53.75,22.1809L53.75,27.1809L51.25,27.1809L51.25,22.1809L53.75,22.1809ZM53.75,32.1809L53.75,37.1809L51.25,37.1809L51.25,32.1809L53.75,32.1809ZM53.75,42.1809L53.75,46Q53.75,46.7155,53.6101,47.4173L51.1584,46.9286Q51.25,46.4688,51.25,46L51.25,42.1809L53.75,42.1809ZM50.218,52.2241Q48.5005,53.25,46.5,53.25L44.7287,53.25L44.7287,50.75L46.5,50.75Q47.8107,50.75,48.9359,50.0778L50.218,52.2241ZM39.7287,53.25L34.7287,53.25L34.7287,50.75L39.7287,50.75L39.7287,53.25ZM29.7287,53.25L24.7287,53.25L24.7287,50.75L29.7287,50.75L29.7287,53.25ZM19.7287,53.25L14.72867,53.25L14.72867,50.75L19.7287,50.75L19.7287,53.25ZM9.39575,52.9379Q7.92305,52.4912,6.75879,51.4848Q5.5945287,50.4784,4.939503,49.0858L7.20174,48.0218Q8.10055,49.9326,10.12135,50.5455L9.39575,52.9379ZM4.25,46L4.25,41L6.75,41L6.75,46L4.25,46Z" fill="#FFFFFF" fill-opacity="1"/></g><g style="mix-blend-mode:passthrough"><g style="mix-blend-mode:passthrough"><path d="M13.041439486328125,42.69079296875L43.19082348632813,12.54140996875Q43.234223486328126,12.49798796875,43.281723486328126,12.45903096875Q43.32912348632813,12.42007296875,43.38022348632812,12.38595296875Q43.43122348632812,12.35184296875,43.48542348632812,12.32289296875Q43.539623486328125,12.29394296875,43.596323486328124,12.27044296875Q43.653023486328124,12.24694296875,43.71182348632813,12.22912296875Q43.77062348632813,12.21129296875,43.83082348632813,12.19931296875Q43.89102348632812,12.18733296875,43.95212348632813,12.18131296875Q44.01322348632813,12.17529296875,44.07462348632812,12.17529296875Q44.136123486328124,12.17529296875,44.19722348632813,12.18131296875Q44.25832348632812,12.18733296875,44.318523486328125,12.19931296875Q44.37872348632813,12.21129296875,44.437523486328125,12.22911296875Q44.49632348632812,12.24694296875,44.55302348632813,12.27044296875Q44.60972348632812,12.29394296875,44.66392348632813,12.32289296875Q44.718123486328125,12.35184296875,44.76912348632813,12.38595296875Q44.820223486328125,12.42007296875,44.86762348632813,12.45902896875Q44.91512348632813,12.49798596875,44.958523486328126,12.54140896875Q45.00202348632813,12.58483096875,45.040923486328126,12.63229996875Q45.07992348632813,12.67976996875,45.11402348632812,12.73082896875Q45.148123486328124,12.78188896875,45.17712348632813,12.83604596875Q45.20602348632812,12.89020296875,45.22952348632813,12.94693796875Q45.253023486328125,13.00367196875,45.270823486328126,13.06243596875Q45.288723486328124,13.12119996875,45.30062348632812,13.18142896875Q45.31262348632812,13.24165696875,45.31862348632812,13.30276996875Q45.324723486328125,13.36388316875,45.324723486328125,13.42529171179Q45.324723486328125,13.48670026875,45.31862348632812,13.54781296875Q45.31262348632812,13.60892596875,45.30062348632812,13.66915496875Q45.288723486328124,13.72938296875,45.270823486328126,13.78814796875Q45.253023486328125,13.84691196875,45.22952348632813,13.90364596875Q45.20602348632812,13.96037996875,45.17712348632813,14.01453796875Q45.148123486328124,14.06869496875,45.11402348632812,14.11975496875Q45.07992348632813,14.17081396875,45.040923486328126,14.21828396875Q45.00202348632813,14.26575296875,44.958523486328126,14.30917596875L14.809207486328125,44.45859296875Q14.765785486328125,44.50199296875,14.718316486328124,44.540992968750004Q14.670846486328125,44.57989296875,14.619787486328125,44.61399296875Q14.568727486328125,44.648192968749996,14.514570486328125,44.67709296875Q14.460413486328125,44.70609296875,14.403678486328126,44.72959296875Q14.346944486328125,44.753092968749996,14.288180486328125,44.770892968750005Q14.229416486328125,44.78869296875,14.169187486328125,44.80069296875Q14.108959486328125,44.81269296875,14.047846486328124,44.81869296875Q13.986733286328125,44.82469296875,13.925324743288124,44.82469296875Q13.863916186328124,44.82469296875,13.802803486328125,44.81869296875Q13.741690486328125,44.81269296875,13.681461486328125,44.80069296875Q13.621233486328125,44.78869296875,13.562468486328125,44.770892968750005Q13.503704486328125,44.753092968749996,13.446970486328125,44.72959296875Q13.390236486328124,44.70609296875,13.336078486328125,44.67709296875Q13.281921486328125,44.648192968749996,13.230861486328125,44.61399296875Q13.179802486328125,44.57989296875,13.132332486328124,44.540992968750004Q13.084863486328125,44.50199296875,13.041440486328124,44.45859296875Q12.998018486328125,44.41519296875,12.959061486328125,44.36769296875Q12.920103486328125,44.32019296875,12.885983486328126,44.269192968750005Q12.851873486328126,44.21809296875,12.822923486328126,44.16399296875Q12.793973486328126,44.10979296875,12.770473486328125,44.05309296875Q12.746973486328125,43.99629296875,12.729153486328125,43.937592968749996Q12.711323486328125,43.87879296875,12.699343486328125,43.818592968749996Q12.687363486328126,43.75829296875,12.681343486328124,43.69719296875Q12.675323486328125,43.63609296875,12.675323486328125,43.57469296875Q12.675323486328125,43.51329296875,12.681343486328124,43.45219296875Q12.687363486328126,43.39109296875,12.699343486328125,43.33089296875Q12.711323486328125,43.27059296875,12.729143486328125,43.21189296875Q12.746973486328125,43.15309296875,12.770473486328125,43.096392968749996Q12.793973486328126,43.03959296875,12.822923486328126,42.985492968749995Q12.851873486328126,42.93129296875,12.885983486328126,42.88029296875Q12.920103486328125,42.82919296875,12.959059486328124,42.78169296875Q12.998016486328124,42.73429296875,13.041439486328125,42.69079296875ZM15.175323486328125,43.57469296875Q15.175323486328125,43.63609296875,15.169303486328126,43.69719296875Q15.163283486328124,43.75829296875,15.151303486328125,43.818592968749996Q15.139323486328125,43.87879296875,15.121503486328125,43.937592968749996Q15.103673486328125,43.99629296875,15.080173486328125,44.05309296875Q15.056673486328124,44.10979296875,15.027723486328124,44.16399296875Q14.998773486328124,44.21809296875,14.964663486328124,44.269192968750005Q14.930543486328125,44.32019296875,14.891586486328125,44.36769296875Q14.852629486328125,44.41519296875,14.809206486328126,44.45859296875Q14.765784486328124,44.50199296875,14.718315486328125,44.540992968750004Q14.670845486328124,44.57989296875,14.619786486328126,44.61399296875Q14.568726486328124,44.648192968749996,14.514569486328124,44.67709296875Q14.460411486328125,44.70609296875,14.403677486328125,44.72959296875Q14.346943486328126,44.753092968749996,14.288179486328126,44.770892968750005Q14.229414486328125,44.78869296875,14.169186486328124,44.80069296875Q14.108957486328125,44.81269296875,14.047844486328126,44.81869296875Q13.986732086328125,44.82469296875,13.925323486328125,44.82469296875Q13.863914886328125,44.82469296875,13.802802486328124,44.81869296875Q13.741689486328125,44.81269296875,13.681460486328126,44.80069296875Q13.621232486328125,44.78869296875,13.562467486328124,44.770892968750005Q13.503703486328124,44.753092968749996,13.446969486328125,44.72959296875Q13.390235486328125,44.70609296875,13.336077486328126,44.67709296875Q13.281920486328126,44.648192968749996,13.230860486328124,44.61399296875Q13.179801486328126,44.57989296875,13.132331486328125,44.540992968750004Q13.084862486328126,44.50199296875,13.041440486328124,44.45859296875Q12.998017486328125,44.41519296875,12.959060486328125,44.36769296875Q12.920103486328125,44.32019296875,12.885983486328126,44.269192968750005Q12.851873486328126,44.21809296875,12.822923486328126,44.16399296875Q12.793973486328126,44.10979296875,12.770473486328125,44.05309296875Q12.746973486328125,43.99629296875,12.729143486328125,43.937592968749996Q12.711323486328125,43.87879296875,12.699343486328125,43.818592968749996Q12.687363486328126,43.75829296875,12.681343486328124,43.69719296875Q12.675323486328125,43.63609296875,12.675323486328125,43.57469296875Q12.675323486328125,43.51329296875,12.681343486328124,43.45219296875Q12.687363486328126,43.39109296875,12.699343486328125,43.33089296875Q12.711323486328125,43.27059296875,12.729143486328125,43.21189296875Q12.746973486328125,43.15309296875,12.770473486328125,43.096392968749996Q12.793973486328126,43.03959296875,12.822923486328126,42.985492968749995Q12.851873486328126,42.93129296875,12.885983486328126,42.880192968749995Q12.920103486328125,42.82919296875,12.959060486328125,42.78169296875Q12.998017486328125,42.73429296875,13.041440486328124,42.69079296875Q13.084862486328126,42.64739296875,13.132331486328125,42.608392968749996Q13.179801486328126,42.56949296875,13.230860486328124,42.53539296875Q13.281920486328126,42.50129296875,13.336077486328126,42.47229296875Q13.390235486328125,42.443392968750004,13.446969486328125,42.41989296875Q13.503703486328124,42.39639296875,13.562467486328124,42.378492968749995Q13.621232486328125,42.36069296875,13.681460486328126,42.34869296875Q13.741689486328125,42.336792968750004,13.802802486328124,42.33069296875Q13.863914886328125,42.32469296875,13.925323486328125,42.32469296875Q13.986732086328125,42.32469296875,14.047844486328126,42.33069296875Q14.108957486328125,42.336792968750004,14.169186486328124,42.34869296875Q14.229414486328125,42.36069296875,14.288179486328126,42.378492968749995Q14.346943486328126,42.39639296875,14.403677486328125,42.41989296875Q14.460411486328125,42.443392968750004,14.514569486328124,42.47229296875Q14.568726486328124,42.50129296875,14.619786486328126,42.53539296875Q14.670845486328124,42.56949296875,14.718315486328125,42.608392968749996Q14.765784486328124,42.64739296875,14.809206486328126,42.69079296875Q14.852629486328125,42.73429296875,14.891586486328125,42.78169296875Q14.930543486328125,42.82919296875,14.964663486328124,42.880192968749995Q14.998773486328124,42.93129296875,15.027723486328124,42.985492968749995Q15.056673486328124,43.03959296875,15.080173486328125,43.096392968749996Q15.103673486328125,43.15309296875,15.121503486328125,43.21189296875Q15.139323486328125,43.27059296875,15.151303486328125,43.33089296875Q15.163283486328124,43.39109296875,15.169303486328126,43.45219296875Q15.175323486328125,43.51329296875,15.175323486328125,43.57469296875ZM45.324723486328125,13.42529296875Q45.324723486328125,13.48670156875,45.31862348632812,13.54781396875Q45.31262348632812,13.60892696875,45.30062348632812,13.66915596875Q45.288723486328124,13.72938396875,45.270823486328126,13.78814896875Q45.253023486328125,13.84691296875,45.22952348632813,13.90364696875Q45.20602348632812,13.96038096875,45.17712348632813,14.01453896875Q45.148123486328124,14.06869596875,45.11402348632812,14.11975596875Q45.07992348632813,14.17081496875,45.040923486328126,14.21828496875Q45.00202348632813,14.26575396875,44.958523486328126,14.30917596875Q44.91512348632813,14.35259896875,44.86762348632813,14.39155596875Q44.820223486328125,14.43051296875,44.76912348632813,14.46463296875Q44.718123486328125,14.49874296875,44.66392348632813,14.52769296875Q44.60972348632812,14.55664296875,44.55302348632813,14.58014296875Q44.49632348632812,14.60364296875,44.437523486328125,14.62147296875Q44.37872348632813,14.63929296875,44.318523486328125,14.65127296875Q44.25832348632812,14.66325296875,44.19722348632813,14.66927296875Q44.136123486328124,14.67529296875,44.074723486328125,14.67529296875Q44.01322348632813,14.67529296875,43.95212348632813,14.66927296875Q43.89102348632812,14.66325296875,43.83082348632813,14.65127296875Q43.77062348632813,14.63929296875,43.71182348632813,14.62147296875Q43.653023486328124,14.60364296875,43.596323486328124,14.58014296875Q43.539623486328125,14.55664296875,43.48542348632812,14.52769296875Q43.43122348632812,14.49874296875,43.38022348632812,14.46463296875Q43.32912348632813,14.43051296875,43.281723486328126,14.39155596875Q43.234223486328126,14.35259896875,43.19082348632813,14.30917596875Q43.147323486328126,14.26575396875,43.10842348632812,14.21828496875Q43.06942348632813,14.17081496875,43.035323486328124,14.11975596875Q43.00122348632813,14.06869596875,42.972223486328126,14.01453896875Q42.943323486328126,13.96038096875,42.91982348632813,13.90364696875Q42.89632348632813,13.84691296875,42.87852348632812,13.78814896875Q42.860723486328126,13.72938396875,42.848723486328126,13.66915596875Q42.836723486328125,13.60892696875,42.830723486328125,13.54781396875Q42.824723486328125,13.48670156875,42.824723486328125,13.42529296875Q42.824723486328125,13.36388436875,42.830723486328125,13.30277196875Q42.836723486328125,13.24165896875,42.848723486328126,13.18142996875Q42.860723486328126,13.12120196875,42.87852348632812,13.06243696875Q42.89632348632813,13.00367296875,42.91982348632813,12.94693896875Q42.943323486328126,12.89020496875,42.972223486328126,12.83604696875Q43.00122348632813,12.78188996875,43.035323486328124,12.73082996875Q43.06942348632813,12.67977096875,43.10842348632812,12.63230096875Q43.147323486328126,12.58483196875,43.19082348632813,12.54140996875Q43.234223486328126,12.49798696875,43.281723486328126,12.45902996875Q43.32912348632813,12.42007296875,43.38022348632812,12.38595296875Q43.43122348632812,12.35184296875,43.48542348632812,12.32289296875Q43.539623486328125,12.29394296875,43.596323486328124,12.27044296875Q43.653023486328124,12.24694296875,43.71182348632813,12.22911296875Q43.77062348632813,12.21129296875,43.83082348632813,12.19931296875Q43.89102348632812,12.18733296875,43.95212348632813,12.18131296875Q44.01322348632813,12.17529296875,44.074723486328125,12.17529296875Q44.136123486328124,12.17529296875,44.19722348632813,12.18131296875Q44.25832348632812,12.18733296875,44.318523486328125,12.19931296875Q44.37872348632813,12.21129296875,44.437523486328125,12.22911296875Q44.49632348632812,12.24694296875,44.55302348632813,12.27044296875Q44.60972348632812,12.29394296875,44.66392348632813,12.32289296875Q44.718123486328125,12.35184296875,44.76912348632813,12.38595296875Q44.820223486328125,12.42007296875,44.86762348632813,12.45902996875Q44.91512348632813,12.49798696875,44.958523486328126,12.54140996875Q45.00202348632813,12.58483196875,45.040923486328126,12.63230096875Q45.07992348632813,12.67977096875,45.11402348632812,12.73082996875Q45.148123486328124,12.78188996875,45.17712348632813,12.83604696875Q45.20602348632812,12.89020496875,45.22952348632813,12.94693896875Q45.253023486328125,13.00367296875,45.270823486328126,13.06243696875Q45.288723486328124,13.12120196875,45.30062348632812,13.18142996875Q45.31262348632812,13.24165896875,45.31862348632812,13.30277196875Q45.324723486328125,13.36388436875,45.324723486328125,13.42529296875Z" fill="#FFFFFF" fill-opacity="1"/></g><g style="mix-blend-mode:passthrough"><path d="M34.024892807006836,12.17529296875L44.074692807006834,12.17529296875Q44.13609280700683,12.17529296875,44.197192807006836,12.18131296875Q44.25829280700684,12.18733296875,44.318492807006834,12.19931296875Q44.37879280700683,12.21129296875,44.437492807006834,12.22911296875Q44.49629280700684,12.24694296875,44.55299280700684,12.27044296875Q44.60979280700683,12.29394296875,44.66389280700683,12.32289296875Q44.71809280700683,12.35184296875,44.769092807006835,12.38595296875Q44.82019280700683,12.42007296875,44.86769280700683,12.45902996875Q44.915092807006836,12.49798696875,44.95859280700684,12.54140996875Q45.001992807006836,12.58483196875,45.040892807006834,12.63230096875Q45.079892807006836,12.67977096875,45.11399280700684,12.73082996875Q45.14809280700683,12.78188996875,45.17709280700684,12.83604696875Q45.20599280700684,12.89020496875,45.229492807006835,12.94693896875Q45.252992807006834,13.00367296875,45.27089280700684,13.06243696875Q45.28869280700684,13.12120196875,45.30069280700684,13.18142996875Q45.31259280700684,13.24165896875,45.31869280700683,13.30277196875Q45.324692807006834,13.36388436875,45.324692807006834,13.42529296875L45.324692807006834,23.475092968749998Q45.324692807006834,23.53649296875,45.31869280700683,23.59759296875Q45.31259280700684,23.65869296875,45.30069280700684,23.71899296875Q45.28869280700684,23.77919296875,45.27089280700684,23.83799296875Q45.252992807006834,23.89669296875,45.229492807006835,23.95349296875Q45.20599280700684,24.010192968749998,45.17709280700684,24.06439296875Q45.14809280700683,24.118492968749997,45.11399280700684,24.169592968750003Q45.079892807006836,24.220592968749997,45.040892807006834,24.26809296875Q45.001992807006836,24.31559296875,44.95859280700684,24.35899296875Q44.915092807006836,24.40239296875,44.86769280700683,24.44139296875Q44.82019280700683,24.48029296875,44.769092807006835,24.514392968750002Q44.71809280700683,24.54859296875,44.66389280700683,24.57749296875Q44.60979280700683,24.60649296875,44.55299280700684,24.629992968750003Q44.49629280700684,24.65349296875,44.437492807006834,24.671292968750002Q44.37879280700683,24.68909296875,44.318492807006834,24.70109296875Q44.25829280700684,24.71309296875,44.197192807006836,24.719092968749997Q44.13609280700683,24.725092968749998,44.074692807006834,24.725092968749998Q44.013272807006835,24.725092968749998,43.95215280700684,24.719092968749997Q43.89104280700683,24.71309296875,43.830812807006836,24.70109296875Q43.77058280700683,24.68909296875,43.71182280700684,24.671292968750002Q43.65305280700684,24.65349296875,43.596322807006835,24.629992968750003Q43.539592807006834,24.60649296875,43.48543280700684,24.57749296875Q43.431272807006835,24.54859296875,43.380212807006835,24.514392968750002Q43.329152807006835,24.48029296875,43.28168280700684,24.44139296875Q43.234212807006834,24.40239296875,43.19079280700684,24.35899296875Q43.14737280700683,24.31559296875,43.108412807006836,24.26809296875Q43.06945280700684,24.220592968749997,43.035342807006835,24.169592968750003Q43.00122280700684,24.118492968749997,42.97227280700684,24.06439296875Q42.94332280700684,24.010192968749998,42.91982280700684,23.95349296875Q42.89632280700684,23.89669296875,42.87850280700684,23.83799296875Q42.860672807006836,23.77919296875,42.848692807006834,23.71899296875Q42.83671280700683,23.65869296875,42.830692807006834,23.59759296875Q42.824672807006834,23.53649296875,42.824672807006834,23.475092968749998L42.824672807006834,13.42529296875L44.074692807006834,13.42529296875L44.074692807006834,14.67529296875L34.024892807006836,14.67529296875Q33.963484207006836,14.67529296875,33.90237180700684,14.66927296875Q33.84125880700684,14.66325296875,33.78102980700684,14.65127296875Q33.720801807006836,14.63929296875,33.662036807006835,14.62147296875Q33.60327280700684,14.60364296875,33.54653880700683,14.58014296875Q33.489804807006834,14.55664296875,33.43564680700683,14.52769296875Q33.38148980700684,14.49874296875,33.33042980700684,14.46463296875Q33.279370807006835,14.43051296875,33.23190080700684,14.39155596875Q33.18443180700684,14.35259896875,33.14100980700684,14.30917596875Q33.097586807006834,14.26575396875,33.05862980700684,14.21828496875Q33.019672807006835,14.17081496875,32.98555280700683,14.11975596875Q32.951442807006835,14.06869596875,32.92249280700683,14.01453896875Q32.89354280700684,13.96038096875,32.87004280700683,13.90364696875Q32.846542807006834,13.84691296875,32.82871280700684,13.78814896875Q32.81089280700684,13.72938396875,32.798912807006836,13.66915596875Q32.786932807006835,13.60892696875,32.780912807006835,13.54781396875Q32.774892807006836,13.48670156875,32.774892807006836,13.42529296875Q32.774892807006836,13.36388436875,32.780912807006835,13.30277196875Q32.786932807006835,13.24165896875,32.798912807006836,13.18142996875Q32.81089280700684,13.12120196875,32.82871280700684,13.06243696875Q32.846542807006834,13.00367296875,32.87004280700683,12.94693896875Q32.89354280700684,12.89020496875,32.92249280700683,12.83604696875Q32.951442807006835,12.78188996875,32.98555280700683,12.73082996875Q33.019672807006835,12.67977096875,33.05862980700684,12.63230096875Q33.097586807006834,12.58483196875,33.14100980700684,12.54140996875Q33.18443180700684,12.49798696875,33.23190080700684,12.45902996875Q33.279370807006835,12.42007296875,33.33042980700684,12.38595296875Q33.38148980700684,12.35184296875,33.43564680700683,12.32289296875Q33.489804807006834,12.29394296875,33.54653880700683,12.27044296875Q33.60327280700684,12.24694296875,33.662036807006835,12.22911296875Q33.720801807006836,12.21129296875,33.78102980700684,12.19931296875Q33.84125880700684,12.18733296875,33.90237180700684,12.18131296875Q33.963484207006836,12.17529296875,34.024892807006836,12.17529296875ZM35.274892807006836,13.42529296875Q35.274892807006836,13.48670156875,35.26887280700684,13.54781396875Q35.26285280700684,13.60892696875,35.250872807006836,13.66915596875Q35.238892807006835,13.72938396875,35.221072807006834,13.78814896875Q35.20324280700684,13.84691296875,35.17974280700684,13.90364696875Q35.156242807006834,13.96038096875,35.12729280700684,14.01453896875Q35.09834280700684,14.06869596875,35.06423280700684,14.11975596875Q35.03011280700684,14.17081496875,34.991155807006834,14.21828496875Q34.95219880700684,14.26575396875,34.90877580700683,14.30917596875Q34.865353807006834,14.35259896875,34.817884807006834,14.39155596875Q34.77041480700684,14.43051296875,34.719355807006835,14.46463296875Q34.668295807006835,14.49874296875,34.61413880700684,14.52769296875Q34.55998080700684,14.55664296875,34.50324680700684,14.58014296875Q34.44651280700683,14.60364296875,34.38774880700684,14.62147296875Q34.328983807006836,14.63929296875,34.26875580700683,14.65127296875Q34.208526807006834,14.66325296875,34.147413807006835,14.66927296875Q34.086301407006836,14.67529296875,34.024892807006836,14.67529296875Q33.963484207006836,14.67529296875,33.90237180700684,14.66927296875Q33.84125880700684,14.66325296875,33.78102980700684,14.65127296875Q33.720801807006836,14.63929296875,33.662036807006835,14.62147296875Q33.60327280700684,14.60364296875,33.54653880700683,14.58014296875Q33.489804807006834,14.55664296875,33.43564680700683,14.52769296875Q33.38148980700684,14.49874296875,33.33042980700684,14.46463296875Q33.279370807006835,14.43051296875,33.23190080700684,14.39155596875Q33.18443180700684,14.35259896875,33.14100980700684,14.30917596875Q33.097586807006834,14.26575396875,33.05862980700684,14.21828496875Q33.019672807006835,14.17081496875,32.98555280700683,14.11975596875Q32.951442807006835,14.06869596875,32.92249280700683,14.01453896875Q32.89354280700684,13.96038096875,32.87004280700683,13.90364696875Q32.846542807006834,13.84691296875,32.82871280700684,13.78814896875Q32.81089280700684,13.72938396875,32.798912807006836,13.66915596875Q32.786932807006835,13.60892696875,32.780912807006835,13.54781396875Q32.774892807006836,13.48670156875,32.774892807006836,13.42529296875Q32.774892807006836,13.36388436875,32.780912807006835,13.30277196875Q32.786932807006835,13.24165896875,32.798912807006836,13.18142996875Q32.81089280700684,13.12120196875,32.82871280700684,13.06243696875Q32.846542807006834,13.00367296875,32.87004280700683,12.94693896875Q32.89354280700684,12.89020496875,32.92249280700683,12.83604696875Q32.951442807006835,12.78188996875,32.98555280700683,12.73082996875Q33.019672807006835,12.67977096875,33.05862980700684,12.63230096875Q33.097586807006834,12.58483196875,33.14100980700684,12.54140996875Q33.18443180700684,12.49798696875,33.23190080700684,12.45902996875Q33.279370807006835,12.42007296875,33.33042980700684,12.38595296875Q33.38148980700684,12.35184296875,33.43564680700683,12.32289296875Q33.489804807006834,12.29394296875,33.54653880700683,12.27044296875Q33.60327280700684,12.24694296875,33.662036807006835,12.22911296875Q33.720801807006836,12.21129296875,33.78102980700684,12.19931296875Q33.84125880700684,12.18733296875,33.90237180700684,12.18131296875Q33.963484207006836,12.17529296875,34.024892807006836,12.17529296875Q34.086301407006836,12.17529296875,34.147413807006835,12.18131296875Q34.208526807006834,12.18733296875,34.26875580700683,12.19931296875Q34.328983807006836,12.21129296875,34.38774880700684,12.22911296875Q34.44651280700683,12.24694296875,34.50324680700684,12.27044296875Q34.55998080700684,12.29394296875,34.61413880700684,12.32289296875Q34.668295807006835,12.35184296875,34.719355807006835,12.38595296875Q34.77041480700684,12.42007296875,34.817884807006834,12.45902996875Q34.865353807006834,12.49798696875,34.90877580700683,12.54140996875Q34.95219880700684,12.58483196875,34.991155807006834,12.63230096875Q35.03011280700684,12.67977096875,35.06423280700684,12.73082996875Q35.09834280700684,12.78188996875,35.12729280700684,12.83604696875Q35.156242807006834,12.89020496875,35.17974280700684,12.94693896875Q35.20324280700684,13.00367296875,35.221072807006834,13.06243696875Q35.238892807006835,13.12120196875,35.250872807006836,13.18142996875Q35.26285280700684,13.24165896875,35.26887280700684,13.30277196875Q35.274892807006836,13.36388436875,35.274892807006836,13.42529296875ZM45.324692807006834,23.475092968749998Q45.324692807006834,23.53649296875,45.31869280700683,23.59759296875Q45.31259280700684,23.65869296875,45.30069280700684,23.71899296875Q45.28869280700684,23.77919296875,45.27089280700684,23.83799296875Q45.252992807006834,23.89669296875,45.229492807006835,23.95349296875Q45.20599280700684,24.010192968749998,45.17709280700684,24.06439296875Q45.14809280700683,24.118492968749997,45.11399280700684,24.169592968750003Q45.079892807006836,24.220592968749997,45.040892807006834,24.26809296875Q45.001992807006836,24.31559296875,44.95859280700684,24.35899296875Q44.915092807006836,24.40239296875,44.86769280700683,24.44139296875Q44.82019280700683,24.48029296875,44.769092807006835,24.514392968750002Q44.71809280700683,24.54859296875,44.66389280700683,24.57749296875Q44.60979280700683,24.60649296875,44.55299280700684,24.629992968750003Q44.49629280700684,24.65349296875,44.437492807006834,24.671292968750002Q44.37879280700683,24.68909296875,44.318492807006834,24.70109296875Q44.25829280700684,24.71309296875,44.197192807006836,24.719092968749997Q44.13609280700683,24.725092968749998,44.074692807006834,24.725092968749998Q44.013272807006835,24.725092968749998,43.95215280700684,24.719092968749997Q43.89104280700683,24.71309296875,43.830812807006836,24.70109296875Q43.77058280700683,24.68909296875,43.71182280700684,24.671292968750002Q43.65305280700684,24.65349296875,43.596322807006835,24.629992968750003Q43.539592807006834,24.60649296875,43.48543280700684,24.57749296875Q43.431272807006835,24.54859296875,43.380212807006835,24.514392968750002Q43.329152807006835,24.48029296875,43.28168280700684,24.44139296875Q43.234212807006834,24.40239296875,43.19079280700684,24.35899296875Q43.14737280700683,24.31559296875,43.108412807006836,24.26809296875Q43.06945280700684,24.220592968749997,43.035342807006835,24.169592968750003Q43.00122280700684,24.118492968749997,42.97227280700684,24.06439296875Q42.94332280700684,24.010192968749998,42.91982280700684,23.95349296875Q42.89632280700684,23.89669296875,42.87850280700684,23.83799296875Q42.860672807006836,23.77919296875,42.848692807006834,23.71899296875Q42.83671280700683,23.65869296875,42.830692807006834,23.59759296875Q42.824672807006834,23.53649296875,42.824672807006834,23.475092968749998Q42.824672807006834,23.41369296875,42.830692807006834,23.35257296875Q42.83671280700683,23.29146296875,42.848692807006834,23.23123296875Q42.860672807006836,23.171002968750003,42.87850280700684,23.11224296875Q42.89632280700684,23.05347296875,42.91982280700684,22.99674296875Q42.94332280700684,22.94000296875,42.97227280700684,22.88585296875Q43.00122280700684,22.831692968749998,43.035342807006835,22.780632968749998Q43.06945280700684,22.72957296875,43.108412807006836,22.68210296875Q43.14737280700683,22.634632968749997,43.19079280700684,22.59121296875Q43.234212807006834,22.547792968750002,43.28168280700684,22.50883296875Q43.329152807006835,22.46987296875,43.380212807006835,22.435762968749998Q43.431272807006835,22.40164296875,43.48543280700684,22.372692968750002Q43.539592807006834,22.34375296875,43.596322807006835,22.32024296875Q43.65305280700684,22.29675296875,43.71182280700684,22.278922968750003Q43.77058280700683,22.26109296875,43.830812807006836,22.249112968749998Q43.89104280700683,22.23713296875,43.95215280700684,22.23111296875Q44.013272807006835,22.225092968749998,44.074692807006834,22.225092968749998Q44.13609280700683,22.225092968749998,44.197192807006836,22.23111296875Q44.25829280700684,22.23713296875,44.318492807006834,22.249112968749998Q44.37879280700683,22.26109296875,44.437492807006834,22.278922968750003Q44.49629280700684,22.29675296875,44.55299280700684,22.32024296875Q44.60979280700683,22.34375296875,44.66389280700683,22.372692968750002Q44.71809280700683,22.40164296875,44.769092807006835,22.435762968749998Q44.82019280700683,22.46987296875,44.86769280700683,22.50883296875Q44.915092807006836,22.547792968750002,44.95859280700684,22.59121296875Q45.001992807006836,22.634632968749997,45.040892807006834,22.68210296875Q45.079892807006836,22.72957296875,45.11399280700684,22.780632968749998Q45.14809280700683,22.831692968749998,45.17709280700684,22.88585296875Q45.20599280700684,22.94000296875,45.229492807006835,22.99674296875Q45.252992807006834,23.05347296875,45.27089280700684,23.11224296875Q45.28869280700684,23.171002968750003,45.30069280700684,23.23123296875Q45.31259280700684,23.29146296875,45.31869280700683,23.35257296875Q45.324692807006834,23.41369296875,45.324692807006834,23.475092968749998Z" fill="#FFFFFF" fill-opacity="1"/></g><g style="mix-blend-mode:passthrough"><path d="M23.975123486328123,44.82470234375L13.925323486328125,44.82470234375Q13.863914886328125,44.82470234375,13.802802486328124,44.81870234375Q13.741689486328125,44.812702343750004,13.681460486328126,44.800702343750004Q13.621232486328125,44.78870234375,13.562467486328124,44.77090234375Q13.503703486328124,44.75310234375,13.446969486328125,44.72960234375Q13.390235486328125,44.706102343750004,13.336077486328126,44.67710234375Q13.281920486328126,44.64820234375,13.230860486328124,44.61400234375Q13.179801486328126,44.57990234375,13.132331486328125,44.54100234375Q13.084862486328126,44.50200234375,13.041440486328124,44.45860234375Q12.998017486328125,44.415202343749996,12.959060486328125,44.36770234375Q12.920103486328125,44.32020234375,12.885983486328126,44.26920234375Q12.851873486328126,44.21810234375,12.822923486328126,44.16400234375Q12.793973486328126,44.10980234375,12.770473486328125,44.05310234375Q12.746973486328125,43.99630234375,12.729143486328125,43.93760234375Q12.711323486328125,43.878802343749996,12.699343486328125,43.81860234375Q12.687363486328126,43.75830234375,12.681343486328124,43.69720234375Q12.675323486328125,43.63610234375,12.675323486328125,43.57470234375L12.675323486328125,33.52490234375Q12.675323486328125,33.46349374375,12.681343486328124,33.40238134375Q12.687363486328126,33.34126834375,12.699343486328125,33.28103934375Q12.711323486328125,33.22081134375,12.729143486328125,33.16204634375Q12.746973486328125,33.10328234375,12.770473486328125,33.04654834375Q12.793973486328126,32.98981434375,12.822923486328126,32.93565634375Q12.851873486328126,32.88149934375,12.885983486328126,32.83043934375Q12.920103486328125,32.77938034375,12.959060486328125,32.73191034375Q12.998017486328125,32.68444134375,13.041440486328124,32.64101934375Q13.084862486328126,32.59759634375,13.132331486328125,32.55863934375Q13.179801486328126,32.51968234375,13.230860486328124,32.48556234375Q13.281920486328126,32.45145234375,13.336077486328126,32.42250234375Q13.390235486328125,32.39355234375,13.446969486328125,32.37005234375Q13.503703486328124,32.34655234375,13.562467486328124,32.32872234375Q13.621232486328125,32.31090234375,13.681460486328126,32.29892234375Q13.741689486328125,32.28694234375,13.802802486328124,32.28092234375Q13.863914886328125,32.27490234375,13.925323486328125,32.27490234375Q13.986732086328125,32.27490234375,14.047844486328126,32.28092234375Q14.108957486328125,32.28694234375,14.169186486328124,32.29892234375Q14.229414486328125,32.31090234375,14.288179486328126,32.32872234375Q14.346943486328126,32.34655234375,14.403677486328125,32.37005234375Q14.460411486328125,32.39355234375,14.514569486328124,32.42250234375Q14.568726486328124,32.45145234375,14.619786486328126,32.48556234375Q14.670845486328124,32.51968234375,14.718315486328125,32.55863934375Q14.765784486328124,32.59759634375,14.809206486328126,32.64101934375Q14.852629486328125,32.68444134375,14.891586486328125,32.73191034375Q14.930543486328125,32.77938034375,14.964663486328124,32.83043934375Q14.998773486328124,32.88149934375,15.027723486328124,32.93565634375Q15.056673486328124,32.98981434375,15.080173486328125,33.04654834375Q15.103673486328125,33.10328234375,15.121503486328125,33.16204634375Q15.139323486328125,33.22081134375,15.151303486328125,33.28103934375Q15.163283486328124,33.34126834375,15.169303486328126,33.40238134375Q15.175323486328125,33.46349374375,15.175323486328125,33.52490234375L15.175323486328125,43.57470234375L13.925323486328125,43.57470234375L13.925323486328125,42.32470234375L23.975123486328123,42.32470234375Q24.036523486328125,42.32470234375,24.097623486328125,42.33072234375Q24.158723486328125,42.336742343750004,24.218923486328123,42.34872234375Q24.279223486328124,42.36070234375,24.337923486328123,42.37853234375Q24.396723486328124,42.39636234375,24.453423486328127,42.41985234375Q24.510223486328123,42.443362343749996,24.564323486328124,42.47230234375Q24.618523486328122,42.50125234375,24.669523486328124,42.53537234375Q24.720623486328122,42.569482343749996,24.768123486328125,42.60844234375Q24.815523486328125,42.64740234375,24.859023486328127,42.69082234375Q24.902423486328125,42.73424234375,24.941323486328123,42.78171234375Q24.980323486328125,42.82918234375,25.014423486328127,42.88024234375Q25.048523486328126,42.93130234375,25.077523486328126,42.98546234375Q25.106423486328126,43.03961234375,25.129923486328124,43.09635234375Q25.153423486328123,43.15308234375,25.171323486328127,43.211852343749996Q25.189123486328125,43.27061234375,25.201123486328125,43.33084234375Q25.213023486328126,43.39107234375,25.219123486328122,43.452182343749996Q25.225123486328123,43.51330234375,25.225123486328123,43.57470234375Q25.225123486328123,43.63610234375,25.219123486328122,43.69720234375Q25.213023486328126,43.75830234375,25.201123486328125,43.81860234375Q25.189123486328125,43.878802343749996,25.171323486328127,43.93760234375Q25.153423486328123,43.99630234375,25.129923486328124,44.05310234375Q25.106423486328126,44.10980234375,25.077523486328126,44.16400234375Q25.048523486328126,44.21810234375,25.014423486328127,44.26920234375Q24.980323486328125,44.32020234375,24.941323486328123,44.36770234375Q24.902423486328125,44.415202343749996,24.859023486328127,44.45860234375Q24.815523486328125,44.50200234375,24.768123486328125,44.54100234375Q24.720623486328122,44.57990234375,24.669523486328124,44.61400234375Q24.618523486328122,44.64820234375,24.564323486328124,44.67710234375Q24.510223486328123,44.706102343750004,24.453423486328127,44.72960234375Q24.396723486328124,44.75310234375,24.337923486328123,44.77090234375Q24.279223486328124,44.78870234375,24.218923486328123,44.800702343750004Q24.158723486328125,44.812702343750004,24.097623486328125,44.81870234375Q24.036523486328125,44.82470234375,23.975123486328123,44.82470234375ZM25.225123486328123,43.57470234375Q25.225123486328123,43.63610234375,25.219123486328122,43.69720234375Q25.213023486328126,43.75830234375,25.201123486328125,43.81860234375Q25.189123486328125,43.878802343749996,25.171323486328127,43.93760234375Q25.153423486328123,43.99630234375,25.129923486328124,44.05310234375Q25.106423486328126,44.10980234375,25.077523486328126,44.16400234375Q25.048523486328126,44.21810234375,25.014423486328127,44.26920234375Q24.980323486328125,44.32020234375,24.941323486328123,44.36770234375Q24.902423486328125,44.415202343749996,24.859023486328127,44.45860234375Q24.815523486328125,44.50200234375,24.768123486328125,44.54100234375Q24.720623486328122,44.57990234375,24.669523486328124,44.61400234375Q24.618523486328122,44.64820234375,24.564323486328124,44.67710234375Q24.510223486328123,44.706102343750004,24.453423486328127,44.72960234375Q24.396723486328124,44.75310234375,24.337923486328123,44.77090234375Q24.279223486328124,44.78870234375,24.218923486328123,44.800702343750004Q24.158723486328125,44.812702343750004,24.097623486328125,44.81870234375Q24.036523486328125,44.82470234375,23.975123486328123,44.82470234375Q23.913703486328124,44.82470234375,23.852583486328125,44.81870234375Q23.791473486328123,44.812702343750004,23.731243486328125,44.800702343750004Q23.671013486328125,44.78870234375,23.612253486328125,44.77090234375Q23.553483486328126,44.75310234375,23.496753486328124,44.72960234375Q23.440023486328123,44.706102343750004,23.385863486328127,44.67710234375Q23.331703486328124,44.64820234375,23.280643486328124,44.61400234375Q23.229583486328124,44.57990234375,23.182113486328127,44.54100234375Q23.134643486328123,44.50200234375,23.091223486328126,44.45860234375Q23.047803486328124,44.415202343749996,23.008843486328125,44.36770234375Q22.969883486328126,44.32020234375,22.935773486328124,44.26920234375Q22.901653486328126,44.21810234375,22.872703486328128,44.16400234375Q22.843753486328126,44.10980234375,22.820253486328127,44.05310234375Q22.796753486328125,43.99630234375,22.778933486328125,43.93760234375Q22.761103486328125,43.878802343749996,22.749123486328124,43.81860234375Q22.737143486328126,43.75830234375,22.731123486328123,43.69720234375Q22.725103486328123,43.63610234375,22.725103486328123,43.57470234375Q22.725103486328123,43.51330234375,22.731123486328123,43.452182343749996Q22.737143486328126,43.39107234375,22.749123486328124,43.33084234375Q22.761103486328125,43.27061234375,22.778933486328125,43.211852343749996Q22.796753486328125,43.15308234375,22.820253486328127,43.09635234375Q22.843753486328126,43.03961234375,22.872703486328128,42.98546234375Q22.901653486328126,42.93130234375,22.935773486328124,42.88024234375Q22.969883486328126,42.82918234375,23.008843486328125,42.78171234375Q23.047803486328124,42.73424234375,23.091223486328126,42.69082234375Q23.134643486328123,42.64740234375,23.182113486328127,42.60844234375Q23.229583486328124,42.569482343749996,23.280643486328124,42.53537234375Q23.331703486328124,42.50125234375,23.385863486328127,42.47230234375Q23.440023486328123,42.443362343749996,23.496753486328124,42.41985234375Q23.553483486328126,42.39636234375,23.612253486328125,42.37853234375Q23.671013486328125,42.36070234375,23.731243486328125,42.34872234375Q23.791473486328123,42.336742343750004,23.852583486328125,42.33072234375Q23.913703486328124,42.32470234375,23.975123486328123,42.32470234375Q24.036523486328125,42.32470234375,24.097623486328125,42.33072234375Q24.158723486328125,42.336742343750004,24.218923486328123,42.34872234375Q24.279223486328124,42.36070234375,24.337923486328123,42.37853234375Q24.396723486328124,42.39636234375,24.453423486328127,42.41985234375Q24.510223486328123,42.443362343749996,24.564323486328124,42.47230234375Q24.618523486328122,42.50125234375,24.669523486328124,42.53537234375Q24.720623486328122,42.569482343749996,24.768123486328125,42.60844234375Q24.815523486328125,42.64740234375,24.859023486328127,42.69082234375Q24.902423486328125,42.73424234375,24.941323486328123,42.78171234375Q24.980323486328125,42.82918234375,25.014423486328127,42.88024234375Q25.048523486328126,42.93130234375,25.077523486328126,42.98546234375Q25.106423486328126,43.03961234375,25.129923486328124,43.09635234375Q25.153423486328123,43.15308234375,25.171323486328127,43.211852343749996Q25.189123486328125,43.27061234375,25.201123486328125,43.33084234375Q25.213023486328126,43.39107234375,25.219123486328122,43.452182343749996Q25.225123486328123,43.51330234375,25.225123486328123,43.57470234375ZM15.175323486328125,33.52490234375Q15.175323486328125,33.58631094375,15.169303486328126,33.64742334375Q15.163283486328124,33.70853634375,15.151303486328125,33.76876534375Q15.139323486328125,33.82899334375,15.121503486328125,33.88775834375Q15.103673486328125,33.94652234375,15.080173486328125,34.00325634375Q15.056673486328124,34.05999034375,15.027723486328124,34.11414834375Q14.998773486328124,34.16830534375,14.964663486328124,34.21936534375Q14.930543486328125,34.27042434375,14.891586486328125,34.31789434375Q14.852629486328125,34.36536334375,14.809206486328126,34.40878534375Q14.765784486328124,34.45220834375,14.718315486328125,34.49116534375Q14.670845486328124,34.53012234375,14.619786486328126,34.56424234375Q14.568726486328124,34.59835234375,14.514569486328124,34.62730234375Q14.460411486328125,34.65625234375,14.403677486328125,34.67975234375Q14.346943486328126,34.70325234375,14.288179486328126,34.72108234375Q14.229414486328125,34.73890234375,14.169186486328124,34.75088234375Q14.108957486328125,34.76286234375,14.047844486328126,34.76888234375Q13.986732086328125,34.77490234375,13.925323486328125,34.77490234375Q13.863914886328125,34.77490234375,13.802802486328124,34.76888234375Q13.741689486328125,34.76286234375,13.681460486328126,34.75088234375Q13.621232486328125,34.73890234375,13.562467486328124,34.72108234375Q13.503703486328124,34.70325234375,13.446969486328125,34.67975234375Q13.390235486328125,34.65625234375,13.336077486328126,34.62730234375Q13.281920486328126,34.59835234375,13.230860486328124,34.56424234375Q13.179801486328126,34.53012234375,13.132331486328125,34.49116534375Q13.084862486328126,34.45220834375,13.041440486328124,34.40878534375Q12.998017486328125,34.36536334375,12.959060486328125,34.31789434375Q12.920103486328125,34.27042434375,12.885983486328126,34.21936534375Q12.851873486328126,34.16830534375,12.822923486328126,34.11414834375Q12.793973486328126,34.05999034375,12.770473486328125,34.00325634375Q12.746973486328125,33.94652234375,12.729143486328125,33.88775834375Q12.711323486328125,33.82899334375,12.699343486328125,33.76876534375Q12.687363486328126,33.70853634375,12.681343486328124,33.64742334375Q12.675323486328125,33.58631094375,12.675323486328125,33.52490234375Q12.675323486328125,33.46349374375,12.681343486328124,33.40238134375Q12.687363486328126,33.34126834375,12.699343486328125,33.28103934375Q12.711323486328125,33.22081134375,12.729143486328125,33.16204634375Q12.746973486328125,33.10328234375,12.770473486328125,33.04654834375Q12.793973486328126,32.98981434375,12.822923486328126,32.93565634375Q12.851873486328126,32.88149934375,12.885983486328126,32.83043934375Q12.920103486328125,32.77938034375,12.959060486328125,32.73191034375Q12.998017486328125,32.68444134375,13.041440486328124,32.64101934375Q13.084862486328126,32.59759634375,13.132331486328125,32.55863934375Q13.179801486328126,32.51968234375,13.230860486328124,32.48556234375Q13.281920486328126,32.45145234375,13.336077486328126,32.42250234375Q13.390235486328125,32.39355234375,13.446969486328125,32.37005234375Q13.503703486328124,32.34655234375,13.562467486328124,32.32872234375Q13.621232486328125,32.31090234375,13.681460486328126,32.29892234375Q13.741689486328125,32.28694234375,13.802802486328124,32.28092234375Q13.863914886328125,32.27490234375,13.925323486328125,32.27490234375Q13.986732086328125,32.27490234375,14.047844486328126,32.28092234375Q14.108957486328125,32.28694234375,14.169186486328124,32.29892234375Q14.229414486328125,32.31090234375,14.288179486328126,32.32872234375Q14.346943486328126,32.34655234375,14.403677486328125,32.37005234375Q14.460411486328125,32.39355234375,14.514569486328124,32.42250234375Q14.568726486328124,32.45145234375,14.619786486328126,32.48556234375Q14.670845486328124,32.51968234375,14.718315486328125,32.55863934375Q14.765784486328124,32.59759634375,14.809206486328126,32.64101934375Q14.852629486328125,32.68444134375,14.891586486328125,32.73191034375Q14.930543486328125,32.77938034375,14.964663486328124,32.83043934375Q14.998773486328124,32.88149934375,15.027723486328124,32.93565634375Q15.056673486328124,32.98981434375,15.080173486328125,33.04654834375Q15.103673486328125,33.10328234375,15.121503486328125,33.16204634375Q15.139323486328125,33.22081134375,15.151303486328125,33.28103934375Q15.163283486328124,33.34126834375,15.169303486328126,33.40238134375Q15.175323486328125,33.46349374375,15.175323486328125,33.52490234375Z" fill="#FFFFFF" fill-opacity="1"/></g></g><g style="mix-blend-mode:passthrough"><rect x="0" y="0" width="58" height="58" rx="0" fill="#D8D8D8" fill-opacity="0"/></g></g></svg>