<svg xmlns="http://www.w3.org/2000/svg" xmlns:xlink="http://www.w3.org/1999/xlink" fill="none" version="1.1" width="58" height="58" viewBox="0 0 58 58"><g style="mix-blend-mode:passthrough"><g style="mix-blend-mode:passthrough"><g style="mix-blend-mode:passthrough"><g style="mix-blend-mode:passthrough"><path d="M49.58162833900452,25.569901615142822Q50.05882833900451,28.43280161514282,49.81052833900452,31.070501615142824Q49.734628339004516,31.792301615142822,49.572828339004516,32.37490161514282Q49.556328339004516,32.43410161514282,49.534228339004514,32.491301615142824Q49.512028339004516,32.54860161514282,49.484428339004516,32.60340161514282Q49.45672833900451,32.65830161514282,49.423828339004515,32.71010161514282Q49.39092833900452,32.76200161514282,49.35312833900451,32.81030161514282Q49.31522833900452,32.85870161514282,49.27282833900452,32.90310161514282Q49.230528339004515,32.94760161514282,49.18392833900452,32.987701615142825Q49.137428339004515,33.02770161514282,49.087128339004515,33.063001615142824Q49.03692833900452,33.09830161514282,48.98342833900452,33.12860161514283Q48.930028339004515,33.15880161514282,48.87382833900452,33.18360161514282Q48.81772833900452,33.20840161514282,48.75932833900452,33.227601615142824Q48.701028339004516,33.24680161514282,48.64112833900452,33.26020161514282Q48.581128339004515,33.27360161514282,48.52022833900452,33.28110161514282Q48.45922833900452,33.288601615142824,48.39782833900452,33.29000161514283Q48.336528339004516,33.29150161514282,48.275228339004514,33.286901615142824Q48.214028339004514,33.28230161514282,48.15352833900452,33.271701615142824Q48.09302833900452,33.261201615142824,48.033828339004515,33.24480161514282Q47.77002833900452,33.17150161514282,47.56092833900452,32.99460161514283Q44.61722833900452,30.503701615142823,40.739728339004515,30.503701615142823Q38.583928339004515,30.503701615142823,36.61462833900451,31.337701615142823Q34.71132833900452,32.14360161514282,33.24152833900452,33.61350161514282Q31.771628339004515,35.08330161514282,30.965728339004517,36.98660161514282Q30.131728339004518,38.95590161514282,30.131728339004518,41.11170161514282Q30.131728339004518,44.989201615142825,32.62262833900452,47.932901615142825Q32.66232833900452,47.979801615142826,32.69712833900452,48.03040161514282Q32.732028339004515,48.08090161514282,32.761828339004516,48.13460161514282Q32.791528339004515,48.18830161514282,32.815928339004515,48.24470161514282Q32.84022833900451,48.30110161514282,32.85892833900452,48.35960161514282Q32.87762833900452,48.418101615142824,32.89052833900452,48.47810161514282Q32.90342833900452,48.53810161514282,32.910328339004515,48.599201615142825Q32.91732833900451,48.660201615142824,32.918228339004514,48.72160161514282Q32.919128339004516,48.78300161514282,32.91402833900452,48.84420161514282Q32.90892833900452,48.90540161514282,32.897928339004515,48.96580161514282Q32.886828339004516,49.026201615142824,32.86982833900451,49.08520161514282Q32.85292833900452,49.14420161514282,32.83032833900452,49.201301615142825Q32.807628339004516,49.25840161514282,32.779528339004514,49.313001615142824Q32.75142833900452,49.367601615142824,32.71802833900452,49.41910161514282Q32.684728339004515,49.47070161514282,32.646428339004515,49.518701615142824Q32.60822833900451,49.56680161514282,32.56542833900451,49.61090161514282Q32.522728339004516,49.65490161514282,32.475828339004515,49.69460161514282Q32.266728339004516,49.87150161514282,32.00292833900451,49.94480161514282Q31.420328339004516,50.10660161514282,30.71222833900452,50.18110161514282Q28.060828339004516,50.43080161514282,25.197928339004516,49.95360161514282Q21.98792833900452,49.40690161514282,19.080308339004517,47.87050161514282Q16.247118339004516,46.37330161514282,13.970608339004517,44.08290161514282Q11.694168339004516,41.792501615142825,10.212508339004517,38.948301615142825Q8.692016339004516,36.02960161514282,8.161785339004517,32.81700161514282Q7.294488339004516,27.55950161514282,8.932583339004516,22.624601615142822Q10.495088339004516,17.917381615142823,14.020248339004517,14.392221615142823Q17.545408339004517,10.867061615142822,22.252628339004517,9.304560615142822Q27.187528339004515,7.6664716151428225,32.44492833900452,8.533747615142822Q35.65762833900452,9.063988615142822,38.57632833900452,10.584481615142822Q41.42052833900452,12.066131615142822,43.71092833900452,14.342581615142823Q46.001328339004516,16.61909161514282,47.498528339004515,19.452281615142823Q49.034928339004516,22.359901615142824,49.580928339004515,25.56550161514282L49.58162833900452,25.569901615142822ZM47.116428339004514,25.985201615142824Q46.146028339004516,20.287601615142822,41.94852833900452,16.115751615142823Q37.750428339004515,11.943221615142821,32.03802833900451,11.000411615142822Q27.389528339004517,10.233566615142822,23.040228339004514,11.677261615142822Q18.894688339004517,13.053321615142822,15.788018339004516,16.159991615142822Q12.681338339004517,19.266661615142823,11.305278339004516,23.41220161514282Q9.861588339004516,27.761501615142823,10.628418339004517,32.40990161514282Q11.571248339004516,38.12240161514282,15.743778339004518,42.320501615142824Q19.915628339004517,46.51800161514282,25.608928339004517,47.48760161514282Q28.150628339004516,47.91120161514282,30.450528339004517,47.694901615142825Q30.951728339004518,47.64210161514282,31.333828339004516,47.53600161514282L31.668428339004517,48.74040161514282L30.714128339004517,49.54780161514282Q27.631728339004518,45.90500161514282,27.631728339004518,41.11170161514282Q27.631728339004518,38.44840161514282,28.663628339004518,36.011701615142826Q29.659528339004517,33.66000161514282,31.473728339004516,31.845701615142822Q33.28802833900451,30.031501615142822,35.63972833900452,29.035601615142824Q38.076428339004515,28.003701615142823,40.739728339004515,28.003701615142823Q45.53292833900451,28.003701615142823,49.17582833900452,31.086101615142823L48.36842833900452,32.04040161514283L47.16402833900452,31.70580161514282Q47.270128339004515,31.323701615142824,47.321528339004516,30.836201615142823Q47.53932833900452,28.52270161514282,47.115628339004516,25.980901615142823L47.116428339004514,25.985201615142824Z" fill="#FFFFFF" fill-opacity="1"/></g><g style="mix-blend-mode:passthrough"><path d="M40.73975201416016,28.00372314453125Q45.53295201416016,28.00372314453125,49.17585201416016,31.08612314453125Q49.24435201416016,31.14409314453125,49.30385201416016,31.21126314453125Q49.36345201416016,31.27843314453125,49.412752014160155,31.35341314453125Q49.46205201416016,31.42839314453125,49.50015201416016,31.50965314453125Q49.53825201416016,31.59091314453125,49.56435201416016,31.67678314453125Q49.59045201416016,31.76265314453125,49.60405201416016,31.85137314453125Q49.61765201416016,31.94009314453125,49.61835201416015,32.02984314453125Q49.61915201416016,32.11959314453125,49.60705201416016,32.20852314453125Q49.59495201416016,32.29746314453125,49.57035201416016,32.38375314453125Q49.062352014160155,34.16164314453125,47.73055201416015,35.49347314453125L35.12150201416016,48.10252314453125Q33.78967201416015,49.43432314453125,32.011782014160154,49.94232314453125Q31.925482014160156,49.96692314453125,31.836552014160155,49.979023144531254Q31.747612014160158,49.99112314453125,31.657872014160155,49.990323144531246Q31.568122014160156,49.98962314453125,31.479402014160158,49.976023144531254Q31.390682014160156,49.96242314453125,31.304812014160156,49.93632314453125Q31.218942014160156,49.91022314453125,31.137682014160156,49.87212314453125Q31.056422014160155,49.83402314453125,30.981442014160155,49.78472314453125Q30.906462014160155,49.735423144531254,30.839292014160158,49.67582314453125Q30.772122014160157,49.61632314453125,30.714152014160156,49.54782314453125Q27.631752014160156,45.90492314453125,27.631752014160156,41.111723144531254Q27.631752014160156,38.448353144531254,28.663596014160156,36.01171314453125Q29.659489014160155,33.65997314453125,31.473742014160155,31.84571314453125Q33.288002014160156,30.03146114453125,35.639742014160156,29.03556814453125Q38.07638201416016,28.00372314453125,40.73975201416016,28.00372314453125L40.73975201416016,28.00372314453125ZM40.73975201416016,30.50372314453125Q38.58390201416016,30.50372314453125,36.61461201416016,31.33766314453125Q34.711372014160155,32.14362314453125,33.24151201416016,33.61348314453125Q31.771652014160157,35.08334314453125,30.965692014160155,36.98658314453125Q30.131752014160156,38.95587314453125,30.131752014160156,41.111723144531254Q30.131752014160156,44.98922314453125,32.622612014160154,47.93292314453125L31.668382014160155,48.74042314453125L31.324982014160156,47.53842314453125Q32.479972014160154,47.20842314453125,33.35373201416016,46.33472314453125L45.96275201416016,33.72570314453125Q46.83645201416016,32.85195314453125,47.16645201416016,31.69695314453125L48.368452014160155,32.04035314453125L47.56095201416016,32.99458314453125Q44.61725201416016,30.50372314453125,40.73975201416016,30.50372314453125L40.73975201416016,30.50372314453125Z" fill="#FFFFFF" fill-opacity="1"/></g><g style="opacity:0;mix-blend-mode:passthrough"></g></g><g style="mix-blend-mode:passthrough"><rect x="0" y="0" width="58" height="58" rx="0" fill="#D8D8D8" fill-opacity="0"/></g></g></g></svg>