<svg xmlns="http://www.w3.org/2000/svg" xmlns:xlink="http://www.w3.org/1999/xlink" fill="none" version="1.1" width="208" height="52" viewBox="0 0 208 52"><g style="mix-blend-mode:passthrough"><path d="M19.9688,32.875Q18.6094,30.0625,16.6875,26.8438L14.1406,47.375L9.20312,47.375L11.3906,29.2812Q8.46875,34.1719,5.67188,37.5L1.8125,35.1094Q7.125,28.9219,11.8594,20.9062L4.98438,20.9062L5.51562,16.2344L13,16.2344L13.7344,10.0469Q11.4844,10.3594,6.39062,10.8281L7.01562,6.14062Q15.75,5.35938,24.4375,3.70312L23.875,8.59375Q22.4062,8.90625,21.4219,9L18.8281,9.42188L17.9844,16.2344L23.9219,16.2344L23.3438,20.9062L17.4219,20.9062L17.3125,21.5312Q20.0156,25.0156,23.7656,30.375L19.9688,32.875ZM45.5,29.125L24.4844,29.125L26.7812,10.0469Q27.0469,7.54688,28.2031,6.48438Q29.375,5.42188,31.7656,5.42188L43.0625,5.42188Q45.4531,5.42188,46.6094,6.78125Q47.7812,8.125,47.5312,10.6094L45.5,29.125ZM29.9531,24.4531L41.0781,24.4531L42.4844,10.0938L31.5156,10.0938L29.9531,24.4531ZM24.9531,47.2812L19.5469,47.2812L27.6094,32.0938L32.6562,32.0938L24.9531,47.2812ZM41.9688,32.0938L47.6875,47.375L42.4375,47.375L37.0312,32.0938L41.9688,32.0938ZM64.8438,21.0625L62.9219,23.0938L60.8906,25.125L55.2188,23.5156Q60.4219,18.625,64.7969,13.1094Q68.1719,8.90625,71.5,3.54688L77.7969,3.54688Q71.9219,13.1562,65.2656,20.5938L88.9219,20.5938Q91.3594,20.5938,92.3438,22Q93.3438,23.4062,93.3438,25.9531Q93.3438,27.9844,92.6094,32.3594L92.25,34.6406Q91.5781,39.2188,90.8438,43.4219Q90.4844,45.4531,89.3594,46.4688Q88.25,47.4844,86.4219,47.4844Q85.5938,47.4844,85.125,47.375Q81.0156,46.6562,75.1875,44.6719L75.7188,39.5781Q80.75,41.2969,84.6562,41.9219Q84.8594,41.9688,85.2344,41.9688Q85.5938,41.9688,85.7188,41.7969Q85.8594,41.6094,85.9531,40.9844Q87.2031,33.6562,87.875,25.3906L75.9688,25.3906Q74.1562,32.6562,70.6719,37.9688Q66.9688,43.5781,61.3125,47.5938L56.2188,45.2031Q62.2969,40.9375,65.7812,36.0469Q69.0625,31.3594,70.5625,25.3906L64.375,25.3906L64.8438,21.0625ZM87.9375,3.54688Q90.6875,8.28125,93.8594,12.7031Q97.7656,18.1562,101.875,23.0938L96.2031,24.6562Q92.2031,19.5156,88.9688,14.625Q86.5781,11.0781,82.0625,3.54688L87.9375,3.54688ZM142.109,14.9844L150.328,28.6562L144.406,28.6562L143,26.2188L138.734,26.6875L137.125,41.25Q137.078,41.3438,137.078,41.6094Q137.078,42.2812,137.906,42.2812L142.062,42.2812Q144.609,42.2812,146.719,42.0312Q148.828,41.7656,151.109,41.0938L150.484,46.6562Q147.984,47.0625,146.75,47.2188Q144.812,47.4375,141.594,47.4375L135.672,47.4375Q131.562,47.4375,131.562,43.3281Q131.562,42.6406,131.609,42.2344L133.328,27.0938Q130,27.3125,126.562,27.4062Q125.016,34.125,121.266,39.5938Q117.516,45.0469,112.312,48.4688L107.797,45.4062Q113.047,42.0312,116.297,37.7656Q119.547,33.5,121.109,27.5156L118.203,27.5156Q117.828,27.5156,116.578,27.5156Q115.344,27.5156,114.453,27.4219Q113.562,27.3125,113.094,27Q112.016,26.375,112.016,25.1719Q112.016,24.5,112.266,23.9844Q112.688,22.9844,113.828,22Q115.078,20.9688,118.453,17.5781Q120.328,15.7656,123.297,12.7031L110.391,12.7031L110.969,7.8125L129.016,7.8125L127.719,2.92188L133.219,2.92188L134.734,7.8125L152.25,7.8125L151.688,12.7031L129.953,12.7031Q123.969,19.4062,120.125,22.8438Q130.047,22.8438,140.344,21.6875L136.5,14.9844L142.109,14.9844ZM204.25,11.5L192.344,11.5L191.938,15.0938L197.859,15.0938Q202.438,15.0938,201.969,19.4531L199.375,43.0625L204.047,43.0625L203.578,47.2188L170.047,47.2188L170.516,43.0625L174.203,43.0625L176.906,18.8281Q177.375,15.0938,181.266,15.0938L186.984,15.0938L187.406,11.5L176.078,11.5L176.547,7.34375L187.922,7.34375L188.453,3.07812L193.391,3.07812L192.875,7.34375L204.781,7.34375L204.25,11.5ZM176.75,3.34375L171.859,12.2344L167.859,48L162.859,48L165.984,22.1562L164.062,25.2344L158.344,25.2344Q162.547,18.9375,165.516,13.8438Q168.531,8.53125,171.078,3.34375L176.75,3.34375ZM197.078,19.0469L181.734,19.0469L181.375,22.2188L196.766,22.2188L197.078,19.0469ZM196.359,25.9531L180.953,25.9531L180.594,29.125L196.047,29.125L196.359,25.9531ZM195.672,32.875L180.188,32.875L179.812,36.0469L195.359,36.0469L195.672,32.875ZM195,39.7812L179.406,39.7812L179.031,43.0625L194.641,43.0625L195,39.7812Z" fill="#3D3D3D" fill-opacity="1"/></g></svg>