<svg xmlns="http://www.w3.org/2000/svg" xmlns:xlink="http://www.w3.org/1999/xlink" fill="none" version="1.1" width="216.88018798828125" height="50.357421875" viewBox="0 0 216.88018798828125 50.357421875"><g style="mix-blend-mode:passthrough"><g style="mix-blend-mode:passthrough"><path d="M76.49119999999999,17.200221875L76.49119999999999,23.897421875L73.0635,23.897421875L73.0635,17.604521875L63.34277,18.738321875L63.17578,15.284221875L73.0635,14.176721874999998L73.0635,0.0791018750000001L76.49119999999999,0.0791018750000001L76.49119999999999,13.772421875L79.4092,13.447221875L79.56739999999999,16.848621875L76.49119999999999,17.200221875ZM61.75195,0.1933618749999999L61.75195,4.350581875L64.4502,4.350581875L64.4502,7.637721875L61.75195,7.637721875L61.75195,10.476521875L64.0723,9.641621875L64.8809,12.876021875Q64.2041,13.095721874999999,63.4043,13.376921875Q62.61328,13.658221874999999,61.75195,13.983421875000001L61.75195,18.984421875Q61.75195,20.821321875,60.87305,22.007821875Q59.99414,23.194321875,58.07812,24.222621875L56.29395,21.304721875Q57.48047,20.707021875,57.91113,20.100621875Q58.35059,19.494121875,58.35059,18.580121875L58.35059,15.231421874999999Q57.72656,15.468721875,57.14648,15.688521875Q56.56641,15.899421875000002,56.10938,16.066421875L55.18652,12.665021875Q55.88965,12.445321875000001,56.68066,12.208021875Q57.48047,11.961921875000002,58.35059,11.663121875000002L58.35059,7.637721875L55.81055,7.637721875L55.81055,4.350581875L58.35059,4.350581875L58.35059,0.1933618749999999L61.75195,0.1933618749999999ZM70.1719,8.209021875Q68.959,6.908221875000001,67.7109,5.695321874999999Q66.4717,4.482421875,65.50489999999999,3.6210918749999994L67.77250000000001,1.1865218750000004Q68.8535,2.1884718750000003,70.0928,3.3486318750000006Q71.332,4.508821875000001,72.5449,5.642621875L70.1719,8.209021875ZM68.9854,14.528321875Q68.502,13.957021874999999,67.9043,13.350621875000002Q67.3066,12.744121875000001,66.7002,12.128921875Q66.0938,11.504921875,65.4873,10.916021874999998Q64.8809,10.318321875,64.3711,9.799821875L66.6914,7.5058218750000005Q67.8516,8.639621875,69.0908,9.870121875Q70.3389,11.100621875000002,71.3584,12.067421875L68.9854,14.528321875ZM92.63669999999999,0.0000018749999997069722L96.1699,0.0000018749999997069722L96.1699,5.510721875Q97.9014,4.754921875000001,99.00880000000001,3.726561875L97.9541,3.049801875L99.7119,0.6503918750000004Q100.5205,1.107421875,101.46090000000001,1.6787118750000003Q102.4102,2.2412118750000003,103.3682,2.8388718750000006Q104.3262,3.427731874999999,105.2402,4.007811875Q106.1631,4.587921874999999,106.8926,5.080121875L105.0029,7.804721875Q104.2471,7.286121874999999,103.3506,6.653321875Q102.46289999999999,6.020521875,101.52250000000001,5.3965218749999995Q100.2217,6.776321875000001,98.2881,7.822221875Q96.36330000000001,8.859421875,93.9902,9.562521875L100.8193,9.562521875Q101.90039999999999,9.562521875,102.542,9.764621875Q103.19239999999999,9.966821875,103.5527,10.335921875Q103.9219,10.696321874999999,104.0449,11.250021875000002Q104.168,11.803721875,104.168,12.471721875L104.168,23.897421875L100.6523,23.897421875L100.6523,22.948221875L89.209,22.948221875L89.209,23.897421875L85.7812,23.897421875L85.7812,10.801721874999998Q85.4033,10.828121875,85.0518,10.828121875Q84.7002,10.828121875,84.3223,10.828121875L82.8633,10.828121875L82.8633,7.725621875L84.10249999999999,7.725621875L84.375,7.725621875L82.7578,5.3965218749999995Q84.375,4.456021874999999,85.9482,3.199221874999999Q87.5303,1.9423818749999997,88.75200000000001,0.6503918750000004L91.125,2.9970718749999996Q89.91210000000001,4.130861875000001,88.2861,5.387721875Q86.66890000000001,6.644521875000001,85.1309,7.725621875Q87.5039,7.637721875,89.95609999999999,7.259721875Q92.417,6.881821875,94.5791,6.126021874999999L92.63669999999999,6.126021874999999L92.63669999999999,0.0000018749999997069722ZM89.209,16.769521875L100.6523,16.769521875L100.6523,15.767621875L89.209,15.767621875L89.209,16.769521875ZM89.209,12.313521875L89.209,13.201221875000002L100.6523,13.201221875000002L100.6523,12.313521875L89.209,12.313521875ZM89.209,20.170921875L100.6523,20.170921875L100.6523,19.335921875L89.209,19.335921875L89.209,20.170921875ZM129.3047,23.466821875L120.0938,23.466821875Q118.9072,23.466821875,118.0723,23.229521875Q117.2373,23.001021875,116.69239999999999,22.500021875Q116.1562,22.007821875,115.8926,21.208021875Q115.6377,20.408221875,115.6377,19.248021875L115.6377,5.2383218750000005L119.2588,5.2383218750000005L119.2588,18.334021875Q119.2588,19.335921875,119.6191,19.687521875Q119.9883,20.030321875,121.0693,20.030321875L129.3047,20.030321875L129.3047,23.466821875ZM115.1279,8.235321875Q114.4512,11.100621875000002,113.66890000000001,13.693321874999999Q112.88669999999999,16.277321875,111.999,18.843721875L108.5361,17.657221875Q109.3535,15.336921875000002,110.1445,12.709021875000001Q110.9443,10.072221875,111.5332,7.400421874999999L115.1279,8.235321875ZM130.7637,18.518521875Q130.4385,17.578121875,129.9463,16.259721875Q129.4629,14.932621874999999,128.9092,13.526321875Q128.3555,12.120121874999999,127.8018,10.801721874999998Q127.248,9.474621875,126.8438,8.560521875L130.1396,7.259721875Q130.4912,8.050821875,131.0186,9.281221875Q131.54590000000002,10.502921874999998,132.10840000000002,11.882821875000001Q132.6797,13.253921875,133.23340000000002,14.633821874999999Q133.7871,16.013621875,134.2178,17.121121875L130.7637,18.518521875ZM123.1436,10.450221875Q122.8535,9.799821875,122.2734,8.630821875Q121.6934,7.453121875000001,121.043,6.196321875000001Q120.3926,4.939421875000001,119.7861,3.796871875000001Q119.1797,2.6455118750000004,118.8281,1.9951218749999997L121.8516,0.4043018749999998Q122.2559,1.107421875,122.8623,2.206051875Q123.4688,3.295901875,124.1191,4.473621874999999Q124.7695,5.642621875,125.3848,6.767621875Q126.0088,7.883821875000001,126.4131,8.613321875L123.1436,10.450221875Z" fill="#322A2F" fill-opacity="1"/></g><g style="mix-blend-mode:passthrough"><path d="M56.58854,34.774091874999996C57.229169999999996,35.550131875,57.947919999999996,36.607421875,58.270830000000004,37.284501875000004L59.35938,36.737631875C59.020830000000004,36.060541875,58.270830000000004,35.039711875,57.614580000000004,34.315751875000004L56.58854,34.774091874999996ZM61.98438,41.539721875C62.79688,42.539721875,63.74479,43.914721875,64.1562,44.784521874999996L65.2135,44.195921874999996C64.7812,43.341821875,63.80729,42.013621875,62.97396,41.044921875L61.98438,41.539721875ZM60.572919999999996,33.883461875L60.572919999999996,35.831381875C60.572919999999996,36.456381875,60.55729,37.117841874999996,60.510419999999996,37.826171875L55.30729,37.826171875L55.30729,39.024091874999996L60.38021,39.024091874999996C59.98438,41.945921874999996,58.71875,45.242821875000004,54.875,47.794921875C55.16667,47.987621875,55.61458,48.404321875,55.82292,48.675121875C59.916669999999996,45.919921875,61.229169999999996,42.242821875000004,61.614580000000004,39.024091874999996L67.1354,39.024091874999996C66.9115,44.607421875,66.6562,46.805321875000004,66.1719,47.310521875C66,47.508421874999996,65.8229,47.555321875000004,65.4688,47.539721875C65.0885,47.539721875,64.0781,47.539721875,62.989580000000004,47.440721875C63.229169999999996,47.794921875,63.39062,48.326221875,63.40625,48.690721875C64.3958,48.742821875000004,65.4062,48.774121875,65.9688,48.727221875C66.5573,48.659521874999996,66.9271,48.534521874999996,67.2969,48.070921874999996C67.9167,47.326221875,68.1406,45.013621875,68.401,38.451171875C68.401,38.258461875,68.4167,37.826171875,68.4167,37.826171875L61.739580000000004,37.826171875C61.77604,37.133461875,61.791669999999996,36.456381875,61.791669999999996,35.847001875000004L61.791669999999996,33.883461875L60.572919999999996,33.883461875ZM77.4688,38.320961875C77.0365,39.482421875,76.2865,40.617821875000004,75.4375,41.388621875C75.70830000000001,41.550121875,76.1562,41.893921875000004,76.349,42.091821875C77.1979,41.253221875,78.0469,39.945921874999996,78.5729,38.633461875L77.4688,38.320961875ZM79.8698,36.972001875000004L79.8698,41.794921875C79.8698,41.961621875,79.8073,42.008421874999996,79.6146,42.024121875C79.4062,42.044921875,78.75,42.044921875,77.9844,42.024121875C78.1406,42.315721875,78.3177,42.763621875,78.3802,43.065721875C79.375,43.065721875,80.0469,43.065721875,80.4635,42.888621875C80.9115,42.716821875,81.02080000000001,42.409521874999996,81.02080000000001,41.815721875L81.02080000000001,36.972001875000004L79.8698,36.972001875000004ZM81.901,38.763671875C82.6875,39.779321875,83.52080000000001,41.190721875,83.8698,42.107421875L84.9115,41.550121875C84.526,40.649121875,83.6927,39.305341874999996,82.8646,38.284501875000004L81.901,38.763671875ZM74.1875,43.987621875L74.1875,46.820921874999996C74.1875,48.128221875,74.6875,48.461621875,76.60419999999999,48.461621875C77.0052,48.461621875,80.0312,48.461621875,80.4479,48.461621875C82.0312,48.461621875,82.41669999999999,47.982421875,82.5729,45.909521874999996C82.2552,45.847021874999996,81.7448,45.664721875,81.4688,45.456421875000004C81.3906,47.133421874999996,81.2448,47.357421875,80.3646,47.357421875C79.6927,47.357421875,77.151,47.357421875,76.6562,47.357421875C75.58330000000001,47.357421875,75.3906,47.279321875,75.3906,46.789721875L75.3906,43.987621875L74.1875,43.987621875ZM76.6198,43.258421874999996C77.5,44.117821875000004,78.47919999999999,45.357421875,78.89580000000001,46.154321875L79.8854,45.534521874999996C79.4531,44.737621875,78.4323,43.550121875,77.5521,42.732421875L76.6198,43.258421874999996ZM82.2865,44.201221875C83.02080000000001,45.373021875,83.7448,46.935521875,83.9844,47.919921875L85.1198,47.472021874999996C84.8646,46.466821875,84.0938,44.951221875,83.3594,43.779321875L82.2865,44.201221875ZM72.39580000000001,44.070921874999996C72.0312,45.143921875000004,71.4062,46.643921875000004,70.7656,47.586621875L71.8854,48.128221875C72.47919999999999,47.133421874999996,73.0521,45.602221875,73.4531,44.524121875L72.39580000000001,44.070921874999996ZM77.4844,33.857421875C76.95830000000001,35.393881875,76.0156,36.873041875,74.9271,37.831381875C75.1823,38.013671875,75.6302,38.404301875,75.8229,38.597001875000004C76.4115,38.013671875,77.0052,37.248041875,77.5156,36.399091874999996L83.5521,36.399091874999996C83.3125,37.003251875000004,83.02080000000001,37.586591874999996,82.7812,38.013671875L83.8073,38.222001875000004C84.20830000000001,37.555341874999996,84.7031,36.466801875,85.1198,35.534501875000004L84.2865,35.326171875L84.0938,35.357421875L78.0781,35.357421875C78.2865,34.956381875,78.4635,34.550131875,78.60419999999999,34.133461875L77.4844,33.857421875ZM74.39580000000001,33.789711875C73.4844,35.602211875,72.0469,37.378251875000004,70.5573,38.534501875000004C70.7969,38.774091874999996,71.1979,39.268881875,71.3438,39.498021875C71.85419999999999,39.055341874999996,72.3802,38.513671875,72.89580000000001,37.940751875000004L72.89580000000001,43.169921875L74.0625,43.169921875L74.0625,36.451171875C74.5885,35.727211875,75.0677,34.940751875000004,75.4688,34.164711875L74.39580000000001,33.789711875ZM90.2552,34.794921875C89.58330000000001,36.284501875000004,88.4479,37.701171875,87.21350000000001,38.628251875000004C87.5,38.794921875,88.0156,39.138671875,88.2396,39.357421875C89.4219,38.331381875,90.6719,36.763671875,91.4375,35.128251875000004L90.2552,34.794921875ZM96.6198,35.305341874999996C97.9323,36.362631875,99.4531,37.919921875,100.125,38.940751875000004L101.15100000000001,38.216801875C100.41669999999999,37.190751875000004,98.8802,35.706381875,97.5677,34.680341874999996L96.6198,35.305341874999996ZM93.2448,33.873041875L93.2448,39.373021875L93.3906,39.373021875C91.3906,40.164721875,88.9896,40.675121875,86.5729,40.966821875C86.8125,41.237621875,87.1823,41.748021875,87.3438,42.029321875C88.1094,41.904321875,88.8802,41.763621875,89.64580000000001,41.607421875L89.64580000000001,48.810521875L90.8125,48.810521875L90.8125,48.024121875L98.0312,48.024121875L98.0312,48.758421874999996L99.2448,48.758421874999996L99.2448,40.690721875L93.0052,40.690721875C95.1823,39.935521875,97.10419999999999,38.878251875000004,98.3646,37.404301875L97.22919999999999,36.862631875C96.54169999999999,37.669921875,95.58330000000001,38.347001875000004,94.4323,38.909501875000004L94.4323,33.873041875L93.2448,33.873041875ZM90.8125,43.690721875L98.0312,43.690721875L98.0312,45.024121875L90.8125,45.024121875L90.8125,43.690721875ZM90.8125,42.794921875L90.8125,41.654321875L98.0312,41.654321875L98.0312,42.794921875L90.8125,42.794921875ZM90.8125,45.904321875L98.0312,45.904321875L98.0312,47.081421875000004L90.8125,47.081421875000004L90.8125,45.904321875ZM102.7031,40.690721875L102.7031,42.003221875L117.3594,42.003221875L117.3594,40.690721875L102.7031,40.690721875ZM121.7917,40.024121875L130.1562,40.024121875L130.1562,42.904321875L121.7917,42.904321875L121.7917,40.024121875ZM123.4375,45.466821875C123.6458,46.529321875,123.776,47.904321875,123.776,48.727221875L124.9896,48.560521875C124.974,47.774121875,124.8125,46.414721875,124.5729,45.367821875000004L123.4375,45.466821875ZM126.75,45.482421875C127.2135,46.498021875,127.6927,47.873021875,127.8698,48.690721875L129.0365,48.383421874999996C128.8438,47.560521875,128.3333,46.237621875,127.8385,45.237621875L126.75,45.482421875ZM130.0156,45.352221875C130.8125,46.383421874999996,131.7083,47.841821875,132.0781,48.742821875000004L133.2135,48.248021875C132.8125,47.352221875,131.8854,45.956421875000004,131.0885,44.925121875L130.0156,45.352221875ZM120.8281,45.024121875C120.3333,46.237621875,119.5156,47.560521875,118.6719,48.315721875L119.7552,48.857421875C120.6354,47.987621875,121.4531,46.612621875,121.9635,45.336621875L120.8281,45.024121875ZM120.651,38.888671875L120.651,44.024121875L131.3594,44.024121875L131.3594,38.888671875L126.4792,38.888671875L126.4792,36.690751875000004L132.5573,36.690751875000004L132.5573,35.555341874999996L126.4792,35.555341874999996L126.4792,33.862631875L125.276,33.862631875L125.276,38.888671875L120.651,38.888671875ZM140.401,33.961591874999996L140.401,48.862621875L141.5521,48.862621875L141.5521,33.961591874999996L140.401,33.961591874999996ZM138.9115,37.055341874999996C138.8333,38.419921875,138.5625,40.242821875000004,138.0938,41.294921875L139.0573,41.544921875C139.5052,40.367821875000004,139.7917,38.492841874999996,139.8385,37.175131875L138.9115,37.055341874999996ZM141.7448,36.711591874999996C142.0781,37.466801875,142.3854,38.445961875,142.5104,39.024091874999996L143.375,38.664711875C143.2656,38.102211875,142.9115,37.159501875000004,142.5781,36.414711875L141.7448,36.711591874999996ZM151.8594,36.742841874999996C149.9531,37.055341874999996,146.5469,37.274091874999996,143.7448,37.336591874999996C143.8385,37.586591874999996,143.9531,37.935541875,143.9844,38.159501875000004C145.1042,38.123041875,146.3073,38.091801875,147.4896,38.024091874999996L147.4896,38.815751875000004L143.0885,38.815751875000004L143.0885,39.690721875L147.4896,39.690721875L147.4896,40.623021875L143.9844,40.623021875L143.9844,44.763621875L147.4896,44.763621875L147.4896,45.690721875L143.7135,45.690721875L143.7135,46.570921874999996L147.4896,46.570921874999996L147.4896,47.445921874999996L142.8646,47.445921874999996L142.8646,48.357421875L153.0729,48.357421875L153.0729,47.445921874999996L148.6094,47.445921874999996L148.6094,46.570921874999996L152.4635,46.570921874999996L152.4635,45.690721875L148.6094,45.690721875L148.6094,44.763621875L152.1927,44.763621875L152.1927,40.623021875L148.6094,40.623021875L148.6094,39.690721875L153.0885,39.690721875L153.0885,38.815751875000004L148.6094,38.815751875000004L148.6094,37.945961875C150.0312,37.852211875,151.375,37.722001875000004,152.4479,37.560541875L151.8594,36.742841874999996ZM145.0729,43.024121875L147.4896,43.024121875L147.4896,44.024121875L145.0729,44.024121875L145.0729,43.024121875ZM148.6094,43.024121875L151.0729,43.024121875L151.0729,44.024121875L148.6094,44.024121875L148.6094,43.024121875ZM145.0729,41.357421875L147.4896,41.357421875L147.4896,42.320921874999996L145.0729,42.320921874999996L145.0729,41.357421875ZM148.6094,41.357421875L151.0729,41.357421875L151.0729,42.320921874999996L148.6094,42.320921874999996L148.6094,41.357421875ZM149.5521,33.836591874999996L149.5521,35.024091874999996L146.5625,35.024091874999996L146.5625,33.836591874999996L145.4896,33.836591874999996L145.4896,35.024091874999996L143.1042,35.024091874999996L143.1042,35.904301875L145.4896,35.904301875L145.4896,36.794921875L146.5625,36.794921875L146.5625,35.904301875L149.5521,35.904301875L149.5521,36.758461875L150.625,36.758461875L150.625,35.904301875L153.0104,35.904301875L153.0104,35.024091874999996L150.625,35.024091874999996L150.625,33.836591874999996L149.5521,33.836591874999996ZM160.849,40.852221875C160.401,42.820921874999996,159.63,44.774121875,158.64100000000002,46.034521874999996C158.92700000000002,46.201221875,159.44299999999998,46.529321875,159.667,46.711621875C160.64100000000002,45.347021874999996,161.505,43.263621875,162.01600000000002,41.097021874999996L160.849,40.852221875ZM165.792,41.097021874999996C166.672,42.836621875,167.474,45.149121875,167.72899999999998,46.659521874999996L168.88,46.248021875C168.60899999999998,44.742821875000004,167.792,42.477221875,166.88,40.737621875L165.792,41.097021874999996ZM161.12,33.914711875C160.578,36.336591874999996,159.667,38.669921875,158.464,40.195921874999996C158.75,40.378221875,159.23399999999998,40.789721875,159.44299999999998,40.982421875C160.01600000000002,40.211621875,160.547,39.227211875,161.01,38.149091874999996L163.458,38.149091874999996L163.458,47.430321875000004C163.458,47.643921875000004,163.375,47.690721875,163.18200000000002,47.690721875C162.958,47.711621875,162.27100000000002,47.727221875,161.505,47.690721875C161.68200000000002,48.029321875,161.875,48.555321875000004,161.938,48.909521874999996C162.92700000000002,48.909521874999996,163.635,48.862621875,164.062,48.669921875C164.495,48.461621875,164.64100000000002,48.107421875,164.64100000000002,47.430321875000004L164.64100000000002,38.149091874999996L167.667,38.149091874999996C167.536,38.982421875,167.39600000000002,39.852221875,167.281,40.461621875L168.30700000000002,40.654321875C168.51600000000002,39.768921875000004,168.80200000000002,38.341801875,169.01,37.169921875L168.19299999999998,36.977211875L167.98399999999998,37.024091874999996L161.458,37.024091874999996C161.792,36.123041875,162.083,35.169921875,162.30700000000002,34.195961875L161.12,33.914711875ZM157.89100000000002,33.914711875C156.995,36.419921875,155.505,38.852211875,153.9219,40.440721875C154.14600000000002,40.722021874999996,154.47899999999998,41.362621875,154.594,41.659521874999996C155.151,41.065721875,155.69799999999998,40.378221875,156.224,39.623021875L156.224,48.862621875L157.375,48.862621875L157.375,37.779301875C158,36.664711875,158.578,35.461591874999996,159.026,34.263671875L157.89100000000002,33.914711875ZM176.958,33.815751875000004C175.953,35.175131875,174.01600000000002,36.753251875000004,171.44299999999998,37.852211875C171.714,38.044921875,172.078,38.440751875000004,172.27100000000002,38.716801875C173.72899999999998,38.029301875,174.958,37.227211875,176.01600000000002,36.357421875L180.531,36.357421875C179.72899999999998,37.373041875,178.625,38.258461875,177.35899999999998,38.998041875C176.786,38.503251875000004,175.98399999999998,37.930341874999996,175.312,37.539711875L174.43200000000002,38.180341874999996C175.07299999999998,38.555341874999996,175.776,39.076171875,176.30200000000002,39.570921874999996C174.594,40.419921875,172.703,41.008421874999996,170.911,41.331421875000004C171.12,41.586621875,171.375,42.081421875000004,171.49,42.409521874999996C175.667,41.524121875,180.35399999999998,39.341801875,182.401,35.706381875L181.615,35.222001875000004L181.411,35.274091874999996L177.23399999999998,35.274091874999996C177.615,34.893881875,177.969,34.503251875000004,178.286,34.107421875L176.958,33.815751875000004ZM179.56799999999998,39.503221875C178.417,41.123021875,176.115,42.919921875,172.865,44.117821875000004C173.12,44.347021874999996,173.458,44.768921875000004,173.615,45.050121875C175.615,44.232421875,177.297,43.227221875,178.625,42.112621875L182.995,42.112621875C182.193,43.393921875000004,181.042,44.425121875,179.651,45.232421875C179.089,44.690721875,178.30700000000002,44.050121875,177.667,43.591821875L176.672,44.180321875000004C177.297,44.654321875,178.01600000000002,45.279321875,178.547,45.820921874999996C176.286,46.867821875000004,173.599,47.445921874999996,170.865,47.706421875000004C171.05700000000002,48.018921875000004,171.281,48.560521875,171.35899999999998,48.904321875C177.042,48.216821875,182.531,46.310521875,184.771,41.456421875000004L183.969,40.961621875L183.745,41.024121875L179.839,41.024121875C180.224,40.617821875000004,180.578,40.206421875000004,180.89600000000002,39.800121875L179.56799999999998,39.503221875ZM186.37,40.690721875L186.37,42.003221875L201.026,42.003221875L201.026,40.690721875L186.37,40.690721875ZM205.458,40.024121875L213.823,40.024121875L213.823,42.904321875L205.458,42.904321875L205.458,40.024121875ZM207.104,45.466821875C207.312,46.529321875,207.443,47.904321875,207.443,48.727221875L208.656,48.560521875C208.641,47.774121875,208.479,46.414721875,208.24,45.367821875000004L207.104,45.466821875ZM210.417,45.482421875C210.88,46.498021875,211.359,47.873021875,211.536,48.690721875L212.703,48.383421874999996C212.51,47.560521875,212,46.237621875,211.505,45.237621875L210.417,45.482421875ZM213.682,45.352221875C214.479,46.383421874999996,215.375,47.841821875,215.745,48.742821875000004L216.88,48.248021875C216.479,47.352221875,215.552,45.956421875000004,214.755,44.925121875L213.682,45.352221875ZM204.495,45.024121875C204,46.237621875,203.182,47.560521875,202.339,48.315721875L203.422,48.857421875C204.302,47.987621875,205.12,46.612621875,205.63,45.336621875L204.495,45.024121875ZM204.318,38.888671875L204.318,44.024121875L215.026,44.024121875L215.026,38.888671875L210.146,38.888671875L210.146,36.690751875000004L216.224,36.690751875000004L216.224,35.555341874999996L210.146,35.555341874999996L210.146,33.862631875L208.943,33.862631875L208.943,38.888671875L204.318,38.888671875Z" fill="#322A2F" fill-opacity="1"/></g><g style="mix-blend-mode:passthrough"><g><g><path d="M32.3011,18.920221875C32.3011,15.917521875,32.2944,12.908081875,32.3011,9.905411875C32.3078,7.580541875,33.3579,5.879251875,35.4111,4.869321875C38.3272,3.439154875,41.9522,5.140443875,42.7682,8.299011875C42.9087,8.841251875000001,42.9822,9.410611875,42.9889,9.966411875C43.0023,15.422721875,43.0023,20.879021875,42.9956,26.335421875C42.9956,27.643521875,42.9956,28.958521875,42.9087,30.259821875C42.6946,33.642121875,41.6914,36.787121875,39.9792,39.688121875C37.4778,43.917621875,33.9665,46.967721875,29.4586,48.811421875C26.1546,50.160221875,22.7169,50.614321875,19.1721,50.221221875C14.5973,49.719621875,10.5978,47.896321875,7.1734,44.812321875C4.31083,42.229921875,2.26423,39.078121875,1.07372,35.384021875C0.0571068,32.239021875,-0.243864,29.012721875,0.19756,25.725321875C0.913202,20.384221875,3.27415,15.924321875,7.20015,12.318391875C9.40727,10.291761874999999,11.9421,8.827701874999999,14.7779,7.885551875C17.1322,7.106081875,19.5333,6.706171875,22.0079,6.828181875C24.0077,6.929851875000001,26.0075,8.563361875,26.5827,10.501871874999999C27.4521,13.443541875,26.1011,16.249621875000003,23.2653,17.307021875C22.6834,17.523921875,22.028,17.632421875,21.406,17.652721874999997C19.0985,17.713721874999997,16.9984,18.391521875000002,15.1458,19.781021875C13.0457,21.353521875,11.6478,23.427621875,11.0526,26.016821875C9.89551,31.086821875,12.1428,35.973721874999995,16.7175,38.339321875C18.6304,39.328921875,20.677,39.694921875,22.8105,39.389921875C26.7699,38.827321875,29.5991,36.685421875,31.3179,33.038821875C31.853,31.906921875,32.1874,30.707221875,32.2142,29.453321875C32.2744,26.755621875,32.2811,24.057921875,32.3078,21.360321875C32.3078,20.546921875,32.3011,19.733521875,32.3011,18.920221875Z" fill="#322A2F" fill-opacity="1"/></g><g><path d="M26.462277419433594,28.59247110290527C26.462277419433594,29.351611102905274,26.234877419433595,30.022641102905276,25.733267419433595,30.558101102905272C25.024307419433594,31.317241102905275,24.301977419433594,32.07638110290527,23.539517419433594,32.788081102905274C22.429277419433593,33.81832110290527,20.723767419433592,33.81832110290527,19.606837419433592,32.788081102905274C18.844377419433595,32.08316110290527,18.108667419433594,31.337581102905276,17.413094419433595,30.558101102905272C16.409858419433593,29.439721102905274,16.409858419433593,27.718101102905273,17.413094419433595,26.599731102905274C18.108667419433594,25.827031102905273,18.844377419433595,25.074671102905274,19.606837419433592,24.369751102905273C20.730457419433595,23.332711102905275,22.435957419433592,23.339487102905274,23.566277419433593,24.390084102905274C24.301987419433594,25.074671102905274,24.997557419433594,25.813471102905275,25.693137419433594,26.545501102905273C26.221507419433593,27.121631102905273,26.468967419433593,27.81977110290527,26.462277419433594,28.59247110290527Z" fill="#322A2F" fill-opacity="1"/></g></g></g></g></svg>