<svg xmlns="http://www.w3.org/2000/svg" xmlns:xlink="http://www.w3.org/1999/xlink" fill="none" version="1.1" width="48" height="48" viewBox="0 0 48 48"><g style="mix-blend-mode:passthrough"><g style="opacity:0;mix-blend-mode:passthrough"><rect x="0" y="0" width="48" height="48" rx="0" fill="#D8D8D8" fill-opacity="1"/></g><g style="mix-blend-mode:passthrough"><path d="M39.99993896484375,22.2223C39.99993896484375,10.37041,37.17593896484375,8,23.99993896484375,8C10.82393896484375,8,7.99993896484375,10.51023,7.99993896484375,22.2223C7.99993896484375,29.7743,9.33358896484375,34.6667,15.333588964843749,34.6667C21.33353896484375,34.6667,19.446138964843747,39.9999,24.00023896484375,40C26.12073896484375,40.0001,26.84473896484375,38.843900000000005,27.61853896484375,37.6082C28.50663896484375,36.189800000000005,29.46043896484375,34.6667,32.66683896484375,34.6667C38.66683896484375,34.6667,39.99993896484375,29.926,39.99993896484375,22.2223ZM16.32891896484375,10.53731Q19.04873896484375,10,23.99993896484375,10Q28.98023896484375,10,31.68073896484375,10.51954Q34.32703896484375,11.02867,35.61843896484375,12.16703Q36.85803896484375,13.259699999999999,37.41213896484375,15.48356Q37.99993896484375,17.84272,37.99993896484375,22.2223Q37.99993896484375,28.0486,36.79763896484375,30.4328Q36.23113896484375,31.5562,35.336538964843754,32.077799999999996Q34.32653896484375,32.6667,32.66683896484375,32.6667Q29.87323896484375,32.6667,28.07963896484375,34.0008Q27.02763896484375,34.7834,25.92343896484375,36.5467Q25.33683896484375,37.4835,25.04893896484375,37.7188Q24.70473896484375,38,24.00023896484375,38Q23.29593896484375,38,22.95173896484375,37.7187Q22.663838964843748,37.4835,22.077138964843748,36.5467Q20.97293896484375,34.7833,19.92083896484375,34.0008Q18.127238964843748,32.6667,15.333588964843749,32.6667Q13.68912896484375,32.6667,12.67943896484375,32.0657Q11.77951896484375,31.53,11.205668964843749,30.3821Q9.99993896484375,27.9704,9.99993896484375,22.2223Q9.99993896484375,17.89353,10.58733896484375,15.54413Q11.14343896484375,13.31992,12.387668964843751,12.213940000000001Q13.68664896484375,11.059280000000001,16.32891896484375,10.53731Z" fill-rule="evenodd" fill="#322A2F" fill-opacity="1"/></g><g style="mix-blend-mode:passthrough"><ellipse cx="18.49993896484375" cy="22.5" rx="1.5" ry="1.5" fill="#322A2F" fill-opacity="1"/></g><g style="mix-blend-mode:passthrough"><ellipse cx="23.99993896484375" cy="22.5" rx="1" ry="1.5" fill="#322A2F" fill-opacity="1"/></g><g style="mix-blend-mode:passthrough"><ellipse cx="29.49993896484375" cy="22.5" rx="1.5" ry="1.5" fill="#322A2F" fill-opacity="1"/></g></g></svg>