<svg xmlns="http://www.w3.org/2000/svg" xmlns:xlink="http://www.w3.org/1999/xlink" fill="none" version="1.1" width="28" height="28" viewBox="0 0 28 28"><g style="mix-blend-mode:passthrough"><g style="opacity:0;mix-blend-mode:passthrough"><rect x="0" y="0" width="28" height="28" rx="0" fill="#D8D8D8" fill-opacity="1"/></g><g style="mix-blend-mode:passthrough"><g style="mix-blend-mode:passthrough"><ellipse cx="14" cy="13" rx="11" ry="11" fill-opacity="0" stroke-opacity="1" stroke="#322A2F" fill="none" stroke-width="2"/></g><g style="mix-blend-mode:passthrough"><path d="M24.092890762939454,25.707111525878908L20.492893762939453,22.107108525878907L21.907107762939454,20.692894525878906L25.507110762939455,24.292891525878908L24.092890762939454,25.707111525878908ZM25.800000762939455,25.000001525878908Q25.800000762939455,25.098491525878906,25.780790762939453,25.195091525878908Q25.761570762939453,25.291691525878907,25.72388076293945,25.38268152587891Q25.686190762939454,25.473681525878906,25.631470762939454,25.555571525878907Q25.576750762939454,25.637461525878905,25.507110762939455,25.707111525878908Q25.437460762939452,25.776751525878908,25.355570762939454,25.831471525878907Q25.273680762939453,25.886191525878907,25.182680762939455,25.923881525878905Q25.091690762939454,25.961571525878906,24.995090762939455,25.980791525878907Q24.898490762939453,26.000001525878908,24.800000762939455,26.000001525878908Q24.701510762939453,26.000001525878908,24.604910762939454,25.980791525878907Q24.508310762939452,25.961571525878906,24.417320762939454,25.923881525878905Q24.326320762939453,25.886191525878907,24.24443076293945,25.831471525878907Q24.162540762939454,25.776751525878908,24.092890762939454,25.707111525878908Q24.023250762939455,25.637461525878905,23.96853076293945,25.555571525878907Q23.913810762939452,25.473681525878906,23.876120762939454,25.38268152587891Q23.838430762939453,25.291691525878907,23.81922076293945,25.195091525878908Q23.800000762939455,25.098491525878906,23.800000762939455,25.000001525878908Q23.800000762939455,24.901511525878906,23.81922076293945,24.804911525878907Q23.838430762939453,24.708311525878905,23.876120762939454,24.617321525878907Q23.913810762939452,24.526321525878906,23.96853076293945,24.444431525878905Q24.023250762939455,24.362541525878907,24.092890762939454,24.292891525878908Q24.162540762939454,24.223251525878908,24.24443076293945,24.168531525878905Q24.326320762939453,24.113811525878905,24.417320762939454,24.076121525878907Q24.508310762939452,24.038431525878906,24.604910762939454,24.019221525878905Q24.701510762939453,24.000001525878908,24.800000762939455,24.000001525878908Q24.898490762939453,24.000001525878908,24.995090762939455,24.019221525878905Q25.091690762939454,24.038431525878906,25.182680762939455,24.076121525878907Q25.273680762939453,24.113811525878905,25.355570762939454,24.168531525878905Q25.437460762939452,24.223251525878908,25.507110762939455,24.292891525878908Q25.576750762939454,24.362541525878907,25.631470762939454,24.444431525878905Q25.686190762939454,24.526321525878906,25.72388076293945,24.617321525878907Q25.761570762939453,24.708311525878905,25.780790762939453,24.804911525878907Q25.800000762939455,24.901511525878906,25.800000762939455,25.000001525878908ZM22.200000762939453,21.400001525878906Q22.200000762939453,21.498492925878907,22.180785762939454,21.595091525878907Q22.161570762939455,21.691690525878908,22.123879762939453,21.782684525878906Q22.086188762939454,21.873679525878906,22.031470762939453,21.955571525878906Q21.976751762939454,22.037464525878907,21.907107762939454,22.107108525878907Q21.837463762939453,22.176752525878907,21.755570762939453,22.231471525878906Q21.673678762939453,22.286189525878907,21.582683762939453,22.323880525878906Q21.491689762939455,22.361571525878908,21.395090762939454,22.380786525878907Q21.298492162939453,22.400001525878906,21.200000762939453,22.400001525878906Q21.101509362939453,22.400001525878906,21.004910762939453,22.380786525878907Q20.90831176293945,22.361571525878908,20.817317762939453,22.323880525878906Q20.726322762939454,22.286189525878907,20.644430762939454,22.231471525878906Q20.562537762939453,22.176752525878907,20.492893762939453,22.107108525878907Q20.423249762939452,22.037464525878907,20.368530762939454,21.955571525878906Q20.313812762939452,21.873679525878906,20.276121762939454,21.782684525878906Q20.23843076293945,21.691690525878908,20.219215762939452,21.595091525878907Q20.200000762939453,21.498492925878907,20.200000762939453,21.400001525878906Q20.200000762939453,21.301510125878906,20.219215762939452,21.204911525878906Q20.23843076293945,21.108312525878905,20.276121762939454,21.017318525878906Q20.313812762939452,20.926323525878907,20.368530762939454,20.844431525878907Q20.423249762939452,20.762538525878906,20.492893762939453,20.692894525878906Q20.562537762939453,20.623250525878905,20.644430762939454,20.568531525878907Q20.726322762939454,20.513813525878906,20.817317762939453,20.476122525878907Q20.90831176293945,20.438431525878904,21.004910762939453,20.419216525878905Q21.101509362939453,20.400001525878906,21.200000762939453,20.400001525878906Q21.298492162939453,20.400001525878906,21.395090762939454,20.419216525878905Q21.491689762939455,20.438431525878904,21.582683762939453,20.476122525878907Q21.673678762939453,20.513813525878906,21.755570762939453,20.568531525878907Q21.837463762939453,20.623250525878905,21.907107762939454,20.692894525878906Q21.976751762939454,20.762538525878906,22.031470762939453,20.844431525878907Q22.086188762939454,20.926323525878907,22.123879762939453,21.017318525878906Q22.161570762939455,21.108312525878905,22.180785762939454,21.204911525878906Q22.200000762939453,21.301510125878906,22.200000762939453,21.400001525878906Z" fill="#322A2F" fill-opacity="1"/></g></g></g></svg>