<svg xmlns="http://www.w3.org/2000/svg" xmlns:xlink="http://www.w3.org/1999/xlink" fill="none" version="1.1" width="750" height="599" viewBox="0 0 750 599"><defs><mask id="master_svg0_1745_05334"><g style="mix-blend-mode:passthrough"><rect x="0" y="0" width="750" height="599" rx="0" fill="#FFFFFF" fill-opacity="1"/></g></mask><filter id="master_svg1_1745_05330" filterUnits="objectBoundingBox" color-interpolation-filters="sRGB" x="-320" y="-320" width="846" height="846"><feFlood flood-opacity="0" result="BackgroundImageFix"/><feBlend mode="normal" in="SourceGraphic" in2="BackgroundImageFix" result="shape"/><feGaussianBlur stdDeviation="80" result="effect1_foregroundBlur"/></filter><filter id="master_svg2_1745_05375" filterUnits="objectBoundingBox" color-interpolation-filters="sRGB" x="-320" y="-320" width="1137" height="1137"><feFlood flood-opacity="0" result="BackgroundImageFix"/><feBlend mode="normal" in="SourceGraphic" in2="BackgroundImageFix" result="shape"/><feGaussianBlur stdDeviation="80" result="effect1_foregroundBlur"/></filter><filter id="master_svg3_1745_05379" filterUnits="objectBoundingBox" color-interpolation-filters="sRGB" x="-320" y="-320" width="957" height="957"><feFlood flood-opacity="0" result="BackgroundImageFix"/><feBlend mode="normal" in="SourceGraphic" in2="BackgroundImageFix" result="shape"/><feGaussianBlur stdDeviation="80" result="effect1_foregroundBlur"/></filter><filter id="master_svg4_1745_05326" filterUnits="objectBoundingBox" color-interpolation-filters="sRGB" x="-320" y="-320" width="957" height="957"><feFlood flood-opacity="0" result="BackgroundImageFix"/><feBlend mode="normal" in="SourceGraphic" in2="BackgroundImageFix" result="shape"/><feGaussianBlur stdDeviation="80" result="effect1_foregroundBlur"/></filter><linearGradient x1="0.5" y1="0" x2="0.5" y2="1.1857160329818726" id="master_svg5_1745_05362"><stop offset="0%" stop-color="#FDE4D8" stop-opacity="1"/><stop offset="99.99998807907104%" stop-color="#FDE4D8" stop-opacity="0"/></linearGradient><linearGradient x1="0.5" y1="0" x2="0.5" y2="1.1857160329818726" id="master_svg6_1745_05374"><stop offset="0%" stop-color="#FDE4D8" stop-opacity="1"/><stop offset="99.99998807907104%" stop-color="#FDE4D8" stop-opacity="0"/></linearGradient><linearGradient x1="0.5" y1="0" x2="0.5" y2="1.1857160329818726" id="master_svg7_1745_05370"><stop offset="0%" stop-color="#FDE4D8" stop-opacity="1"/><stop offset="99.99998807907104%" stop-color="#FDE4D8" stop-opacity="0"/></linearGradient><linearGradient x1="0.5" y1="0" x2="0.5" y2="1.1857160329818726" id="master_svg8_1745_05366"><stop offset="0%" stop-color="#FDE4D8" stop-opacity="1"/><stop offset="99.99998807907104%" stop-color="#FDE4D8" stop-opacity="0"/></linearGradient><linearGradient x1="0.5" y1="0" x2="0.5" y2="1.1857160329818726" id="master_svg9_1745_05346"><stop offset="0%" stop-color="#FDE4D8" stop-opacity="1"/><stop offset="99.99998807907104%" stop-color="#FDE4D8" stop-opacity="0"/></linearGradient><linearGradient x1="0.5" y1="0" x2="0.5" y2="1.1857160329818726" id="master_svga_1745_05358"><stop offset="0%" stop-color="#FDE4D8" stop-opacity="1"/><stop offset="99.99998807907104%" stop-color="#FDE4D8" stop-opacity="0"/></linearGradient><linearGradient x1="0.5" y1="0" x2="0.5" y2="1.1857160329818726" id="master_svgb_1745_05350"><stop offset="0%" stop-color="#FDE4D8" stop-opacity="1"/><stop offset="99.99998807907104%" stop-color="#FDE4D8" stop-opacity="0"/></linearGradient><linearGradient x1="0.5" y1="0" x2="0.5" y2="1.1857160329818726" id="master_svgc_1745_05342"><stop offset="0%" stop-color="#FDE4D8" stop-opacity="1"/><stop offset="99.99998807907104%" stop-color="#FDE4D8" stop-opacity="0"/></linearGradient><linearGradient x1="0.5" y1="0" x2="0.5" y2="0.7604852914810181" id="master_svgd_1745_05354"><stop offset="0%" stop-color="#FDE4D8" stop-opacity="1"/><stop offset="99.99998807907104%" stop-color="#FDE4D8" stop-opacity="0"/></linearGradient></defs><g style="mix-blend-mode:passthrough" mask="url(#master_svg0_1745_05334)"><g style="opacity:0.30000001192092896;mix-blend-mode:passthrough" filter="url(#master_svg1_1745_05330)"><ellipse cx="690" cy="91" rx="103" ry="103" fill="#FBE5DB" fill-opacity="1"/></g><g style="opacity:0.30000001192092896;mix-blend-mode:passthrough" filter="url(#master_svg2_1745_05375)"><ellipse cx="205.5" cy="-15.5" rx="248.5" ry="248.5" fill="#E7DBFF" fill-opacity="1"/></g><g style="opacity:0.5;mix-blend-mode:passthrough" filter="url(#master_svg3_1745_05379)"><ellipse cx="397.5" cy="143.5" rx="158.5" ry="158.5" fill="#DBFFFE" fill-opacity="1"/></g><g style="opacity:0.5;mix-blend-mode:passthrough" filter="url(#master_svg4_1745_05326)"><ellipse cx="720.5" cy="269.5" rx="158.5" ry="158.5" fill="#EEFFDB" fill-opacity="1"/></g><g style="opacity:0.4000000059604645;mix-blend-mode:passthrough"><g style="mix-blend-mode:passthrough"><path d="M628,67.34481762695313C628,74.08661762695313,630.12931,80.65581762695312,634.08411,86.11581762695313L651.4383,110.07581762695312C657.4567,118.38481762695312,667.0944,123.30381762695313,677.3542,123.30381762695313L723,123.30381762695313C740.673,123.30381762695313,755,108.97681762695314,755,91.30381762695312L755,10.581817626953125C755,-7.091282373046875,740.673,-21.418182373046875,723,-21.418182373046875L660,-21.418182373046875C642.3269,-21.418182373046875,628,-7.091282373046875,628,10.581817626953125L628,67.34481762695313Z" fill="url(#master_svg5_1745_05362)" fill-opacity="1"/></g><g style="mix-blend-mode:passthrough"><path d="M539,77.71664379882813C539,84.45844379882813,541.12931,91.02764379882812,545.08411,96.48764379882813L562.4383,120.44764379882812C568.4567,128.75664379882812,578.0944,133.67564379882813,588.3542,133.67564379882813L634,133.67564379882813C651.673,133.67564379882813,666,119.34864379882814,666,101.67564379882812L666,20.953643798828125C666,3.280543798828125,651.673,-11.046356201171875,634,-11.046356201171875L571,-11.046356201171875C553.3269,-11.046356201171875,539,3.280543798828125,539,20.953643798828125L539,77.71664379882813Z" fill="url(#master_svg6_1745_05374)" fill-opacity="1"/></g><g style="mix-blend-mode:passthrough"><path d="M362,69.7127C362,76.4673,364.13736,83.0486,368.10602,88.5143L382.8367,108.802C388.8571,117.09299999999999,398.484,122,408.7306,122L447,122C464.673,122,479,107.673,479,90L479,21C479,3.3269,464.673,-11,447,-11L394,-11C376.3269,-11,362,3.3269,362,21L362,69.7127Z" fill="url(#master_svg7_1745_05370)" fill-opacity="1"/></g><g style="mix-blend-mode:passthrough"><path d="M257,76.5491C257,83.3121,259.14266,89.901,263.12044,95.371L280.1756,118.821C286.1973,127.101,295.8172,132,306.0552,132L351,132C368.673,132,383,117.673,383,100L383,21C383,3.3269,368.673,-11,351,-11L289,-11C271.3269,-11,257,3.3269,257,21L257,76.5491Z" fill="url(#master_svg8_1745_05366)" fill-opacity="1"/></g><g style="mix-blend-mode:passthrough"><path d="M168,64.2298C168,70.9862,170.13848,77.5692,174.10908,83.0357L187.0164,100.806C193.0371,109.095,202.6626,114,212.9074,114L246,114C263.6731,114,278,99.673,278,82L278,21C278,3.3269,263.6731,-11,246,-11L200,-11C182.3269,-11,168,3.3269,168,21L168,64.2298Z" fill="url(#master_svg9_1745_05346)" fill-opacity="1"/></g><g style="mix-blend-mode:passthrough"><path d="M83,64.2298C83,70.9862,85.13848,77.5692,89.10908,83.0357L102.0164,100.806C108.0371,109.095,117.6626,114,127.9074,114L161,114C178.6731,114,193,99.673,193,82L193,21C193,3.3269,178.6731,-11,161,-11L115,-11C97.3269,-11,83,3.3269,83,21L83,64.2298Z" fill="url(#master_svga_1745_05358)" fill-opacity="1"/></g><g style="mix-blend-mode:passthrough"><path d="M-16,70.3891C-16,77.149,-13.85929,83.7352,-9.88486,89.203L5.096,109.814C11.1172,118.09800000000001,20.7397,123,30.9809,123L70,123C87.673,123,102,108.673,102,91L102,21C102,3.3269,87.673,-11,70,-11L16,-11C-1.6730999999999998,-11,-16,3.3269,-16,21L-16,70.3891Z" fill="url(#master_svgb_1745_05350)" fill-opacity="1"/></g><g style="mix-blend-mode:passthrough"><path d="M460,56.0471C460,62.7804,462.12394,69.3421,466.06951,74.7983L476.1594,88.7513C482.1765,97.072,491.8213,102,502.0899,102L527,102C544.6731,102,559,87.6731,559,70L559,21C559,3.3269,544.6731,-11,527,-11L492,-11C474.3269,-11,460,3.3269,460,21L460,56.0471Z" fill="url(#master_svgc_1745_05342)" fill-opacity="1"/></g><g style="mix-blend-mode:passthrough"><rect x="-1" y="0" width="751" height="176" rx="0" fill="url(#master_svgd_1745_05354)" fill-opacity="1"/></g></g></g></svg>